<svg width="383" height="262" viewBox="0 0 383 262" fill="none" xmlns="http://www.w3.org/2000/svg">
<g clip-path="url(#clip0_790_87)">
<path d="M60.7484 84.9589L59.8664 93.6373L113.495 168.725L125.628 172.496L167.811 142.368L168.708 124.903L118.884 55.1423L108.14 51.1113L60.7484 84.9589Z" fill="#B99ED1"/>
<g clip-path="url(#clip1_790_87)">
<path d="M97.1571 124.872L98.0642 118.539L102.276 109.223L106.425 103.566L111.615 99.8595L118.312 97.7697L123.602 97.3164L129.545 97.6692L134.996 98.6785L135.231 103.179L133.993 108.619L131.49 113.167L129.572 116.821L124.347 121.697L120.314 124.578L114.222 127.295L108.845 127.615L103.218 127.179L97.1571 124.872Z" fill="#F9F1C6"/>
<path d="M105.606 110.697L107.411 105.556L109.928 102.984L113.191 101.432L115.546 101.071L120.225 101.937L122.454 103.205L124.381 104.997L126.394 108.413L127.094 111.889L126.86 114.616L125.42 118.11L123.209 120.592L120.791 122.319L117.126 122.841L114.047 122.514L110.898 121.167L108.486 119.137L106.995 117.049L105.666 113.333L105.606 110.697Z" fill="#B99ED1"/>
<path d="M110.599 111.129L110.997 109.544L112.345 107.593L114.037 106.517L116.018 106.114L117.415 106.261L119.292 107.054L120.659 108.229L121.865 109.918L122.069 111.872L121.844 113.752L121.109 115.327L119.745 116.729L117.639 117.643L116.065 117.737L114.331 117.323L112.747 116.369L111.236 114.593L110.764 112.836L110.599 111.129Z" fill="#3C1981"/>
</g>
</g>
<g clip-path="url(#clip2_790_87)">
<path d="M1.21615 238.359L6.76475 245.09L97.86 259.78L109.074 253.809L117.327 202.633L105.543 189.71L20.9105 176.062L10.4882 180.864L1.21615 238.359Z" fill="#FFE250"/>
<g clip-path="url(#clip3_790_87)">
<path d="M55.1962 240.55L51.3321 235.451L47.6722 225.904L46.5696 218.976L47.5849 212.681L50.8095 206.45L54.208 202.371L58.6393 198.394L63.1902 195.23L66.5554 198.228L69.5511 202.934L71.023 207.912L72.2719 211.846L72.0635 218.989L71.2744 223.882L68.9208 230.124L65.3671 234.171L61.0989 237.865L55.1962 240.55Z" fill="#F9F1C6"/>
<path d="M51.0622 224.574L48.6769 219.675L48.619 216.077L49.8112 212.666L51.2105 210.738L55.1175 208.022L57.5863 207.328L60.2153 207.22L64.06 208.191L67.023 210.138L68.7972 212.222L70.2677 215.704L70.4768 219.021L70.0036 221.955L67.7976 224.927L65.3988 226.886L62.2269 228.176L59.0876 228.463L56.5538 228.055L52.9781 226.386L51.0622 224.574Z" fill="#B99ED1"/>
<path d="M54.8818 221.329L54.0346 219.931L53.5959 217.601L54.0216 215.641L55.1283 213.95L56.2154 213.06L58.0986 212.283L59.8955 212.139L61.9447 212.469L63.477 213.698L64.6553 215.18L65.2576 216.811L65.2946 218.766L64.464 220.906L63.4234 222.091L61.909 223.033L60.1168 223.488L57.7919 223.313L56.2106 222.412L54.8818 221.329Z" fill="#3C1981"/>
</g>
</g>
<g clip-path="url(#clip4_790_87)">
<path d="M169.442 18.221L165.359 25.9298L186.796 115.677L196.618 123.737L247.037 111.694L254.44 95.8491L234.524 12.4686L226.086 4.69137L169.442 18.221Z" fill="#FFE250"/>
<g clip-path="url(#clip5_790_87)">
<path d="M188.158 68.8999L191.382 63.373L198.789 56.3262L204.762 52.6463L210.964 51.1648L217.955 51.7483L223.027 53.3186L228.402 55.8818L233.072 58.8676L231.597 63.1263L228.403 67.7003L224.372 70.9719L221.22 73.6362L214.545 76.1884L209.724 77.3398L203.057 77.5653L197.956 75.839L192.906 73.3176L188.158 68.8999Z" fill="#F9F1C6"/>
<path d="M201.32 58.9445L204.926 54.8602L208.226 53.4244L211.834 53.2144L214.151 53.7657L218.16 56.329L219.749 58.3419L220.859 60.7273L221.44 64.6502L220.78 68.1339L219.538 70.5727L216.888 73.2681L213.907 74.7353L211.016 75.4258L207.424 74.5311L204.694 73.0691L202.284 70.6364L200.813 67.8483L200.217 65.3519L200.383 61.4097L201.32 58.9445Z" fill="#B99ED1"/>
<path d="M205.783 61.2244L206.749 59.905L208.731 58.6049L210.704 58.2449L212.691 58.6168L213.93 59.2786L215.371 60.7188L216.195 62.3222L216.677 64.3411L216.131 66.2281L215.215 67.8853L213.941 69.0679L212.15 69.8533L209.855 69.9087L208.362 69.4031L206.91 68.3668L205.802 66.887L205.07 64.6735L205.294 62.8674L205.783 61.2244Z" fill="#3C1981"/>
</g>
</g>
<g clip-path="url(#clip6_790_87)">
<path d="M322.351 2.795L314.534 6.66789L279.516 92.037L282.782 104.315L330.741 123.988L346.004 115.45L378.538 36.1378L376.231 24.8966L322.351 2.795Z" fill="#3C1981"/>
<g clip-path="url(#clip7_790_87)">
<path d="M307.943 54.863L313.787 52.2595L323.916 50.8661L330.913 51.3675L336.813 53.7877L342.147 58.3444L345.347 62.5814L348.212 67.8009L350.259 72.952L346.574 75.5474L341.31 77.3946L336.128 77.6962L332.013 78.018L325.104 76.1908L320.519 74.3099L314.975 70.5987L311.843 66.2179L309.216 61.2218L307.943 54.863Z" fill="#F9F1C6"/>
<path d="M324.441 54.4701L329.754 53.2611L333.271 54.0227L336.322 55.9594L337.88 57.7603L339.638 62.1827L339.752 64.7445L339.26 67.3293L337.44 70.8525L334.87 73.2952L332.437 74.549L328.712 75.1893L325.435 74.6389L322.685 73.5109L320.292 70.6869L318.93 67.9056L318.395 64.5233L318.829 61.401L319.803 59.0265L322.241 55.9237L324.441 54.4701Z" fill="#B99ED1"/>
<path d="M326.732 58.927L328.286 58.4198L330.655 58.5223L332.467 59.3825L333.862 60.8447L334.481 62.1057L334.81 64.1161L334.542 65.8989L333.754 67.8193L332.209 69.0319L330.498 69.8424L328.773 70.0582L326.86 69.6497L324.965 68.3543L324.048 67.0716L323.475 65.3827L323.44 63.534L324.138 61.3097L325.375 59.9747L326.732 58.927Z" fill="#3C1981"/>
</g>
</g>
<defs>
<clipPath id="clip0_790_87">
<rect width="70.3994" height="108.942" fill="white" transform="translate(56.0598 88.3076) rotate(-35.535)"/>
</clipPath>
<clipPath id="clip1_790_87">
<rect width="46.0153" height="25.1707" fill="white" transform="translate(90.2109 115.146) rotate(-35.535)"/>
</clipPath>
<clipPath id="clip2_790_87">
<rect width="70.3994" height="108.942" fill="white" transform="translate(0.298828 244.047) rotate(-80.8389)"/>
</clipPath>
<clipPath id="clip3_790_87">
<rect width="46.0153" height="25.1707" fill="white" transform="translate(43.3972 238.647) rotate(-80.8389)"/>
</clipPath>
<clipPath id="clip4_790_87">
<rect width="70.3994" height="108.942" fill="white" transform="translate(163.838 19.5596) rotate(-13.4336)"/>
</clipPath>
<clipPath id="clip5_790_87">
<rect width="46.0153" height="25.1707" fill="white" transform="translate(185.382 57.2754) rotate(-13.4336)"/>
</clipPath>
<clipPath id="clip6_790_87">
<rect width="70.3994" height="108.942" fill="white" transform="translate(317.02 0.608398) rotate(22.3033)"/>
</clipPath>
<clipPath id="clip7_790_87">
<rect width="46.0153" height="25.1707" fill="white" transform="translate(312.479 43.8057) rotate(22.3033)"/>
</clipPath>
</defs>
</svg>
