<svg width="218" height="272" viewBox="0 0 218 272" fill="none" xmlns="http://www.w3.org/2000/svg">
<g clip-path="url(#clip0_898_210)">
<path d="M84.467 3.9478L68.2614 13.6023L7.00853 203.505L16.0984 229.432L122.783 263.843L154.266 242.889L211.173 66.4587L204.324 42.6075L84.467 3.9478Z" fill="#B99ED1"/>
<g clip-path="url(#clip1_898_210)">
<path d="M62.0932 118.613L74.2595 112.024L95.8646 107.329L111.035 107.243L124.159 111.476L136.42 120.41L144.025 129.011L151.074 139.787L156.347 150.551L148.836 156.762L137.794 161.623L126.671 163.138L117.854 164.518L102.653 161.732L92.453 158.442L79.8813 151.366L72.396 142.443L65.8998 132.11L62.0932 118.613Z" fill="#F9F1C6"/>
<path d="M97.5982 115.011L108.851 111.518L116.56 112.573L123.462 116.24L127.123 119.862L131.65 129.104L132.323 134.608L131.694 140.263L128.358 148.163L123.225 153.858L118.188 156.968L110.264 158.97L103.107 158.33L96.9895 156.357L91.3593 150.668L87.9582 144.898L86.2395 137.696L86.6548 130.891L88.3586 125.609L93.0963 118.513L97.5982 115.011Z" fill="#B99ED1"/>
<path d="M103.282 124.239L106.548 122.886L111.672 122.712L115.721 124.264L118.974 127.184L120.52 129.799L121.563 134.079L121.283 137.967L119.905 142.239L116.776 145.112L113.222 147.145L109.539 147.898L105.347 147.336L101.045 144.86L98.8544 142.247L97.3373 138.701L96.9517 134.722L98.0871 129.809L100.531 126.724L103.282 124.239Z" fill="#3C1981"/>
</g>
<path d="M35.7588 174.297C34.6934 176.812 32.9067 183.161 32.1685 187.34C31.4635 189.279 31.0445 190.8 30.8992 191.95C30.7621 192.548 30.4962 193.176 30.2223 193.823" stroke="#101340" stroke-width="2" stroke-linecap="round"/>
<path d="M37.4086 173.629C39.8852 174.678 44.6171 177.437 46.1506 179.615C47.0248 180.856 48.0186 181.934 48.5428 183.011C49.523 185.026 47.1563 189.545 45.0944 192.8C43.6713 195.047 40.2825 194.679 38.0084 194.479C35.6665 194.44 33.2632 194.566 30.9892 194.367C30.4185 194.317 29.8564 194.268 29.0717 194.702" stroke="#101340" stroke-width="2" stroke-linecap="round"/>
<path d="M61.0825 190.49C60.7749 190.36 59.9298 190.201 58.5985 190.534C55.3364 191.351 53.8781 195.845 51.7508 198.467C50.1998 200.378 50.2102 202.74 50.5113 203.969C50.8122 205.198 51.9811 205.904 53.2923 206.261C55.9951 206.996 58.5662 205.49 60.9223 204.483C65.1411 202.679 63.3445 194.676 63.4367 192.297C63.4568 191.779 62.8827 191.458 62.7285 191.588C63.836 196.046 66.1992 203.484 66.5419 206.141C66.6011 206.87 66.6233 207.674 67.1458 209.919" stroke="#101340" stroke-width="2" stroke-linecap="round"/>
<path d="M73.8802 194.021C73.8856 195.378 74.5628 198.384 75.3351 201.63C76.0856 204.784 76.4262 207.346 76.8296 209.18C77.3533 211.561 78.8375 203.534 80.8932 198.667C82.3021 195.331 86.3324 195.023 88.8469 194.625C89.998 194.444 91.2464 194.956 92.3819 195.726C94.5948 197.226 93.0811 200.776 92.6476 203.418C91.5313 206.745 90.4743 210.167 88.985 213.911C88.4643 215.369 88.4207 215.928 88.6628 217.21" stroke="#101340" stroke-width="2" stroke-linecap="round"/>
<path d="M100.766 201.544C98.3259 208.686 98.2955 212.484 97.5227 215.013C97.1066 216.375 97.0786 217.687 97.2057 218.315C97.571 220.12 101.421 212.528 103.565 209.12C104.87 207.046 106.696 205.21 108.947 204.537C110.059 204.205 111.526 204.958 112.925 205.834C115.804 207.635 114.154 212.722 113.762 215.512C113.506 217.978 112.751 220.697 112.358 223.013C112.319 223.571 112.282 224.121 112.334 225.868" stroke="#101340" stroke-width="2" stroke-linecap="round"/>
<path d="M120.593 209.595C120.806 210.836 121.3 214.875 121.873 218.792C122.413 222.486 123.428 225.61 124.08 228.876C124.382 230.392 125.049 232.271 125.695 233.801C127.341 237.7 131.083 225.027 134.218 218.287C134.927 216.828 135.288 216.409 135.68 215.708C136.071 215.007 136.482 214.037 136.905 213.038" stroke="#101340" stroke-width="2" stroke-linecap="round"/>
<path d="M129.05 231.582C128.593 232.661 127.038 234.558 125.007 235.985C122.759 237.565 121.253 240.149 119.588 241.827C118.037 243.39 115.736 244.219 113.308 244.565C112.723 244.594 112.18 244.545 111.629 244.495C111.078 244.445 110.535 244.396 110.172 243.881" stroke="#101340" stroke-width="2" stroke-linecap="round"/>
</g>
<defs>
<clipPath id="clip0_898_210">
<rect width="152.237" height="235.585" fill="white" transform="translate(72.6091 0.123047) rotate(17.877)"/>
</clipPath>
<clipPath id="clip1_898_210">
<rect width="99.5071" height="54.4312" fill="white" transform="translate(70.0269 94.0156) rotate(17.877)"/>
</clipPath>
</defs>
</svg>
