<svg width="200" height="199" viewBox="0 0 200 199" fill="none" xmlns="http://www.w3.org/2000/svg">
<path d="M0.284424 94.6296L12.6483 162.196L73.8791 188.048L106.261 198.036L146.885 188.048L182.799 162.196L199.284 133.407V61.7275L182.799 25.3002L126.867 0.0361328H73.8791L27.3673 11.7869L12.6483 50.5643L0.284424 94.6296Z" fill="#101340"/>
<path d="M24.2844 100.536V137.036L33.2844 167.036L56.2844 186.036L79.2844 197.536H113.784L140.784 186.036L164.784 171.536L175.284 150.036L180.784 114.536L175.284 77.0361L164.784 55.5361L123.784 36.5361L86.7844 30.0361L51.2844 42.5361L33.2844 71.0361L24.2844 100.536Z" fill="#F9F1C6"/>
<path d="M61.2844 186.036L92.2844 197.536H113.784L141.784 186.036L160.284 156.536L164.784 113.036L141.784 82.0361L104.784 68.0361H70.7844L43.2844 82.0361L34.7844 104.036V143.536L43.2844 172.036L61.2844 186.036Z" fill="#B99ED1"/>
<path d="M46.2844 172.536L67.7844 187.536L98.2844 198.036L125.284 187.536L139.784 177.036L148.784 145.036V112.036L125.284 95.5361L98.2844 89.0361L63.7844 95.5361L46.2844 112.036V145.036V172.536Z" fill="#2A1467"/>
<path d="M57.7844 178.536L89.2844 198.036L125.784 186.536L134.784 161.536V139.536L125.784 122.536L92.7844 116.036L65.7844 122.536L57.7844 147.036V178.536Z" fill="#FFE250"/>
<path d="M72.2844 188.647L90.2844 197.647L113.784 188.647L124.284 163.647L113.784 148.036H80.2844L72.2844 154.647V188.647Z" fill="#2A1467"/>
<path d="M75.7844 176.536L85.2844 185.536L99.2844 197.536L113.784 185.536V176.536L99.2844 166.036H85.2844L75.7844 176.536Z" fill="#B99ED1"/>
</svg>
