<svg width="88" height="146" viewBox="0 0 88 146" fill="none" xmlns="http://www.w3.org/2000/svg">
<g filter="url(#filter0_d_840_666)">
<path d="M10.5474 0L4 8.24472V124.401L12.7285 137.141H71.6349L84 119.901V11.9901L76.7269 0H10.5474Z" fill="#FAF2C7"/>
<path d="M36.8176 24.3675L44.256 10.5107L42.5627 20.6503L51.1824 19.973L39.1842 34.6079L40.8734 25.3795L36.8176 24.3675Z" fill="#FFE34F"/>
<path d="M57.7621 95.3296L59.4594 107.203L29.1978 106.026V53.7754H25.8032L24.3679 44.5752L32.8505 43.6802L33.6326 47.994H39.8938V42.5029L48.5014 43.6802L49.1505 47.994H55.0246L54.5045 43.6802H62.721L63.6321 53.7754H58.0604L58.6732 81.6381L57.7621 95.3296Z" fill="#BA9ED1"/>
<path d="M39.8172 71.832H29.1938V73.3963H39.8172V71.832Z" fill="#290066"/>
<path d="M58.2822 63.8125L47.6346 63.8649V62.3047H58.258L58.2822 63.8125Z" fill="#290066"/>
<path d="M58.3426 66.58H51.0171V65.7979H58.3265L58.3426 66.58Z" fill="#290066"/>
<path d="M35.9226 76.7304H29.1978V75.9482H35.9065L35.9226 76.7304Z" fill="#290066"/>
<path d="M39.8172 84.5986H29.1938V86.1629H39.8172V84.5986Z" fill="#290066"/>
<path d="M35.9226 89.4959H29.1978V88.7178H35.9065L35.9226 89.4959Z" fill="#290066"/>
<path d="M27.9762 128.357V124.994H26.8393V124.208H30.1372V124.994H28.9962V128.357H27.9802H27.9762Z" fill="#290066"/>
<path d="M30.7419 128.357V124.208H31.7579V125.837H33.0843V124.208H34.0922V128.357H33.0883V126.639H31.766V128.357H30.7419Z" fill="#290066"/>
<path d="M35.0034 128.357V124.208H37.9666L37.8658 124.982H36.0032V125.865H37.7449V126.615H36.0032V127.583H37.8779L37.9868 128.357H35.0034Z" fill="#290066"/>
<path d="M40.7606 128.357V124.994H39.6237V124.208H42.9216V124.994H41.7806V128.357H40.7646H40.7606Z" fill="#290066"/>
<path d="M45.0986 128.416C44.8567 128.416 44.6309 128.372 44.4172 128.287C44.2035 128.202 44.0181 128.081 43.8568 127.916C43.6956 127.755 43.5706 127.557 43.4778 127.323C43.3851 127.089 43.3408 126.823 43.3408 126.533V126.029C43.3408 125.735 43.3851 125.473 43.4778 125.239C43.5665 125.005 43.6956 124.808 43.8568 124.646C44.0181 124.485 44.2035 124.36 44.4172 124.275C44.6309 124.191 44.8567 124.15 45.0986 124.15H45.3485C45.5904 124.15 45.8162 124.191 46.0299 124.275C46.2436 124.36 46.429 124.485 46.5903 124.646C46.7515 124.808 46.8765 125.005 46.9693 125.239C47.062 125.473 47.1063 125.735 47.1063 126.029V126.533C47.1063 126.827 47.062 127.089 46.9693 127.323C46.8806 127.557 46.7515 127.755 46.5903 127.916C46.429 128.077 46.2436 128.202 46.0299 128.287C45.8162 128.372 45.5904 128.416 45.3485 128.416H45.0986ZM45.2195 127.654C45.3364 127.654 45.4413 127.638 45.538 127.601C45.6348 127.565 45.7194 127.509 45.796 127.436C45.8726 127.36 45.9291 127.267 45.9694 127.154C46.0097 127.041 46.0299 126.908 46.0299 126.751V125.828C46.0299 125.67 46.0097 125.537 45.9694 125.424C45.9291 125.312 45.8726 125.219 45.796 125.142C45.7194 125.066 45.6348 125.013 45.538 124.977C45.4413 124.941 45.3364 124.924 45.2236 124.924C45.1107 124.924 45.0058 124.941 44.9051 124.977C44.8043 125.013 44.7196 125.07 44.643 125.142C44.5664 125.215 44.51 125.312 44.4696 125.424C44.4293 125.537 44.4092 125.674 44.4092 125.828V126.751C44.4092 126.908 44.4293 127.045 44.4696 127.154C44.51 127.267 44.5664 127.36 44.643 127.436C44.7196 127.513 44.8043 127.565 44.901 127.601C44.9978 127.638 45.1026 127.654 45.2155 127.654H45.2195Z" fill="#290066"/>
<path d="M48.6424 128.357L47.4853 124.208H48.5336L49.2351 126.845H49.2593L49.9729 124.208H50.9969L51.6984 126.845H51.7226L52.4241 124.208H53.3675L52.2185 128.357H51.1058L50.4607 125.942H50.4244L49.7793 128.357H48.6505H48.6424Z" fill="#290066"/>
<path d="M53.9158 128.357V124.208H56.8791L56.7783 124.982H54.9157V125.865H56.6573V126.615H54.9157V127.583H56.7904L56.8992 128.357H53.9158Z" fill="#290066"/>
<path d="M60.5559 128.405C60.4067 128.405 60.2777 128.381 60.1648 128.336C60.056 128.292 59.9673 128.211 59.9068 128.099C59.8423 127.986 59.8141 127.828 59.8141 127.627C59.8141 127.506 59.802 127.393 59.7778 127.292C59.7536 127.191 59.7173 127.099 59.669 127.022C59.6206 126.946 59.5601 126.885 59.4835 126.841C59.4069 126.796 59.3142 126.772 59.2053 126.772H58.5925V128.357H57.5927V124.208H59.7577C59.9552 124.208 60.1407 124.248 60.31 124.333C60.4793 124.418 60.6204 124.535 60.7293 124.688C60.8381 124.841 60.8905 125.026 60.8905 125.244C60.8905 125.422 60.8583 125.583 60.7898 125.728C60.7212 125.873 60.6325 125.998 60.5196 126.103C60.4067 126.208 60.2858 126.288 60.1528 126.337V126.369C60.2374 126.393 60.318 126.433 60.3987 126.486C60.4753 126.538 60.5479 126.611 60.6083 126.692C60.6688 126.776 60.7172 126.869 60.7575 126.978C60.7938 127.087 60.8139 127.208 60.8139 127.341C60.8139 127.437 60.8139 127.526 60.826 127.611C60.8381 127.695 60.8502 127.772 60.8664 127.836C60.8865 127.905 60.9188 127.957 60.9591 128.002C60.9994 128.046 61.0558 128.078 61.1203 128.099V128.308C61.0397 128.34 60.947 128.365 60.8462 128.377C60.7454 128.389 60.6446 128.397 60.5519 128.397L60.5559 128.405ZM58.5885 126.018H59.419C59.5037 126.018 59.5803 125.99 59.6488 125.938C59.7173 125.885 59.7697 125.813 59.8101 125.724C59.8504 125.635 59.8705 125.538 59.8705 125.434C59.8705 125.284 59.8302 125.172 59.7415 125.091C59.6569 125.01 59.552 124.974 59.4271 124.974H58.5885V126.022V126.018Z" fill="#290066"/>
<path d="M82.1817 122.438H4V122.64H82.0366L82.1817 122.438Z" fill="#290066"/>
<path d="M75.9609 131.106H8.59605L8.73313 131.308H75.8157L75.9609 131.106Z" fill="#290066"/>
</g>
<defs>
<filter id="filter0_d_840_666" x="0" y="0" width="88" height="145.141" filterUnits="userSpaceOnUse" color-interpolation-filters="sRGB">
<feFlood flood-opacity="0" result="BackgroundImageFix"/>
<feColorMatrix in="SourceAlpha" type="matrix" values="0 0 0 0 0 0 0 0 0 0 0 0 0 0 0 0 0 0 127 0" result="hardAlpha"/>
<feOffset dy="4"/>
<feGaussianBlur stdDeviation="2"/>
<feComposite in2="hardAlpha" operator="out"/>
<feColorMatrix type="matrix" values="0 0 0 0 0 0 0 0 0 0 0 0 0 0 0 0 0 0 0.25 0"/>
<feBlend mode="normal" in2="BackgroundImageFix" result="effect1_dropShadow_840_666"/>
<feBlend mode="normal" in="SourceGraphic" in2="effect1_dropShadow_840_666" result="shape"/>
</filter>
</defs>
</svg>
