<svg width="88" height="146" viewBox="0 0 88 146" fill="none" xmlns="http://www.w3.org/2000/svg">
<g filter="url(#filter0_d_840_626)">
<path d="M10.5474 0L4 8.24472V124.401L12.7285 137.141H71.6349L84 119.901V11.9901L76.7269 0H10.5474Z" fill="#FAF2C7"/>
<path d="M36.8176 26.391L44.256 12.5342L42.5627 22.6738L51.1823 22.0005L39.1841 36.6354L40.8734 27.4069L36.8176 26.391Z" fill="#FFE34F"/>
<path d="M49.0698 77.3547L34.1204 78.9674V67.9126L24.9081 56.8578V54.0115L26.5812 53.3382L34.6203 60.5427L37.132 42.6221H39.3091L40.4823 56.8578L41.9902 42.6221H45.5098L44.6712 54.846L46.679 44.9645L48.6908 45.4684L47.8522 55.5153L50.3639 48.4841L52.3757 49.488L50.3639 59.8735L47.8522 66.7394L49.0698 77.3547Z" fill="#BA9ED1"/>
<path d="M25.0895 104.122L27.6093 83.5287L34.3341 75.542H49.4648L57.4515 88.149L60.181 104.122L63.9667 113.786H24.0372L25.0895 104.122Z" fill="#290066"/>
<path d="M40.7162 80.9229H43.8609V90.7157H51.7146L51.0937 93.3484L42.47 94.5176L43.1191 110.156L39.3374 111.035L38.2327 94.1507H31.7982V90.5706L38.8334 90.2763L40.7162 80.9229Z" fill="#FAF2C7"/>
<path d="M20.2758 128.356V124.993H19.1389V124.207H22.4327V124.993H21.2918V128.356H20.2758Z" fill="#290066"/>
<path d="M23.0374 128.356V124.207H24.0534V125.836H25.3798V124.207H26.3877V128.356H25.3839V126.638H24.0575V128.356H23.0374Z" fill="#290066"/>
<path d="M27.3029 128.356V124.207H30.2662L30.1654 124.981H28.3028V125.864H30.0444V126.614H28.3028V127.582H30.1775L30.2863 128.356H27.3069H27.3029Z" fill="#290066"/>
<path d="M33.1972 128.416C32.9432 128.416 32.7215 128.372 32.5279 128.283C32.3344 128.194 32.1852 128.065 32.0804 127.896C31.9756 127.727 31.9192 127.521 31.9192 127.279V126.933H32.8505V127.223C32.8505 127.364 32.8868 127.469 32.9634 127.541C33.04 127.614 33.1367 127.65 33.2536 127.65C33.3302 127.65 33.3988 127.634 33.4633 127.602C33.5238 127.57 33.5762 127.521 33.6125 127.457C33.6487 127.392 33.6649 127.312 33.6649 127.223V124.203H34.6647V127.211C34.6647 127.457 34.6083 127.67 34.4913 127.848C34.3744 128.029 34.2212 128.166 34.0196 128.267C33.8181 128.368 33.5923 128.416 33.3343 128.416H33.1972Z" fill="#290066"/>
<path d="M37.0515 128.416C36.737 128.416 36.4628 128.356 36.233 128.239C36.0032 128.122 35.8258 127.96 35.7049 127.751C35.5839 127.541 35.5194 127.299 35.5194 127.017V124.207H36.5274V127.013C36.5274 127.203 36.5878 127.356 36.7128 127.477C36.8378 127.594 36.995 127.654 37.1926 127.654C37.3901 127.654 37.5514 127.594 37.6723 127.477C37.7933 127.36 37.8538 127.203 37.8538 127.013V124.207H38.8617V127.017C38.8617 127.295 38.7931 127.541 38.6561 127.751C38.519 127.96 38.3295 128.122 38.0836 128.239C37.8376 128.356 37.5595 128.416 37.245 128.416H37.0434H37.0515Z" fill="#290066"/>
<path d="M39.7486 128.356V124.207H41.4661C41.712 124.207 41.9418 124.247 42.1515 124.324C42.3652 124.401 42.5506 124.517 42.7159 124.667C42.8772 124.82 43.0062 125.005 43.0949 125.231C43.1876 125.453 43.232 125.711 43.232 126.001V126.453C43.232 126.743 43.1876 127.005 43.0949 127.235C43.0062 127.469 42.8772 127.666 42.7159 127.836C42.5506 128.005 42.3652 128.13 42.1515 128.219C41.9418 128.307 41.712 128.352 41.4661 128.352H39.7486V128.356ZM40.7646 127.582H41.3814C41.5266 127.582 41.6596 127.549 41.7765 127.481C41.8935 127.412 41.9902 127.311 42.0588 127.174C42.1273 127.037 42.1596 126.872 42.1596 126.67V125.832C42.1596 125.63 42.1273 125.465 42.0588 125.34C41.9902 125.215 41.8975 125.122 41.7765 125.062C41.6596 125.001 41.5266 124.969 41.3814 124.969H40.7646V127.582Z" fill="#290066"/>
<path d="M45.5099 128.416C45.268 128.416 45.0462 128.372 44.8366 128.287C44.631 128.202 44.4536 128.081 44.3004 127.916C44.1472 127.755 44.0303 127.557 43.9496 127.324C43.869 127.09 43.8246 126.824 43.8246 126.533V126.025C43.8246 125.727 43.869 125.461 43.9577 125.231C44.0464 125.001 44.1714 124.804 44.3367 124.642C44.502 124.481 44.6915 124.356 44.9172 124.272C45.139 124.187 45.3849 124.143 45.647 124.143H45.78C46.0058 124.143 46.2154 124.179 46.417 124.247C46.6186 124.316 46.7879 124.417 46.9371 124.546C47.0863 124.675 47.2032 124.836 47.2878 125.025C47.3725 125.215 47.4168 125.433 47.4168 125.679H46.4775C46.4775 125.493 46.4452 125.344 46.3767 125.231C46.3081 125.118 46.2194 125.038 46.0985 124.981C45.9816 124.929 45.8405 124.905 45.6832 124.905C45.5663 124.905 45.4615 124.921 45.3647 124.957C45.272 124.989 45.1873 125.046 45.1188 125.122C45.0462 125.199 44.9938 125.292 44.9535 125.409C44.9132 125.525 44.8971 125.658 44.8971 125.816V126.747C44.8971 126.904 44.9172 127.041 44.9535 127.15C44.9898 127.263 45.0462 127.356 45.1188 127.432C45.1873 127.505 45.272 127.561 45.3647 127.598C45.4615 127.634 45.5663 127.65 45.6832 127.65C45.8002 127.65 45.909 127.638 46.0058 127.61C46.1066 127.586 46.1912 127.541 46.2598 127.485C46.3283 127.428 46.3847 127.352 46.421 127.255C46.4613 127.162 46.4775 127.041 46.4775 126.9V126.755H45.5824V126.082H47.4088V127.521C47.4088 127.715 47.4088 127.872 47.4209 127.997C47.4289 128.122 47.437 128.239 47.4531 128.352H46.9008L46.7476 127.876C46.6226 128.041 46.4492 128.17 46.2315 128.267C46.0138 128.364 45.784 128.412 45.5502 128.412H45.5018L45.5099 128.416Z" fill="#290066"/>
<path d="M48.2312 128.356V124.207H51.1945L51.0937 124.981H49.2311V125.864H50.9727V126.614H49.2311V127.582H51.1058L51.2146 128.356H48.2352H48.2312Z" fill="#290066"/>
<path d="M51.9081 128.356V124.207H53.553L54.4359 126.84H54.4601L55.339 124.207H56.988V128.356H55.9841V125.38H55.9518L54.9681 128.356H53.8312L52.8515 125.38H52.8192V128.356H51.9081Z" fill="#290066"/>
<path d="M57.9072 128.356V124.207H60.8705L60.7697 124.981H58.907V125.864H60.6487V126.614H58.907V127.582H60.7818L60.8906 128.356H57.9112H57.9072Z" fill="#290066"/>
<path d="M61.5841 128.356V124.207H62.4307L63.7733 126.191L63.9829 126.562L64.0071 126.549V124.211H64.9303V128.36H64.0595L62.6766 126.312L62.5315 126.041H62.5073V128.364H61.5841V128.356Z" fill="#290066"/>
<path d="M66.6761 128.356V124.993H65.5392V124.207H68.833V124.993H67.6921V128.356H66.6761Z" fill="#290066"/>
<path d="M82.1817 122.438H4V122.639H82.0366L82.1817 122.438Z" fill="#290066"/>
<path d="M75.9608 131.105H8.59598L8.73305 131.307H75.8157L75.9608 131.105Z" fill="#290066"/>
</g>
<defs>
<filter id="filter0_d_840_626" x="0" y="0" width="88" height="145.141" filterUnits="userSpaceOnUse" color-interpolation-filters="sRGB">
<feFlood flood-opacity="0" result="BackgroundImageFix"/>
<feColorMatrix in="SourceAlpha" type="matrix" values="0 0 0 0 0 0 0 0 0 0 0 0 0 0 0 0 0 0 127 0" result="hardAlpha"/>
<feOffset dy="4"/>
<feGaussianBlur stdDeviation="2"/>
<feComposite in2="hardAlpha" operator="out"/>
<feColorMatrix type="matrix" values="0 0 0 0 0 0 0 0 0 0 0 0 0 0 0 0 0 0 0.25 0"/>
<feBlend mode="normal" in2="BackgroundImageFix" result="effect1_dropShadow_840_626"/>
<feBlend mode="normal" in="SourceGraphic" in2="effect1_dropShadow_840_626" result="shape"/>
</filter>
</defs>
</svg>
