<svg width="88" height="145" viewBox="0 0 88 145" fill="none" xmlns="http://www.w3.org/2000/svg">
<g filter="url(#filter0_d_840_647)">
<path d="M10.5407 0L4 8.23627V124.273L12.7196 137H71.5656L83.918 119.778V11.9778L76.6524 0H10.5407Z" fill="#FAF2C7"/>
<path d="M23.8597 27.7294L23.8677 23.5086L25.4747 25.8486L31.9187 22.542L28.5235 28.4665L32.8732 31.8133L26.4252 29.9285L24.8101 37.5687L23.9241 31.5838L18.0802 30.2587L23.8597 27.7294Z" fill="#290066"/>
<path d="M64.7753 27.2738L67.0951 19.8672L68.4081 25.115L73.378 21.6876L68.545 28.4498L75.8711 28.6311L69.1572 30.6851L66.4628 36.2833L65.9634 30.4757L58.8186 31.2087L64.7753 27.2738Z" fill="#BA9ED1"/>
<path d="M58.017 104.933L60.2684 97.7402L61.5451 102.839L66.3701 99.5083L61.678 106.077L68.7906 106.254L62.2701 108.248L59.6562 113.681L59.1729 108.043L52.2335 108.751L58.017 104.933Z" fill="#FFE34F"/>
<path d="M42.499 93.91L16.6423 65.3348L17.7338 53.0911L28.2094 45.7409L36.9893 51.456L42.499 58.3954L53.3169 43.0908H58.6211L65.774 49.8248L71.2756 57.9886L68.3476 69.5597L56.3778 79.8258L47.6019 89.0126L42.499 93.91Z" fill="#BA9ED1"/>
<path d="M43.075 83.896L27.4039 66.5817L28.0644 59.1589L34.4158 54.7085L39.7322 58.1722L43.075 62.3769L49.6278 53.1016H52.8458L57.1794 57.1814L60.5101 62.1272L58.738 69.1391L51.4845 75.3616L46.1641 80.9277L43.075 83.896Z" fill="#290066"/>
<path d="M43.5341 75.9184L35.9865 67.5774L36.3047 64.001L39.3616 61.8543L41.9231 63.5258L43.5341 65.5516L46.6917 61.0811H48.2382L50.3285 63.0465L51.9314 65.4308L51.0776 68.8099L47.5817 71.8063L45.0202 74.4887L43.5341 75.9184Z" fill="#FFE34F"/>
<path d="M27.9435 128.223V124.864H26.8077V124.079H30.0982V124.864H28.9584V128.223H27.9435Z" fill="#290066"/>
<path d="M30.6983 128.223V124.079H31.7132V125.706H33.0383V124.079H34.0452V128.223H33.0423V126.508H31.7173V128.223H30.6983Z" fill="#290066"/>
<path d="M34.9634 128.223V124.079H37.9237L37.823 124.852H35.9623V125.734H37.7022V126.484H35.9623V127.45H37.8351L37.9438 128.223H34.9675H34.9634Z" fill="#290066"/>
<path d="M40.7147 128.223V124.864H39.579V124.079H42.8695V124.864H41.7297V128.223H40.7147Z" fill="#290066"/>
<path d="M45.0443 128.285C44.8027 128.285 44.5771 128.24 44.3637 128.156C44.1502 128.071 43.965 127.95 43.8039 127.785C43.6428 127.624 43.5179 127.427 43.4253 127.193C43.3326 126.959 43.2883 126.694 43.2883 126.404V125.9C43.2883 125.606 43.3326 125.344 43.4253 125.111C43.5139 124.877 43.6428 124.68 43.8039 124.519C43.965 124.358 44.1502 124.233 44.3637 124.148C44.5731 124.064 44.8027 124.023 45.0443 124.023H45.29C45.5317 124.023 45.7572 124.064 45.9707 124.148C46.1841 124.233 46.3694 124.358 46.5305 124.519C46.6916 124.68 46.8164 124.877 46.9091 125.111C47.0017 125.344 47.046 125.606 47.046 125.9V126.404C47.046 126.698 47.0017 126.959 46.9091 127.193C46.8205 127.427 46.6916 127.624 46.5305 127.785C46.3694 127.946 46.1841 128.071 45.9707 128.156C45.7612 128.24 45.5317 128.285 45.29 128.285H45.0443ZM45.1652 127.523C45.2819 127.523 45.3867 127.507 45.4833 127.471C45.58 127.435 45.6646 127.378 45.7411 127.306C45.8136 127.229 45.874 127.137 45.9143 127.024C45.9545 126.911 45.9747 126.778 45.9747 126.621V125.699C45.9747 125.542 45.9545 125.409 45.9143 125.296C45.874 125.183 45.8176 125.091 45.7411 125.014C45.6646 124.938 45.58 124.885 45.4833 124.849C45.3867 124.813 45.282 124.797 45.1692 124.797C45.0564 124.797 44.9517 124.813 44.851 124.849C44.7503 124.885 44.6657 124.942 44.5892 125.014C44.5127 125.087 44.4563 125.183 44.416 125.296C44.3758 125.409 44.3556 125.546 44.3556 125.699V126.621C44.3556 126.778 44.3758 126.915 44.416 127.024C44.4563 127.137 44.5127 127.229 44.5892 127.306C44.6657 127.378 44.7503 127.435 44.847 127.471C44.9436 127.507 45.0484 127.523 45.1611 127.523H45.1652Z" fill="#290066"/>
<path d="M48.5845 128.223L47.4327 124.079H48.4758L49.1766 126.713H49.2008L49.9136 124.079H50.9326L51.6334 126.713H51.6575L52.3583 124.079H53.3008L52.1529 128.223H51.0413L50.3929 125.811H50.3567L49.7123 128.223H48.5805H48.5845Z" fill="#290066"/>
<path d="M53.8525 128.223V124.079H56.8127L56.712 124.852H54.8513V125.734H56.5912V126.484H54.8513V127.45H56.7241L56.8329 128.223H53.8565H53.8525Z" fill="#290066"/>
<path d="M60.4859 128.272C60.3368 128.272 60.208 128.248 60.0952 128.203C59.9824 128.159 59.8978 128.078 59.8374 127.966C59.773 127.853 59.7448 127.696 59.7448 127.494C59.7448 127.374 59.7327 127.261 59.7086 127.16C59.6844 127.059 59.6481 126.967 59.5998 126.89C59.5515 126.814 59.487 126.753 59.4145 126.709C59.338 126.665 59.2454 126.641 59.1366 126.641H58.5285V128.223H57.5337V124.079H59.6965C59.8938 124.079 60.0791 124.119 60.2482 124.204C60.4174 124.289 60.5584 124.405 60.6671 124.558C60.7758 124.711 60.8322 124.897 60.8322 125.114C60.8322 125.291 60.8 125.452 60.7315 125.597C60.6631 125.742 60.5745 125.867 60.4617 125.972C60.353 126.077 60.2281 126.157 60.0952 126.206V126.238C60.1798 126.262 60.2603 126.302 60.3409 126.355C60.4214 126.407 60.4899 126.48 60.5503 126.56C60.6107 126.645 60.659 126.737 60.6993 126.846C60.7356 126.955 60.7557 127.076 60.7557 127.208C60.7557 127.305 60.7597 127.394 60.7678 127.478C60.7758 127.563 60.7879 127.639 60.8121 127.704C60.8322 127.772 60.8644 127.825 60.9047 127.869C60.945 127.913 61.0014 127.946 61.0658 127.966V128.175C60.9853 128.207 60.8926 128.231 60.796 128.244C60.6953 128.26 60.5946 128.264 60.4979 128.264L60.4859 128.272ZM58.5245 125.887H59.3501C59.4347 125.887 59.5112 125.859 59.5797 125.807C59.6481 125.755 59.7005 125.682 59.7448 125.593C59.7851 125.505 59.8052 125.408 59.8052 125.303C59.8052 125.154 59.7649 125.042 59.6804 124.961C59.5958 124.881 59.4911 124.844 59.3662 124.844H58.5285V125.891L58.5245 125.887Z" fill="#290066"/>
<path d="M82.1016 122.311H4V122.512H81.9566L82.1016 122.311Z" fill="#290066"/>
<path d="M75.8871 130.971H8.59134L8.72827 131.172H75.7421L75.8871 130.971Z" fill="#290066"/>
</g>
<defs>
<filter id="filter0_d_840_647" x="0" y="0" width="87.918" height="145" filterUnits="userSpaceOnUse" color-interpolation-filters="sRGB">
<feFlood flood-opacity="0" result="BackgroundImageFix"/>
<feColorMatrix in="SourceAlpha" type="matrix" values="0 0 0 0 0 0 0 0 0 0 0 0 0 0 0 0 0 0 127 0" result="hardAlpha"/>
<feOffset dy="4"/>
<feGaussianBlur stdDeviation="2"/>
<feComposite in2="hardAlpha" operator="out"/>
<feColorMatrix type="matrix" values="0 0 0 0 0 0 0 0 0 0 0 0 0 0 0 0 0 0 0.25 0"/>
<feBlend mode="normal" in2="BackgroundImageFix" result="effect1_dropShadow_840_647"/>
<feBlend mode="normal" in="SourceGraphic" in2="effect1_dropShadow_840_647" result="shape"/>
</filter>
</defs>
</svg>
