<svg width="91" height="151" viewBox="0 0 91 151" fill="none" xmlns="http://www.w3.org/2000/svg">
<g filter="url(#filter0_d_840_687)">
<path d="M4 8.55481L10.7936 0H79.4622L87.0089 12.4411V124.415L74.1787 142.298H13.0568L4 129.079V8.55481Z" fill="#FAF2C7"/>
<path d="M25.3054 31.7502L25.3138 26.5755L27.28 29.441L35.1822 25.3916L31.0198 32.6496L36.3577 36.7534L28.4513 34.4442L26.4684 43.8106L25.3807 36.4773L18.2148 34.85L25.3054 31.7502Z" fill="#FFE34F"/>
<path d="M63.8502 25.1872L66.1886 17.7158L67.5147 23.0119L72.5263 19.5523L67.6528 26.3752L75.0405 26.5551L68.2677 28.63L65.5528 34.2732L65.0508 28.4125L57.843 29.1529L63.8502 25.1872Z" fill="#BA9ED1"/>
<path d="M20.1181 104.917L13.0484 102.416L20.3064 101.378L16.9263 97.701L22.4608 99.3952L25.4853 94.9023L23.7116 101.617L29.4929 104.733L23.0381 104.344L21.164 111.242L20.1181 104.917Z" fill="#290066"/>
<path d="M28.7232 132.887V129.398H27.5435V128.582H30.9654V129.398H29.7816V132.887H28.7274H28.7232Z" fill="#290066"/>
<path d="M31.5846 132.887V128.582H32.6388V130.272H34.0151V128.582H35.0609V132.887H34.0193V131.105H32.6471V132.887H31.5846Z" fill="#290066"/>
<path d="M36.0146 132.887V128.582H39.0894L38.9848 129.385H37.0521V130.301H38.8593V131.079H37.0521V132.083H38.9973L39.1103 132.887H36.0146Z" fill="#290066"/>
<path d="M41.9466 132.887L40.746 128.582H41.8336L42.5615 131.318H42.5866L43.3271 128.582H44.3896L45.1175 131.318H45.1426L45.8705 128.582H46.8494L45.6571 132.887H44.5026L43.8332 130.381H43.7956L43.1263 132.887H41.9549H41.9466Z" fill="#290066"/>
<path d="M49.0749 132.948C48.8239 132.948 48.5896 132.902 48.3679 132.814C48.1462 132.727 47.9537 132.601 47.7864 132.43C47.6191 132.262 47.4894 132.057 47.3932 131.815C47.297 131.572 47.2509 131.296 47.2509 130.995V130.472C47.2509 130.166 47.297 129.895 47.3932 129.652C47.4852 129.409 47.6191 129.204 47.7864 129.037C47.9537 128.87 48.1462 128.74 48.3679 128.652C48.5896 128.564 48.8239 128.522 49.0749 128.522H49.3342C49.5852 128.522 49.8195 128.564 50.0412 128.652C50.2629 128.74 50.4553 128.87 50.6227 129.037C50.79 129.204 50.9197 129.409 51.0159 129.652C51.1121 129.895 51.1581 130.166 51.1581 130.472V130.995C51.1581 131.3 51.1121 131.572 51.0159 131.815C50.9239 132.057 50.79 132.262 50.6227 132.43C50.4553 132.597 50.2629 132.727 50.0412 132.814C49.8195 132.902 49.5852 132.948 49.3342 132.948H49.0749ZM49.2004 132.158C49.3217 132.158 49.4304 132.141 49.5308 132.103C49.6312 132.066 49.7191 132.007 49.7986 131.932C49.878 131.852 49.9366 131.756 49.9784 131.639C50.0203 131.522 50.0412 131.384 50.0412 131.221V130.263C50.0412 130.1 50.0203 129.962 49.9784 129.844C49.9366 129.727 49.878 129.631 49.7986 129.552C49.7191 129.472 49.6312 129.418 49.5308 129.38C49.4304 129.342 49.3217 129.326 49.2045 129.326C49.0874 129.326 48.9786 129.342 48.8741 129.38C48.7695 129.418 48.6816 129.476 48.6021 129.552C48.5227 129.627 48.4641 129.727 48.4223 129.844C48.3804 129.962 48.3595 130.104 48.3595 130.263V131.221C48.3595 131.384 48.3804 131.526 48.4223 131.639C48.4641 131.756 48.5227 131.852 48.6021 131.932C48.6816 132.011 48.7695 132.066 48.8699 132.103C48.9703 132.141 49.079 132.158 49.1962 132.158H49.2004Z" fill="#290066"/>
<path d="M55.0026 132.937C54.8478 132.937 54.714 132.912 54.5968 132.866C54.4839 132.82 54.3918 132.736 54.3291 132.619C54.2622 132.502 54.2329 132.339 54.2329 132.129C54.2329 132.004 54.2203 131.887 54.1952 131.782C54.1701 131.678 54.1325 131.581 54.0823 131.502C54.0321 131.422 53.9693 131.36 53.8898 131.314C53.8104 131.268 53.7141 131.243 53.6012 131.243H52.9653V132.887H51.9279V128.582H54.1743C54.3793 128.582 54.5717 128.624 54.7474 128.712C54.9231 128.8 55.0695 128.921 55.1825 129.08C55.2954 129.239 55.3498 129.431 55.3498 129.657C55.3498 129.841 55.3163 130.009 55.2452 130.159C55.1741 130.31 55.0821 130.439 54.965 130.548C54.8478 130.657 54.7223 130.741 54.5843 130.791V130.824C54.6721 130.849 54.7558 130.891 54.8395 130.946C54.9189 131 54.9942 131.075 55.057 131.159C55.1197 131.247 55.1699 131.343 55.2118 131.456C55.2494 131.569 55.2703 131.694 55.2703 131.832C55.2703 131.933 55.2703 132.025 55.2829 132.113C55.2954 132.201 55.308 132.28 55.3247 132.347C55.3456 132.418 55.3791 132.472 55.4209 132.519C55.4628 132.565 55.5213 132.598 55.5883 132.619V132.836C55.5046 132.87 55.4084 132.895 55.3038 132.908C55.1992 132.92 55.0946 132.928 54.9984 132.928L55.0026 132.937ZM52.9653 130.456H53.8271C53.9149 130.456 53.9944 130.427 54.0655 130.372C54.1367 130.318 54.191 130.243 54.2329 130.151C54.2747 130.059 54.2956 129.958 54.2956 129.85C54.2956 129.695 54.2538 129.578 54.1618 129.494C54.0739 129.41 53.9651 129.373 53.8355 129.373H52.9653V130.46V130.456Z" fill="#290066"/>
<path d="M56.2534 132.887V128.582H57.3076V132.058H59.0311L59.1357 132.887H56.2492H56.2534Z" fill="#290066"/>
<path d="M59.692 132.887V128.582H61.4741C61.7293 128.582 61.9677 128.624 62.1853 128.703C62.407 128.783 62.5994 128.904 62.7709 129.059C62.9425 129.218 63.0721 129.41 63.1684 129.645C63.2604 129.875 63.3106 130.142 63.3106 130.444V130.912C63.3106 131.213 63.2646 131.485 63.1684 131.724C63.0721 131.966 62.9425 132.171 62.7709 132.347C62.6036 132.523 62.407 132.652 62.1853 132.744C61.9677 132.836 61.7293 132.882 61.4741 132.882H59.692V132.887ZM60.7462 132.083H61.3863C61.5369 132.083 61.6749 132.05 61.7962 131.979C61.9176 131.908 62.0179 131.803 62.0891 131.661C62.1602 131.519 62.1936 131.347 62.1936 131.138V130.268C62.1936 130.059 62.1602 129.887 62.0891 129.758C62.0179 129.628 61.9217 129.532 61.7962 129.469C61.6707 129.406 61.5369 129.373 61.3863 129.373H60.7462V132.083Z" fill="#290066"/>
<path d="M85.3355 126.745H4V126.954H85.185L85.3355 126.745Z" fill="#290066"/>
<path d="M78.8766 135.743H8.56815L8.71038 135.952H78.7301L78.8766 135.743Z" fill="#290066"/>
<path d="M72.3715 71.8037L71.7984 74.2049H63.3315L62.4697 76.786H59.4577V79.5135H62.4697L59.3113 82.6677L57.0147 80.0866H54.7223L54.2914 82.5255L50.8444 83.245L48.4055 82.5255V86.1147L53.4296 87.8341L54.0027 91.1347H50.8444V93.1426L56.588 92.4273L60.286 95.4937L52.4382 97.9743H45.0505L38.215 94.6277L34.1071 92.2265L34.63 88.8381L37.7883 90.2729H40.9425L40.085 86.3992L36.2071 84.5335L35.634 79.5135V77.5014L38.0728 77.6478L37.9306 81.0948L41.3734 81.806L41.9507 78.3631L39.7963 73.1968H36.7844V70.0426L39.0768 69.0344L41.2312 71.0466L43.8876 66.1647L40.6581 63.7258H37.7883V59.4212L41.089 61.0025L44.674 63.7258H47.2593L49.9868 62.0023L49.1794 59.714L48.5477 61.1447H45.5358L47.1129 56.9824L49.1794 55.1166L48.4055 51.816L47.2593 53.9662L45.678 51.9624L49.3007 49.0927L47.8324 47.5114L46.1089 48.0845L43.8123 50.0925L41.0346 46.8672L45.0505 45.6875H55.7848L64.988 49.8708L66.402 51.2805L65.3394 51.9624L67.0629 54.828L65.3394 56.2628L68.4978 57.8441L67.7783 60.4252L69.2132 62.7218H71.2253L69.9327 68.8922L70.9367 71.8037H72.3715Z" fill="#290066"/>
<path d="M49.9868 62.0001L47.2593 63.7278H44.6741L41.089 61.0003L37.7884 59.419V63.7278H40.6581L43.8876 66.1666L41.2312 71.0485L39.0768 69.0364L36.7844 70.0403V73.1987H39.7964L41.9507 78.3609L41.3735 81.8079L37.9306 81.0926L38.0728 77.6497L35.634 77.4991V79.5113L36.2071 84.5312L40.085 86.4012L40.9426 90.2707H37.7884L34.63 88.84L34.1071 92.2243L31.5218 90.7141L24.8286 80.8248L22.7369 71.8308L23.9919 62.2762L27.3385 56.5618L36.5418 48.1952L41.0346 46.8691L43.8123 50.0945L46.1089 48.0865L47.8324 47.5092L49.3008 49.0905L45.678 51.9602L47.2593 53.9682L48.4056 51.818L49.1795 55.1186L47.1129 56.9801L45.5358 61.1467H48.5478L49.1795 59.7118L49.9868 62.0001Z" fill="#BA9ED1"/>
<path d="M75.8645 67.8869V75.3876L73.3546 83.7499L67.9163 90.7151L60.3864 95.4631L60.286 95.4924L56.588 92.4261L50.8443 93.1414V91.1334H54.0027L53.4296 87.8328L48.4055 86.1135V82.5242L50.8443 83.2438L54.2914 82.5242L54.7222 80.0854H57.0147L59.3113 82.6665L62.4697 79.5123H59.4577V76.7848H62.4697L63.3314 74.2037H71.7984L72.3715 71.8025H70.9366L69.9327 68.8909L71.2253 62.7206H69.2131L67.7783 60.424L68.4978 57.8429L65.3394 56.2616L67.0629 54.8309L65.3394 51.957L66.402 51.2793L70.4263 55.3078L74.1912 62.273L75.8645 67.8869Z" fill="#BA9ED1"/>
</g>
<defs>
<filter id="filter0_d_840_687" x="0" y="0" width="91.0089" height="150.299" filterUnits="userSpaceOnUse" color-interpolation-filters="sRGB">
<feFlood flood-opacity="0" result="BackgroundImageFix"/>
<feColorMatrix in="SourceAlpha" type="matrix" values="0 0 0 0 0 0 0 0 0 0 0 0 0 0 0 0 0 0 127 0" result="hardAlpha"/>
<feOffset dy="4"/>
<feGaussianBlur stdDeviation="2"/>
<feComposite in2="hardAlpha" operator="out"/>
<feColorMatrix type="matrix" values="0 0 0 0 0 0 0 0 0 0 0 0 0 0 0 0 0 0 0.25 0"/>
<feBlend mode="normal" in2="BackgroundImageFix" result="effect1_dropShadow_840_687"/>
<feBlend mode="normal" in="SourceGraphic" in2="effect1_dropShadow_840_687" result="shape"/>
</filter>
</defs>
</svg>
