<svg width="104" height="127" viewBox="0 0 104 127" fill="none" xmlns="http://www.w3.org/2000/svg">
<g clip-path="url(#clip0_867_113)">
<path d="M5.41758 22.4323L2.22944 30.5519L33.639 117.314L44.3063 124.215L93.0478 106.57L98.6186 89.9919L69.4374 9.38549L60.1772 2.6082L5.41758 22.4323Z" fill="#B99ED1"/>
<g clip-path="url(#clip1_867_113)">
<path d="M29.7233 70.6801L32.3036 64.8254L38.8703 56.989L44.3904 52.6598L50.3866 50.489L57.3989 50.2813L62.6154 51.2703L68.2442 53.2118L73.2208 55.6525L72.2349 60.0503L69.5764 64.955L65.9401 68.6598L63.1085 71.6621L56.7632 74.95L52.103 76.6371L45.5034 77.6121L40.2399 76.4715L34.9382 74.535L29.7233 70.6801Z" fill="#F9F1C6"/>
<path d="M41.6801 59.3055L44.8033 54.841L47.9201 53.0426L51.4811 52.4276L53.8456 52.7144L58.1182 54.8098L59.9237 56.6309L61.2957 58.8761L62.3143 62.7086L62.0515 66.2444L61.0916 68.8076L58.7623 71.7844L55.9651 73.5781L53.1704 74.5898L49.5009 74.1054L46.6234 72.9602L43.9547 70.8144L42.1789 68.2098L41.3052 65.7965L41.0266 61.8606L41.6801 59.3055Z" fill="#B99ED1"/>
<path d="M46.3716 61.0689L47.1823 59.6491L49.0055 58.134L50.9254 57.5541L52.9414 57.6998L54.2473 58.2178L55.841 59.4866L56.8402 60.987L57.5468 62.9387L57.2167 64.8752L56.4937 66.625L55.3608 67.9436L53.6699 68.9257L51.3958 69.2393L49.8549 68.9051L48.296 68.0389L47.0276 66.6934L46.051 64.5764L46.0704 62.7565L46.3716 61.0689Z" fill="#3C1981"/>
</g>
</g>
<defs>
<clipPath id="clip0_867_113">
<rect width="70.3994" height="108.942" fill="white" transform="translate(0 24.3936) rotate(-19.9013)"/>
</clipPath>
<clipPath id="clip1_867_113">
<rect width="46.0153" height="25.1707" fill="white" transform="translate(25.655 59.4424) rotate(-19.9013)"/>
</clipPath>
</defs>
</svg>
