<svg width="116" height="81" viewBox="0 0 116 81" fill="none" xmlns="http://www.w3.org/2000/svg">
<g clip-path="url(#clip0_867_112)">
<path d="M108.99 5.73475L101.914 0.632334L10.0732 9.54098L0.741617 18.1632L5.74637 69.7583L20.4244 79.2668L105.75 70.9901L114.612 63.7002L108.99 5.73475Z" fill="#FFE250"/>
<g clip-path="url(#clip1_867_112)">
<path d="M56.2204 17.314L61.2522 21.2659L67.215 29.571L70.0398 35.9925L70.6555 42.3397L69.1175 49.1844L66.8655 53.9926L63.5886 58.9639L59.9898 63.1796L55.9739 61.1338L51.8819 57.3419L49.1948 52.9003L46.9885 49.4125L45.3773 42.45L44.8988 37.517L45.591 30.8817L48.0015 26.0656L51.1925 21.4099L56.2204 17.314Z" fill="#F9F1C6"/>
<path d="M64.2738 31.7182L67.8242 35.8512L68.7933 39.3166L68.5059 42.9189L67.6416 45.1384L64.5519 48.7577L62.34 50.0551L59.8246 50.8274L55.8593 50.8635L52.4991 49.732L50.254 48.1663L47.9481 45.1715L46.9042 42.0169L46.6172 39.0585L47.9967 35.6238L49.8198 33.1202L52.5604 31.0672L55.5241 29.9929L58.0787 29.7451L61.9607 30.4514L64.2738 31.7182Z" fill="#B99ED1"/>
<path d="M61.4024 35.8265L62.5768 36.964L63.5924 39.1061L63.678 41.1098L63.0368 43.0266L62.2111 44.1633L60.5867 45.3924L58.8853 45.9884L56.8193 46.1888L55.0252 45.3886L53.5094 44.2543L52.513 42.8297L51.981 40.948L52.2413 38.6672L52.9472 37.2574L54.173 35.962L55.791 35.067L58.0841 34.646L59.8423 35.1161L61.4024 35.8265Z" fill="#3C1981"/>
</g>
</g>
<defs>
<clipPath id="clip0_867_112">
<rect width="70.3994" height="108.942" fill="white" transform="translate(108.433) rotate(84.4596)"/>
</clipPath>
<clipPath id="clip1_867_112">
<rect width="46.0153" height="25.1707" fill="white" transform="translate(68.116 16.1602) rotate(84.4596)"/>
</clipPath>
</defs>
</svg>
