<svg width="80" height="115" viewBox="0 0 80 115" fill="none" xmlns="http://www.w3.org/2000/svg">
<g clip-path="url(#clip0_867_110)">
<path d="M15.055 0.492619L8.75451 6.52548L0.865281 98.4598L7.6529 109.2L59.3003 113.632L71.3122 100.921L78.6418 15.509L73.0793 5.47189L15.055 0.492619Z" fill="#B99ED1"/>
<g clip-path="url(#clip1_867_110)">
<path d="M16.8757 54.4868L21.6742 50.2548L30.9228 45.8965L37.75 44.2827L44.1036 44.8279L50.556 47.5813L54.8763 50.6677L59.1712 54.7916L62.6646 59.095L59.9246 62.6734L55.4536 66.0102L50.5986 67.8476L46.7686 69.3849L39.6293 69.7072L34.6913 69.2835L28.2915 67.3998L23.9922 64.1561L19.9921 60.1739L16.8757 54.4868Z" fill="#F9F1C6"/>
<path d="M32.5014 49.1781L37.2096 46.4358L40.7933 46.111L44.2838 47.0468L46.3098 48.2991L49.309 51.9937L50.1839 54.4042L50.4873 57.0179L49.804 60.9241L48.0821 64.0235L46.1353 65.9475L42.7721 67.6723L39.4804 68.1269L36.5191 67.8728L33.3914 65.8936L31.2598 63.6468L29.7377 60.5794L29.2185 57.47L29.4379 54.9129L30.8363 51.2232L32.5014 49.1781Z" fill="#B99ED1"/>
<path d="M36.0205 52.7468L37.3521 51.7981L39.6427 51.1877L41.6288 51.4668L43.3976 52.4449L44.3657 53.4629L45.28 55.2833L45.5576 57.0645L45.3801 59.1326L44.268 60.7519L42.8776 62.0369L41.2961 62.7586L39.3491 62.9407L37.1533 62.2712L35.8948 61.3213L34.8431 59.881L34.2562 58.1276L34.2579 55.7961L35.039 54.1523L36.0205 52.7468Z" fill="#3C1981"/>
</g>
</g>
<defs>
<clipPath id="clip0_867_110">
<rect width="70.3994" height="108.942" fill="white" transform="translate(9.31448) rotate(4.90475)"/>
</clipPath>
<clipPath id="clip1_867_110">
<rect width="46.0153" height="25.1707" fill="white" transform="translate(17.8975 42.5791) rotate(4.90475)"/>
</clipPath>
</defs>
</svg>
