<svg width="128" height="127" viewBox="0 0 128 127" fill="none" xmlns="http://www.w3.org/2000/svg">
<g clip-path="url(#clip0_867_111)">
<path d="M82.8165 4.16966L74.1004 4.51994L7.32382 68.1992L5.30061 80.7423L41.0747 118.256L58.4924 116.682L120.532 57.5207L123.008 46.3156L82.8165 4.16966Z" fill="#2A1467"/>
<g clip-path="url(#clip1_867_111)">
<path d="M48.4351 45.8417L54.8332 45.8468L64.6501 48.7033L70.8353 52.0136L75.2362 56.6286L78.2493 62.9639L79.4439 68.1372L79.9326 74.0713L79.7018 79.6094L75.2792 80.4773L69.7193 80.0182L64.8642 78.181L60.9759 76.7977L55.4118 72.3128L51.9915 68.726L48.4421 63.0773L47.3673 57.8L47.0058 52.1672L48.4351 45.8417Z" fill="#F9F1C6"/>
<path d="M63.6606 52.2081L69.0047 53.2699L71.9056 55.3989L73.9021 58.4111L74.5915 60.691L74.3933 65.4456L73.4532 67.8314L71.9503 69.9912L68.8521 72.4664L65.5096 73.6493L62.7769 73.8024L59.1143 72.8686L56.3463 71.0301L54.2951 68.8792L53.2613 65.3251L53.1513 62.23L54.0412 58.9234L55.7105 56.2493L57.5679 54.478L61.0586 52.6385L63.6606 52.2081Z" fill="#B99ED1"/>
<path d="M63.9356 57.2117L65.5616 57.3822L67.6825 58.4413L68.9862 59.9653L69.6644 61.8694L69.716 63.2733L69.1961 65.2429L68.2249 66.7616L66.7227 68.1941L64.8172 68.6714L62.9244 68.7141L61.2613 68.2079L59.6815 67.0554L58.4791 65.0999L58.1647 63.5549L58.33 61.7791L59.051 60.0764L60.5958 58.3302L62.2695 57.6153L63.9356 57.2117Z" fill="#3C1981"/>
</g>
</g>
<defs>
<clipPath id="clip0_867_111">
<rect width="70.3994" height="108.942" fill="white" transform="translate(78.8402) rotate(46.3601)"/>
</clipPath>
<clipPath id="clip1_867_111">
<rect width="46.0153" height="25.1707" fill="white" transform="translate(57.0843 37.5938) rotate(46.3601)"/>
</clipPath>
</defs>
</svg>
