<svg width="101" height="127" viewBox="0 0 101 127" fill="none" xmlns="http://www.w3.org/2000/svg">
<g clip-path="url(#clip0_867_100)">
<path d="M38.9259 2.75209L31.4319 7.21664L3.10658 95.0337L7.31003 107.023L56.6444 122.936L71.2031 113.246L97.5189 31.6591L94.3515 20.6296L38.9259 2.75209Z" fill="#3C1981"/>
<g clip-path="url(#clip1_867_100)">
<path d="M28.5795 55.7768L34.2056 52.73L44.1965 50.559L51.2116 50.5189L57.2808 52.4765L62.9504 56.6081L66.4676 60.5855L69.7271 65.5683L72.1654 70.5461L68.692 73.4181L63.5861 75.666L58.4425 76.3666L54.3652 77.005L47.3357 75.7165L42.6189 74.1951L36.8053 70.9228L33.3438 66.7968L30.3398 62.0183L28.5795 55.7768Z" fill="#F9F1C6"/>
<path d="M44.9981 54.1117L50.2017 52.4963L53.7668 52.9842L56.9582 54.6797L58.6514 56.3549L60.7447 60.6284L61.0561 63.1738L60.7651 65.7889L59.2224 69.442L56.8486 72.0757L54.5196 73.5136L50.855 74.4395L47.5454 74.1436L44.7166 73.2312L42.1131 70.6004L40.5403 67.9324L39.7455 64.6016L39.9375 61.455L40.7254 59.0124L42.9163 55.7308L44.9981 54.1117Z" fill="#B99ED1"/>
<path d="M47.6263 58.3787L49.1369 57.7531L51.5061 57.6725L53.3788 58.3902L54.8829 59.7405L55.5978 60.9499L56.0801 62.929L55.9508 64.7271L55.3136 66.7025L53.8664 68.0308L52.223 68.971L50.5198 69.3192L48.5816 69.0596L46.5922 67.9142L45.579 66.7061L44.8775 65.0665L44.6992 63.226L45.2242 60.9545L46.3544 59.528L47.6263 58.3787Z" fill="#3C1981"/>
</g>
</g>
<defs>
<clipPath id="clip0_867_100">
<rect width="70.3994" height="108.942" fill="white" transform="translate(33.4424 0.983398) rotate(17.877)"/>
</clipPath>
<clipPath id="clip1_867_100">
<rect width="46.0153" height="25.1707" fill="white" transform="translate(32.2483 44.4023) rotate(17.877)"/>
</clipPath>
</defs>
</svg>
