<svg width="101" height="127" viewBox="0 0 101 127" fill="none" xmlns="http://www.w3.org/2000/svg">
<g clip-path="url(#clip0_867_92)">
<path d="M39.2281 2.75209L31.7341 7.21664L3.40882 95.0337L7.61227 107.023L56.9467 122.936L71.5054 113.246L97.8211 31.6591L94.6537 20.6296L39.2281 2.75209Z" fill="#B99ED1"/>
<g clip-path="url(#clip1_867_92)">
<path d="M28.8817 55.7768L34.5078 52.73L44.4987 50.559L51.5139 50.5189L57.583 52.4765L63.2527 56.6081L66.7698 60.5855L70.0294 65.5683L72.4676 70.5461L68.9943 73.4181L63.8884 75.666L58.7447 76.3666L54.6674 77.005L47.638 75.7165L42.9211 74.1951L37.1075 70.9228L33.6461 66.7968L30.642 62.0183L28.8817 55.7768Z" fill="#F9F1C6"/>
<path d="M45.3004 54.1117L50.5039 52.4963L54.0691 52.9842L57.2604 54.6797L58.9536 56.3549L61.0469 60.6284L61.3583 63.1738L61.0673 65.7889L59.5246 69.442L57.1508 72.0757L54.8219 73.5136L51.1573 74.4395L47.8476 74.1436L45.0189 73.2312L42.4153 70.6004L40.8425 67.9324L40.0478 64.6016L40.2398 61.455L41.0277 59.0124L43.2186 55.7308L45.3004 54.1117Z" fill="#B99ED1"/>
<path d="M47.9286 58.3787L49.4391 57.7531L51.8083 57.6725L53.681 58.3902L55.1852 59.7405L55.9001 60.9499L56.3824 62.929L56.253 64.7271L55.6159 66.7025L54.1686 68.0308L52.5253 68.971L50.8221 69.3192L48.8839 69.0596L46.8944 67.9142L45.8813 66.7061L45.1797 65.0665L45.0014 63.226L45.5265 60.9545L46.6566 59.528L47.9286 58.3787Z" fill="#3C1981"/>
</g>
</g>
<defs>
<clipPath id="clip0_867_92">
<rect width="70.3994" height="108.942" fill="white" transform="translate(33.7446 0.983398) rotate(17.877)"/>
</clipPath>
<clipPath id="clip1_867_92">
<rect width="46.0153" height="25.1707" fill="white" transform="translate(32.5505 44.4023) rotate(17.877)"/>
</clipPath>
</defs>
</svg>
