<svg width="76" height="113" viewBox="0 0 76 113" fill="none" xmlns="http://www.w3.org/2000/svg">
<g clip-path="url(#clip0_867_84)">
<path d="M10.5859 0.93581L4.54622 7.22986L0.553927 99.4157L7.78989 109.859L59.5786 112.102L71.0419 98.894L74.751 13.2483L68.7688 3.45554L10.5859 0.93581Z" fill="#FFE250"/>
<g clip-path="url(#clip1_867_84)">
<path d="M14.6894 54.8045L19.3047 50.3733L28.3605 45.6276L35.1133 43.7264L41.4843 44.0023L48.0475 46.4802L52.4944 49.381L56.96 53.3195L60.6324 57.4712L58.0462 61.1624L53.7204 64.6853L48.9474 66.7265L45.1859 68.4245L38.0667 69.0486L33.1152 68.8342L26.6414 67.2229L22.2087 64.1641L18.0437 60.3547L14.6894 54.8045Z" fill="#F9F1C6"/>
<path d="M30.0766 48.8399L34.6645 45.9009L38.2312 45.4247L41.7582 46.212L43.8354 47.3775L46.9882 50.9419L47.9643 53.3132L48.3781 55.9117L47.8607 59.8433L46.2714 63.0128L44.4078 65.0174L41.1205 66.883L37.8511 67.4765L34.8816 67.3479L31.673 65.5028L29.4483 63.3482L27.7977 60.3479L27.1474 57.2633L27.2584 54.6992L28.4994 50.9536L30.0766 48.8399Z" fill="#B99ED1"/>
<path d="M33.7435 52.2561L35.0337 51.2519L37.2965 50.5452L39.2926 50.7399L41.1012 51.6423L42.1116 52.6185L43.102 54.3985L43.4547 56.1664L43.3649 58.2401L42.3223 59.905L40.9876 61.2478L39.438 62.0357L37.5004 62.3L35.2782 61.724L33.9807 60.8283L32.869 59.4337L32.2085 57.7067L32.1115 55.3773L32.8224 53.7019L33.7435 52.2561Z" fill="#3C1981"/>
</g>
</g>
<defs>
<clipPath id="clip0_867_84">
<rect width="70.3994" height="108.942" fill="white" transform="translate(4.82959 0.686523) rotate(2.47976)"/>
</clipPath>
<clipPath id="clip1_867_84">
<rect width="46.0153" height="25.1707" fill="white" transform="translate(15.2065 42.8643) rotate(2.47976)"/>
</clipPath>
</defs>
</svg>
