<svg width="572" height="288" viewBox="0 0 572 288" fill="none" xmlns="http://www.w3.org/2000/svg">
<path d="M25.794 237.705L71.6507 273.699L208.407 128.662L233.955 116.503L267.637 93.2752L264.769 85.0609L238.764 97.6873L268.284 72.2089L264.064 65.3747L231.756 87.2224L267.156 55.7449L257.387 46.2225L214.686 81.4432L249.956 38.9798L243.902 33.0787L188.446 75.7563L185.614 34.1282L179.159 31.4491L171.458 39.3069L167.119 94.7495L25.794 237.705Z" fill="#101340"/>
<path d="M546.27 237.705L500.413 273.699L363.656 128.662L338.109 116.503L304.427 93.2752L307.295 85.0609L333.3 97.6873L303.78 72.2089L308 65.3747L340.308 87.2224L304.908 55.7449L314.677 46.2225L357.377 81.4432L322.107 38.9798L328.161 33.0787L383.618 75.7563L386.45 34.1282L392.905 31.4491L400.605 39.3069L404.944 94.7495L546.27 237.705Z" fill="#101340"/>
</svg>
