<svg width="111" height="182" viewBox="0 0 111 182" fill="none" xmlns="http://www.w3.org/2000/svg">
<path d="M0.69165 10.9134L9.71449 0H100.974L111 15.8772V158.758L93.9508 181.585H12.7244L0.69165 164.715V10.9134Z" fill="#3C1981"/>
<g clip-path="url(#clip0_798_172)">
<path d="M18.0449 90.3487L25.0316 82.7372L39.1429 74.1664L49.8322 70.4146L60.1281 70.2103L70.9578 73.5353L78.4202 77.7574L86.0181 83.65L92.3595 89.9671L88.5676 96.1792L81.9548 102.298L74.4704 106.073L68.5812 109.193L57.1712 110.924L49.1693 111.083L38.5719 109.145L31.1165 104.667L24.016 98.9518L18.0449 90.3487Z" fill="#F9F1C6"/>
<path d="M42.2358 79.1682L49.3304 73.9643L55.0302 72.8336L60.7945 73.7431L64.2609 75.41L69.7052 80.8333L71.5198 84.5556L72.4513 88.7013L72.0179 95.0903L69.7793 100.36L66.9801 103.781L61.8723 107.122L56.6636 108.412L51.8648 108.507L46.5057 105.86L42.7009 102.614L39.7351 97.947L38.3729 93.042L38.2907 88.8982L39.9092 82.7354L42.2358 79.1682Z" fill="#3C1981"/>
<path d="M48.4935 84.3009L50.4706 82.5511L54.0454 81.1816L57.2821 81.2922L60.2889 82.5623L62.0166 84.0326L63.7942 86.8005L64.5427 89.6138L64.6092 92.965L63.0985 95.7544L61.0841 98.0544L58.6669 99.482L55.5712 100.105L51.9313 99.4034L49.7489 98.0919L47.8152 95.9577L46.5747 93.2416L46.1812 89.4973L47.1562 86.7248L48.4935 84.3009Z" fill="#101340"/>
</g>
<defs>
<clipPath id="clip0_798_172">
<rect width="74.3076" height="40.6469" fill="white" transform="translate(17.6621 71.0527) rotate(-1.13643)"/>
</clipPath>
</defs>
</svg>
