<svg width="101" height="105" viewBox="0 0 101 105" fill="none" xmlns="http://www.w3.org/2000/svg">
<rect x="0.0107422" y="37.7002" width="55.858" height="88.316" rx="9" transform="rotate(-41.1234 0.0107422 37.7002)" fill="#B99ED1"/>
<g clip-path="url(#clip0_693_82)">
<path d="M37.5801 63.2576L37.6944 58.6635L39.9154 51.6637L42.3994 47.2797L45.7894 44.1993L50.3907 42.1454L54.1261 41.3771L58.3956 41.1288L62.3683 41.3903L62.9151 44.581L62.4892 48.5655L61.086 52.02L60.0254 54.7881L56.7087 58.7059L54.074 61.0999L49.9565 63.5508L46.1484 64.2313L42.0975 64.3935L37.5801 63.2576Z" fill="#F9F1C6"/>
<path d="M42.4148 52.4347L43.2697 48.6157L44.8487 46.5695L47.0461 45.188L48.6952 44.7324L52.1059 44.9569L53.8028 45.6733L55.3276 46.7899L57.0514 49.0574L57.8429 51.4779L57.9056 53.4429L57.1717 56.0567L55.8037 58.0125L54.2237 59.4481L51.6538 60.129L49.4294 60.1545L47.0704 59.4583L45.1791 58.2133L43.9394 56.8489L42.6788 54.3105L42.4148 52.4347Z" fill="#3C1981"/>
<path d="M46.013 52.3237L46.1636 51.1591L46.9607 49.6545L48.0776 48.7447L49.4566 48.2907L50.4656 48.2779L51.8709 48.6853L52.9447 49.4089L53.9473 50.5124L54.2571 51.8889L54.2549 53.2488L53.8627 54.4343L53.0078 55.5487L51.5828 56.3783L50.468 56.5773L49.1957 56.4279L47.9855 55.8807L46.7584 54.7412L46.274 53.5271L46.013 52.3237Z" fill="#101340"/>
</g>
<defs>
<clipPath id="clip0_693_82">
<rect width="33.0515" height="18.0795" fill="white" transform="translate(31.8071 56.9043) rotate(-42.2598)"/>
</clipPath>
</defs>
</svg>
