<svg width="83" height="103" viewBox="0 0 83 103" fill="none" xmlns="http://www.w3.org/2000/svg">
<rect x="29.7844" y="0.59082" width="55.858" height="88.316" rx="9" transform="rotate(19.6815 29.7844 0.59082)" fill="#B99ED1"/>
<g clip-path="url(#clip0_693_73)">
<path d="M25.7996 45.8545L29.8659 43.7133L37.0598 42.2377L42.0986 42.2677L46.4412 43.7245L50.4787 46.7394L52.9715 49.6255L55.2709 53.2315L56.9804 56.8271L54.4617 58.8608L50.7757 60.4326L47.0755 60.8927L44.1418 61.317L39.1038 60.3327L35.7288 59.2005L31.5808 56.8016L29.1292 53.8092L27.0116 50.352L25.7996 45.8545Z" fill="#F9F1C6"/>
<path d="M37.6058 44.7955L41.3567 43.6789L43.9131 44.0592L46.191 45.3036L47.3931 46.5209L48.8608 49.6078L49.0631 51.4386L48.8322 53.3144L47.6936 55.9252L45.9667 57.797L44.2819 58.8102L41.6422 59.4445L39.2675 59.2042L37.2435 58.5252L35.3956 56.6139L34.2883 54.6845L33.7454 52.2856L33.9097 50.0273L34.496 48.2795L36.097 45.941L37.6058 44.7955Z" fill="#3C1981"/>
<path d="M39.4577 47.8828L40.5479 47.4461L42.2502 47.4081L43.5892 47.9393L44.6582 48.9216L45.1615 49.7962L45.4913 51.2217L45.3834 52.5121L44.9092 53.9255L43.8586 54.8675L42.6705 55.5289L41.4443 55.7648L40.0544 55.5621L38.6351 54.7228L37.9176 53.8466L37.4274 52.6631L37.3148 51.3398L37.7109 49.7127L38.5346 48.6976L39.4577 47.8828Z" fill="#101340"/>
</g>
<defs>
<clipPath id="clip0_693_73">
<rect width="33.0515" height="18.0795" fill="white" transform="translate(28.5299 37.7158) rotate(18.545)"/>
</clipPath>
</defs>
</svg>
