<svg width="102" height="104" viewBox="0 0 102 104" fill="none" xmlns="http://www.w3.org/2000/svg">
<rect x="0.922119" y="37.3477" width="55.858" height="88.316" rx="9" transform="rotate(-41.1234 0.922119 37.3477)" fill="#B99ED1"/>
<g clip-path="url(#clip0_693_91)">
<path d="M38.4915 62.9061L38.6058 58.3119L40.8267 51.3122L43.3108 46.9281L46.7008 43.8478L51.302 41.7938L55.0375 41.0255L59.307 40.7772L63.2797 41.0388L63.8264 44.2295L63.4006 48.2139L61.9974 51.6684L60.9367 54.4365L57.62 58.3543L54.9854 60.7483L50.8678 63.1992L47.0598 63.8797L43.0089 64.0419L38.4915 62.9061Z" fill="#F9F1C6"/>
<path d="M43.3262 52.0832L44.1811 48.2641L45.7601 46.2179L47.9575 44.8364L49.6066 44.3808L53.0172 44.6054L54.7141 45.3218L56.239 46.4383L57.9628 48.7058L58.7543 51.1264L58.817 53.0913L58.0831 55.7051L56.7151 57.6609L55.1351 59.0966L52.5652 59.7774L50.3408 59.8029L47.9818 59.1067L46.0905 57.8617L44.8507 56.4974L43.5902 53.959L43.3262 52.0832Z" fill="#3C1981"/>
<path d="M46.9244 51.9722L47.0749 50.8075L47.8721 49.3029L48.989 48.3931L50.368 47.9391L51.377 47.9263L52.7823 48.3337L53.856 49.0574L54.8586 50.1608L55.1684 51.5373L55.1663 52.8972L54.7741 54.0827L53.9192 55.1971L52.4942 56.0267L51.3793 56.2257L50.1071 56.0763L48.8969 55.5291L47.6697 54.3897L47.1854 53.1755L46.9244 51.9722Z" fill="#101340"/>
</g>
<defs>
<clipPath id="clip0_693_91">
<rect width="33.0515" height="18.0795" fill="white" transform="translate(32.7185 56.5527) rotate(-42.2598)"/>
</clipPath>
</defs>
</svg>
