<svg width="168" height="169" viewBox="0 0 168 169" fill="none" xmlns="http://www.w3.org/2000/svg">
<path d="M143.801 104.846L135.684 120.822L121.276 135.936L114.158 139.262L102.145 144.892L80.9564 146.858L61.2995 143.601L45.5549 135.602L34.6105 121.069L24.5808 105.486L21.028 77.1543L26.3084 55.7214L39.3281 36.7174L52.6476 28.1624L81.3202 20.2961L102.172 24.1596L125.049 35.7819L131.056 43.298L140.133 54.662L145.835 72.1402L146.313 91.0697L143.801 104.846Z" fill="#B99ED1"/>
<g clip-path="url(#clip0_856_116)">
<path d="M31.7227 56.1031L47.0687 50.7042L73.0241 49.2511L90.6548 51.9578L105.111 59.3019L117.694 71.9449L124.933 83.3394L131.124 97.1553L135.254 110.63L125.383 116.452L111.663 120.053L98.4676 119.754L87.9741 119.725L70.8392 113.676L59.6042 107.969L46.3161 97.4257L39.2758 85.6805L33.6449 72.4797L31.7227 56.1031Z" fill="#290066"/>
<path d="M73.6153 58.4916L87.3276 56.5179L96.0843 59.1697L103.419 64.7039L107 69.5878L110.546 81.1562L110.31 87.6722L108.532 94.1221L103.197 102.678L96.1825 108.341L89.7591 111.019L80.1871 111.877L71.995 109.81L65.2574 106.387L59.7728 98.7393L56.8912 91.4108L56.2285 82.7293L57.9699 74.9053L60.9256 69.0873L67.7401 61.7241L73.6153 58.4916Z" fill="#FFE250"/>
<path d="M78.507 70.259L82.5503 69.2927L88.5315 70.0384L92.9465 72.5901L96.183 76.5823L97.4941 79.9051L97.9132 85.0676L96.8688 89.5308L94.4784 94.236L90.3129 96.9922L85.8103 98.6953L81.3943 98.888L76.6315 97.4605L72.0944 93.7885L70.0339 90.3496L68.9286 85.9518L69.2174 81.2592L71.4446 75.7655L74.8533 72.6359L78.507 70.259Z" fill="#3C1981"/>
</g>
<defs>
<clipPath id="clip0_856_116">
<rect width="117" height="64" fill="white" transform="translate(45.4866 29.0107) rotate(26.9322)"/>
</clipPath>
</defs>
</svg>
