<svg width="181" height="208" viewBox="0 0 181 208" fill="none" xmlns="http://www.w3.org/2000/svg">
<path d="M137.165 86.8606L149.944 95.5952L152.37 99.9625H158.193L154.796 91.5514L162.884 95.5952L177.28 98.0215L181 92.8454C180.784 90.3113 180.256 84.9843 179.868 83.9491C179.479 82.9139 177.981 79.3122 177.28 77.6408L171.78 66.1564L168.545 58.8776L161.59 52.731L156.09 50.143L149.944 48.0402H139.915L131.019 47.3932L124.063 44.8052L116.946 38.8204V32.6738L119.696 27.4978L122.122 24.2627L127.298 20.866L138.621 19.8954L140.886 14.3959L137.165 9.05809L131.019 7.44057V3.23503L135.063 0H128.431L125.357 7.44057L129.563 10.6756L131.019 14.3959H124.063L111.123 16.6604L103.683 24.2627L105.947 32.6738H99.1537L94.3011 30.0858L85.7283 28.9535L74.5674 30.0858L68.5826 37.0411L61.9508 40.7614L64.0536 53.8633L77.6407 60.4951L84.7578 58.8776L91.5513 62.1126L101.903 64.5389L109.506 68.0974L122.122 69.3914L132.313 66.1564L147.356 68.0974L156.09 69.3914L162.884 73.7587L158.193 77.6408L145.9 75.0527H135.063L132.313 80.2288L137.165 86.8606Z" fill="#FFE250"/>
<path d="M5.6613 173.397L16.8222 176.147L20.3684 174.941L20.0572 173.074L21.9982 173.397L22.2263 174.309L24.9097 173.397L31.8651 167.736L40.2761 163.692L49.0107 154.634L58.7158 151.237L64.5389 146.87L82.008 133.768L90.0956 126.166L104.492 123.739H112.903L122.931 115.652L131.989 105.947H139.106V110.314H142.18L144.121 104.329L154.958 105.947L149.135 110.314L153.826 111.931L158.193 115.652L153.826 119.048V121.798L163.693 119.048V123.739L158.193 126.166L160.619 128.754H165.957V135.547L160.619 138.135L167.575 140.885L165.957 144.929L153.179 149.62V154.634H142.18H136.68L127.298 160.295L122.931 165.795L116.299 167.736L111.123 173.397L104.492 178.897L93.9777 181.485L87.0223 178.897L82.008 183.264L77.3172 186.984L64.5389 190.543H51.7605H35.9088L31.0604 192.664L31.3798 193.131L29.4388 193.939L29.1643 193.493L28.1448 193.939L20.8659 203.321L14.0724 207.041L7.76407 203.321V199.763H1.61752L0 189.896L5.6613 186.984L0 185.205L1.61752 181.485H7.76407L3.39678 178.897L5.6613 173.397Z" fill="#B99ED1"/>
<path d="M26.0423 189.734L29.7626 194.425L31.2184 193.293L30.2478 192.322L28.9538 190.381L27.9833 188.602L27.1746 186.499L26.0423 185.043L25.2335 183.102L24.5865 181.161L23.9395 178.897L23.1308 176.632L22.4838 175.015L22.1603 173.235H20.0575L20.7045 175.015V177.117L21.5133 179.382L23.1308 183.102L24.5865 186.984L26.0423 189.734Z" fill="#101340"/>
<path d="M38.3353 163.692L39.9528 163.045V164.177L41.2469 165.956L42.2174 167.736L43.3496 170L43.9966 171.618L45.1289 173.559L45.4524 175.823L46.4229 178.735L47.3934 181.646L49.3344 184.72L50.6284 186.014L51.2755 187.793L51.9225 189.572V190.866H50.6284L50.1432 188.763L49.3344 187.146L47.3934 185.528L45.4524 180.999L44.3201 178.735L43.9966 176.309L43.3496 174.368L42.2174 172.103L40.7616 168.868L39.3058 166.927L38.3353 165.309V163.692Z" fill="#101340"/>
<path d="M66.1566 144.606L67.2889 143.797L68.7446 146.385L69.7152 148.649L71.3327 149.62L72.9502 151.076L74.0824 153.178L75.053 154.958L76.994 158.355L78.288 160.134L79.582 162.237L79.9055 164.825L80.876 166.604L82.0083 168.545L82.6553 171.78L83.6258 175.338L84.9198 177.279L86.6991 178.25L87.3461 180.676L85.8903 181.485L84.9198 180.676L83.6258 179.22L82.0083 177.279L80.876 173.397L80.5525 171.133L79.9055 169.192L77.8027 165.633L76.994 162.56L74.0824 158.355L73.2737 155.928L71.0092 152.693L69.7152 150.752L67.7741 149.458L66.6419 147.517L66.1566 145.738V144.606Z" fill="#101340"/>
<path d="M112.094 121.313H113.873L115.006 123.254L117.755 126.49L119.535 129.239L121.152 131.666L123.093 135.871L126.005 141.371L127.622 144.929L129.725 148.973L131.504 152.855L133.284 154.958L134.578 156.737L134.092 158.516L131.504 159.487L130.21 156.414L129.078 153.502L125.196 145.9L121.799 139.753L119.535 135.871L117.108 130.857L115.006 127.298L112.903 125.034L110.315 123.254V121.96L112.094 121.313Z" fill="#101340"/>
</svg>
