<svg width="170" height="169" viewBox="0 0 170 169" fill="none" xmlns="http://www.w3.org/2000/svg">
<path d="M145.801 104.846L137.684 120.822L123.276 135.936L116.158 139.262L104.145 144.892L82.9564 146.858L63.2995 143.601L47.5549 135.602L36.6105 121.069L26.5808 105.486L23.028 77.1543L28.3084 55.7214L41.3281 36.7174L54.6476 28.1624L83.3202 20.2961L104.172 24.1596L127.049 35.7819L133.056 43.298L142.133 54.662L147.835 72.1402L148.313 91.0697L145.801 104.846Z" fill="#B99ED1"/>
<g clip-path="url(#clip0_790_121)">
<path d="M33.7227 56.1031L49.0687 50.7042L75.0241 49.2511L92.6548 51.9578L107.111 59.3019L119.694 71.9449L126.933 83.3394L133.124 97.1553L137.254 110.63L127.383 116.452L113.663 120.053L100.468 119.754L89.9741 119.725L72.8392 113.676L61.6042 107.969L48.3161 97.4257L41.2758 85.6805L35.6449 72.4797L33.7227 56.1031Z" fill="#290066"/>
<path d="M75.6153 58.4916L89.3276 56.5179L98.0843 59.1697L105.419 64.7039L109 69.5878L112.546 81.1562L112.31 87.6722L110.532 94.1221L105.197 102.678L98.1825 108.341L91.7591 111.019L82.1871 111.877L73.995 109.81L67.2574 106.387L61.7728 98.7393L58.8912 91.4108L58.2285 82.7293L59.9699 74.9053L62.9256 69.0873L69.7401 61.7241L75.6153 58.4916Z" fill="#FFE250"/>
<path d="M80.507 70.259L84.5503 69.2927L90.5315 70.0384L94.9465 72.5901L98.183 76.5823L99.4941 79.9051L99.9132 85.0676L98.8688 89.5308L96.4784 94.236L92.3129 96.9922L87.8103 98.6953L83.3943 98.888L78.6315 97.4605L74.0944 93.7885L72.0339 90.3496L70.9286 85.9518L71.2174 81.2592L73.4446 75.7655L76.8533 72.6359L80.507 70.259Z" fill="#3C1981"/>
</g>
<defs>
<clipPath id="clip0_790_121">
<rect width="117" height="64" fill="white" transform="translate(47.4866 29.0107) rotate(26.9322)"/>
</clipPath>
</defs>
</svg>
