<svg width="245" height="393" viewBox="0 0 245 393" fill="none" xmlns="http://www.w3.org/2000/svg">
<path d="M0.5 354.75V392.25L245 384.25V365.25V321.75V308.75L242.5 298.25L239.5 271.75L237.5 244.25V226.75L234.5 209.25V196.25L231.5 178.25L227.5 160.25L225 154.25L211 149.75L196 143.25L177.5 134.25L167.5 127.75L164.5 122.75L157.5 118.75L151.5 113.25L146.5 108.25V100.25L151.5 95.75L153.5 86.75L155.5 75.25L162.5 58.25V51.25L159.5 46.25V38.75L155.5 24.25L150 13.25L139 5.25L131.5 0.25H120.5H109L98 5.25L84 13.25L76 33.75L78 49.25L74 51.25V59.75L76 67.25L80.5 77.25L84 79.25L88 95.75L94 102.25V113.25L91 118.75L78 136.25L60.5 147.25L30.5 156.75L18.5 166.25V184.75V232.25L12.5 266.25L7 312.75L0.5 354.75Z" fill="#F9F1C6"/>
</svg>
