<svg width="85" height="118" viewBox="0 0 85 118" fill="none" xmlns="http://www.w3.org/2000/svg">
<g clip-path="url(#clip0_701_104)">
<path d="M6.17023 8.33518L1.3012 15.5729L13.1994 107.075L22.1213 116.12L73.5257 109.436L82.5506 94.4559L71.4965 9.4456L63.9215 0.825663L6.17023 8.33518Z" fill="#FFE250"/>
<g clip-path="url(#clip1_701_104)">
<path d="M19.4637 60.6984L23.2494 55.5404L31.3557 49.31L37.6817 46.2774L44.0055 45.4551L50.8966 46.7691L55.7757 48.8631L60.8512 51.9762L65.182 55.4356L63.2682 59.5161L59.6117 63.7295L55.2601 66.56L51.8461 68.8788L44.9398 70.7162L40.025 71.3553L33.3707 70.8797L28.4786 68.6276L23.7213 65.59L19.4637 60.6984Z" fill="#F9F1C6"/>
<path d="M33.598 52.1794L37.613 48.4961L41.045 47.4145L44.6547 47.5844L46.9012 48.3759L50.6193 51.3459L51.9881 53.5144L52.842 56.0032L53.0075 59.9653L51.9861 63.3606L50.4944 65.6554L47.5764 68.0579L44.4574 69.204L41.51 69.5873L38.0322 68.3206L35.4705 66.58L33.3292 63.9078L32.1589 60.9807L31.8279 58.4356L32.4072 54.5326L33.598 52.1794Z" fill="#B99ED1"/>
<path d="M37.797 54.9154L38.8956 53.7046L41.0034 52.6197L43.0033 52.4688L44.94 53.0472L46.103 53.8354L47.3845 55.4189L48.0355 57.0999L48.3032 59.1583L47.562 60.9775L46.4776 62.5295L45.0863 63.5718L43.223 64.1649L40.9349 63.9791L39.5028 63.3195L38.1682 62.1366L37.2208 60.5487L36.7253 58.2705L37.1379 56.4979L37.797 54.9154Z" fill="#3C1981"/>
</g>
</g>
<defs>
<clipPath id="clip0_701_104">
<rect width="70.3994" height="108.942" fill="white" transform="translate(0.456665 9.07812) rotate(-7.40871)"/>
</clipPath>
<clipPath id="clip1_701_104">
<rect width="46.0153" height="25.1707" fill="white" transform="translate(17.9226 48.8467) rotate(-7.40871)"/>
</clipPath>
</defs>
</svg>
