<svg width="80" height="115" viewBox="0 0 80 115" fill="none" xmlns="http://www.w3.org/2000/svg">
<g clip-path="url(#clip0_701_112)">
<path d="M15.2567 0.492619L8.95614 6.52548L1.06691 98.4598L7.85453 109.2L59.5019 113.632L71.5139 100.921L78.8434 15.509L73.2809 5.47189L15.2567 0.492619Z" fill="#B99ED1"/>
<g clip-path="url(#clip1_701_112)">
<path d="M17.0773 54.4868L21.8758 50.2548L31.1244 45.8965L37.9516 44.2827L44.3052 44.8279L50.7576 47.5813L55.0779 50.6677L59.3728 54.7916L62.8662 59.095L60.1262 62.6734L55.6552 66.0102L50.8002 67.8476L46.9702 69.3849L39.8309 69.7072L34.8929 69.2835L28.4931 67.3998L24.1938 64.1561L20.1937 60.1739L17.0773 54.4868Z" fill="#F9F1C6"/>
<path d="M32.703 49.1781L37.4112 46.4358L40.9949 46.111L44.4853 47.0468L46.5114 48.2991L49.5106 51.9937L50.3854 54.4042L50.6889 57.0179L50.0056 60.9241L48.2836 64.0235L46.3369 65.9475L42.9737 67.6723L39.682 68.1269L36.7207 67.8728L33.593 65.8936L31.4614 63.6468L29.9392 60.5794L29.42 57.47L29.6395 54.9129L31.0378 51.2232L32.703 49.1781Z" fill="#B99ED1"/>
<path d="M36.2221 52.7468L37.5537 51.7981L39.8444 51.1877L41.8304 51.4668L43.5992 52.4449L44.5674 53.4629L45.4817 55.2833L45.7592 57.0645L45.5818 59.1326L44.4696 60.7519L43.0793 62.0369L41.4977 62.7586L39.5507 62.9407L37.3549 62.2712L36.0964 61.3213L35.0447 59.881L34.4579 58.1276L34.4595 55.7961L35.2407 54.1523L36.2221 52.7468Z" fill="#3C1981"/>
</g>
</g>
<defs>
<clipPath id="clip0_701_112">
<rect width="70.3994" height="108.942" fill="white" transform="translate(9.51611) rotate(4.90475)"/>
</clipPath>
<clipPath id="clip1_701_112">
<rect width="46.0153" height="25.1707" fill="white" transform="translate(18.0991 42.5791) rotate(4.90475)"/>
</clipPath>
</defs>
</svg>
