<svg width="117" height="130" viewBox="0 0 117 130" fill="none" xmlns="http://www.w3.org/2000/svg">
<g clip-path="url(#clip0_701_88)">
<path d="M5.38056 32.652L3.71657 41.2149L50.3283 120.848L62.0696 125.703L106.807 99.5168L109.281 82.204L65.9763 8.22006L55.6412 3.23304L5.38056 32.652Z" fill="#3C1981"/>
<g clip-path="url(#clip1_701_88)">
<path d="M38.027 75.6973L39.5036 69.4719L44.5416 60.5753L49.1858 55.3174L54.6894 52.096L61.5479 50.621L66.8573 50.6484L72.7447 51.5378L78.0812 53.0362L77.9085 57.5399L76.1828 62.8451L73.2781 67.1475L71.0375 70.6133L65.393 74.9965L61.1156 77.5001L54.802 79.655L49.419 79.4871L43.8541 78.5433L38.027 75.6973Z" fill="#F9F1C6"/>
<path d="M47.7247 62.3446L49.9872 57.388L52.7265 55.0546L56.1171 53.8045L58.4944 53.658L63.076 54.9445L65.1815 56.4083L66.9377 58.3677L68.6339 61.9521L69.0162 65.477L68.5367 68.1718L66.7854 71.5213L64.3596 73.7922L61.7945 75.2936L58.0979 75.4822L55.0605 74.8774L52.0472 73.2507L49.8288 71.011L48.5323 68.796L47.545 64.9758L47.7247 62.3446Z" fill="#B99ED1"/>
<path d="M52.658 63.2275L53.198 61.6842L54.7165 59.8638L56.4995 58.9456L58.5085 58.7236L59.8867 58.9963L61.6838 59.9554L62.9385 61.2498L63.987 63.0412L64.0132 65.0055L63.6194 66.8573L62.7442 68.3594L61.2592 69.6317L59.0796 70.3521L57.5036 70.3026L55.8136 69.7333L54.3223 68.64L52.9783 66.735L52.6675 64.9417L52.658 63.2275Z" fill="#3C1981"/>
</g>
</g>
<defs>
<clipPath id="clip0_701_88">
<rect width="70.3994" height="108.942" fill="white" transform="translate(0.408081 35.5625) rotate(-30.3416)"/>
</clipPath>
<clipPath id="clip1_701_88">
<rect width="46.0153" height="25.1707" fill="white" transform="translate(31.9896 65.3828) rotate(-30.3416)"/>
</clipPath>
</defs>
</svg>
