<svg width="111" height="129" viewBox="0 0 111 129" fill="none" xmlns="http://www.w3.org/2000/svg">
<g clip-path="url(#clip0_701_128)">
<path d="M51.5192 2.44889L43.5201 5.92844L4.30151 89.4513L6.95271 101.877L53.8747 123.909L69.5433 116.141L105.98 38.5436L104.235 27.2017L51.5192 2.44889Z" fill="#FFE250"/>
<g clip-path="url(#clip1_701_128)">
<path d="M34.541 53.7362L40.5076 51.4264L50.693 50.5382L57.6568 51.3869L63.4291 54.0973L68.5299 58.9136L71.515 63.3044L74.1173 68.6599L75.9055 73.9064L72.0964 76.3154L66.7469 77.8987L61.556 77.9422L57.4306 78.0591L50.621 75.8907L46.1348 73.7842L40.7824 69.802L37.8714 65.2709L35.4966 60.1504L34.541 53.7362Z" fill="#F9F1C6"/>
<path d="M51.0384 54.1637L56.4046 53.2204L59.8793 54.1559L62.8302 56.2418L64.2976 58.1179L65.8328 62.6222L65.8194 65.1865L65.1996 67.7437L63.2066 71.172L60.5184 73.4839L58.0261 74.6153L54.2738 75.0696L51.0282 74.357L48.3378 73.0937L46.0884 70.1543L44.8661 67.3086L44.4996 63.904L45.0886 60.8071L46.1794 58.4839L48.7683 55.5062L51.0384 54.1637Z" fill="#B99ED1"/>
<path d="M53.105 58.7292L54.6826 58.3L57.0429 58.5201L58.8097 59.4692L60.1307 60.9991L60.6867 62.2893L60.9145 64.3135L60.5584 66.0808L59.6762 67.9596L58.0724 69.0939L56.3232 69.8184L54.5896 69.9481L52.6999 69.4451L50.8715 68.0571L50.0195 66.7304L49.5313 65.0151L49.5875 63.1669L50.396 60.9801L51.6977 59.7082L53.105 58.7292Z" fill="#3C1981"/>
</g>
</g>
<defs>
<clipPath id="clip0_701_128">
<rect width="70.3994" height="108.942" fill="white" transform="translate(46.3038) rotate(25.1527)"/>
</clipPath>
<clipPath id="clip1_701_128">
<rect width="46.0153" height="25.1707" fill="white" transform="translate(39.6207 42.918) rotate(25.1527)"/>
</clipPath>
</defs>
</svg>
