<svg width="102" height="126" viewBox="0 0 102 126" fill="none" xmlns="http://www.w3.org/2000/svg">
<g clip-path="url(#clip0_701_96)">
<path d="M5.98461 20.0901L2.54392 28.106L31.2227 115.808L41.6688 123.04L90.9387 106.929L97.0256 90.5335L70.3814 9.0533L61.3378 1.98953L5.98461 20.0901Z" fill="#B99ED1"/>
<g clip-path="url(#clip1_701_96)">
<path d="M28.7683 69.0754L31.5306 63.3043L38.3393 55.6772L43.9923 51.5229L50.0535 49.5409L57.0688 49.5527L62.2518 50.7045L67.817 52.8212L72.7148 55.4165L71.5918 59.7813L68.7811 64.6003L65.0306 68.1895L62.1065 71.1018L55.6613 74.1894L50.9506 75.7298L44.3238 76.4979L39.0986 75.1931L33.86 73.0916L28.7683 69.0754Z" fill="#F9F1C6"/>
<path d="M41.0753 58.0809L44.3368 53.7163L47.5083 52.0163L51.0868 51.5131L53.4412 51.8737L57.6461 54.1018L59.3936 55.9785L60.6947 58.2655L61.5929 62.128L61.2196 65.6539L60.1799 68.1858L57.7586 71.0882L54.9067 72.7935L52.0817 73.7173L48.4291 73.1182L45.5888 71.8835L42.9886 69.6553L41.2952 66.9964L40.4975 64.5569L40.3422 60.6142L41.0753 58.0809Z" fill="#B99ED1"/>
<path d="M45.7094 59.9896L46.5641 58.5958L48.4339 57.1385L50.3709 56.619L52.3814 56.8278L53.6705 57.3863L55.2236 58.7044L56.1755 60.2353L56.8206 62.2082L56.43 64.1334L55.6527 65.8597L54.4791 67.1422L52.7582 68.071L50.4754 68.3132L48.9458 67.9309L47.4147 67.0164L46.189 65.6319L45.2792 63.4853L45.3555 61.6669L45.7094 59.9896Z" fill="#3C1981"/>
</g>
</g>
<defs>
<clipPath id="clip0_701_96">
<rect width="70.3994" height="108.942" fill="white" transform="translate(0.508301 21.8809) rotate(-18.1078)"/>
</clipPath>
<clipPath id="clip1_701_96">
<rect width="46.0153" height="25.1707" fill="white" transform="translate(25.0537 57.7158) rotate(-18.1078)"/>
</clipPath>
</defs>
</svg>
