<svg width="99" height="126" viewBox="0 0 99 126" fill="none" xmlns="http://www.w3.org/2000/svg">
<g clip-path="url(#clip0_701_120)">
<path d="M36.9999 2.18964L29.6133 6.82971L3.36713 95.2905L7.8522 107.178L57.5482 121.922L71.8743 111.892L96.2584 29.7067L92.8318 18.7548L36.9999 2.18964Z" fill="#2A1467"/>
<g clip-path="url(#clip1_701_120)">
<path d="M27.907 55.4431L33.4597 52.2645L43.3966 49.8585L50.4089 49.653L56.5225 51.4669L62.288 55.4635L65.898 59.3569L69.2742 64.2614L71.8291 69.1803L68.4245 72.1334L63.373 74.5012L58.2474 75.3229L54.1862 76.0573L47.1283 74.9349L42.3769 73.5252L36.4878 70.3909L32.93 66.3478L29.814 61.6414L27.907 55.4431Z" fill="#F9F1C6"/>
<path d="M44.2818 53.3908L49.4458 51.6531L53.0215 52.0568L56.2519 53.6765L57.9841 55.3113L60.1777 59.5343L60.549 62.0716L60.3198 64.6929L58.8637 68.3814L56.5527 71.0703L54.2583 72.5627L50.6165 73.5748L47.3008 73.357L44.4514 72.5116L41.7865 69.9429L40.1512 67.3128L39.2781 64.0016L39.3958 60.8514L40.1259 58.3909L42.2388 55.0585L44.2818 53.3908Z" fill="#B99ED1"/>
<path d="M47.0099 57.5953L48.5053 56.9342L50.872 56.7978L52.7611 57.4712L54.2966 58.7855L55.0398 59.9777L55.5687 61.9449L55.4818 63.7456L54.8914 65.7355L53.4759 67.0976L51.8552 68.0762L50.1606 68.4645L48.2169 68.2507L46.2009 67.1526L45.1596 65.9687L44.4196 64.3461L44.1979 62.5103L44.6692 60.227L45.7654 58.7742L47.0099 57.5953Z" fill="#3C1981"/>
</g>
</g>
<defs>
<clipPath id="clip0_701_120">
<rect width="70.3994" height="108.942" fill="white" transform="translate(31.4762 0.550781) rotate(16.5255)"/>
</clipPath>
<clipPath id="clip1_701_120">
<rect width="46.0153" height="25.1707" fill="white" transform="translate(31.3065 43.9854) rotate(16.5255)"/>
</clipPath>
</defs>
</svg>
