<svg width="86" height="99" viewBox="0 0 86 99" fill="none" xmlns="http://www.w3.org/2000/svg">
<g clip-path="url(#clip0_848_105)">
<path d="M3.88485 22.8069L2.31092 29.2559L34.8684 91.4713L43.6183 95.5849L78.57 77.2946L81.0759 64.2237L50.8282 6.42215L43.152 2.25828L3.88485 22.8069Z" fill="#B99ED1"/>
<g clip-path="url(#clip1_848_105)">
<path d="M27.1472 56.7058L28.4944 52.027L32.645 45.4461L36.3651 41.617L40.6649 39.3669L45.9316 38.4932L49.9665 38.7056L54.4097 39.5942L58.4121 40.9258L58.1183 44.343L56.6151 48.3135L54.2518 51.4791L52.4235 54.0327L47.9746 57.1609L44.6329 58.9096L39.7558 60.3197L35.67 59.9978L31.4739 59.0796L27.1472 56.7058Z" fill="#F9F1C6"/>
<path d="M35.0008 46.9059L36.8996 43.2199L39.066 41.545L41.6885 40.7171L43.5009 40.6916L46.9371 41.8349L48.4848 43.0236L49.749 44.5764L50.909 47.3623L51.0724 50.0555L50.6106 52.0866L49.1585 54.5696L47.2326 56.2082L45.2285 57.2569L42.4118 57.2668L40.1248 56.6975L37.8929 55.3522L36.2875 53.5696L35.3819 51.8391L34.7693 48.8996L35.0008 46.9059Z" fill="#B99ED1"/>
<path d="M38.719 47.7549L39.1851 46.6013L40.4051 45.2724L41.7936 44.6387L43.3287 44.5425L44.3665 44.7995L45.698 45.5934L46.605 46.6227L47.3374 48.0222L47.2864 49.5163L46.9202 50.9097L46.2007 52.0199L45.026 52.9335L43.3431 53.4024L42.147 53.308L40.8828 52.8142L39.7887 51.9293L38.8358 50.4327L38.6643 49.0583L38.719 47.7549Z" fill="#3C1981"/>
</g>
</g>
<defs>
<clipPath id="clip0_848_105">
<rect width="53.574" height="82.9051" fill="white" transform="translate(0 24.8398) rotate(-27.6232)"/>
</clipPath>
<clipPath id="clip1_848_105">
<rect width="35.0177" height="19.155" fill="white" transform="translate(22.9302 48.6475) rotate(-27.6232)"/>
</clipPath>
</defs>
</svg>
