<svg width="88" height="93" viewBox="0 0 88 93" fill="none" xmlns="http://www.w3.org/2000/svg">
<g clip-path="url(#clip0_848_83)">
<path d="M3.72505 29.9112L3.49284 36.0845L44.7804 86.7361L53.5253 88.8547L81.9806 65.6599L81.8274 53.2754L43.469 6.21723L35.6938 3.85257L3.72505 29.9112Z" fill="#B99ED1"/>
<g clip-path="url(#clip1_848_83)">
<path d="M31.2566 56.4795L31.6122 51.9624L34.1691 45.1882L36.8467 41.0032L40.3472 38.1498L44.9861 36.371L48.7045 35.8121L52.9212 35.7935L56.8188 36.2611L57.1883 39.4315L56.5582 43.3319L54.9939 46.6588L53.8033 49.3281L50.3306 53.0099L47.6099 55.2275L43.4263 57.4228L39.6411 57.8914L35.6442 57.8368L31.2566 56.4795Z" fill="#F9F1C6"/>
<path d="M36.5892 46.0794L37.6328 42.3646L39.2957 40.4335L41.5323 39.1896L43.18 38.8283L46.5261 39.2298L48.1589 40.0248L49.6011 41.2048L51.1783 43.5285L51.8296 45.9535L51.7874 47.8914L50.9266 50.426L49.4762 52.2793L47.8447 53.6092L45.2784 54.1436L43.087 54.051L40.8013 53.2408L39.0051 51.915L37.8567 50.5061L36.7499 47.9403L36.5892 46.0794Z" fill="#B99ED1"/>
<path d="M40.1376 46.1612L40.3475 45.0225L41.2119 43.5833L42.3596 42.7466L43.7414 42.3726L44.7355 42.4134L46.0975 42.8888L47.1164 43.6581L48.0452 44.7975L48.2774 46.1692L48.2034 47.5079L47.7544 48.6543L46.8538 49.7063L45.407 50.4478L44.2988 50.5847L43.0541 50.3703L41.8915 49.7676L40.7436 48.5808L40.3309 47.3598L40.1376 46.1612Z" fill="#3C1981"/>
</g>
</g>
<defs>
<clipPath id="clip0_848_83">
<rect width="49.8569" height="77.1528" fill="white" transform="translate(0.562256 32.4893) rotate(-39.1845)"/>
</clipPath>
<clipPath id="clip1_848_83">
<rect width="32.588" height="17.8259" fill="white" transform="translate(25.9089 49.9189) rotate(-39.1845)"/>
</clipPath>
</defs>
</svg>
