<svg width="86" height="92" viewBox="0 0 86 92" fill="none" xmlns="http://www.w3.org/2000/svg">
<g clip-path="url(#clip0_848_75)">
<path d="M48.6694 2.39945L42.6415 3.75162L4.21469 56.6064L4.39981 65.6023L34.0929 87.19L46.0276 83.8788L81.7282 34.7738L82.0287 26.6525L48.6694 2.39945Z" fill="#FFE250"/>
<g clip-path="url(#clip1_848_75)">
<path d="M30.0142 35.803L34.4724 34.9931L41.6749 35.7351L46.4049 37.255L50.0578 39.9107L52.9624 43.9414L54.4524 47.3938L55.5474 51.4659L56.0907 55.3536L53.1198 56.5205L49.1879 56.9075L45.5718 56.2448L42.687 55.7754L38.2403 53.3582L35.4013 51.2942L32.2104 47.81L30.7906 44.27L29.8226 40.3917L30.0142 35.803Z" fill="#F9F1C6"/>
<path d="M41.4311 38.3026L45.2893 38.3628L47.5811 39.4773L49.355 41.3221L50.1251 42.8228L50.5915 46.1605L50.2399 47.9422L49.4674 49.638L47.6236 51.7564L45.4453 53.0054L43.5609 53.4596L40.8905 53.2746L38.7283 52.3457L37.0258 51.1079L35.8537 48.7632L35.3835 46.6209L35.5831 44.204L36.4061 42.1288L37.475 40.6586L39.6731 38.9332L41.4311 38.3026Z" fill="#B99ED1"/>
<path d="M42.2589 41.7544L43.4134 41.6665L45.0257 42.1347L46.1277 43.0307L46.8423 44.271L47.0567 45.2426L46.9449 46.6809L46.4614 47.8625L45.597 49.0514L44.3301 49.6263L43.0168 49.8966L41.7938 49.7554L40.5466 49.1533L39.4603 47.9438L39.0448 46.9073L38.9342 45.6492L39.2201 44.3712L40.0743 42.9583L41.1494 42.2474L42.2589 41.7544Z" fill="#3C1981"/>
</g>
</g>
<defs>
<clipPath id="clip0_848_75">
<rect width="49.8569" height="77.1528" fill="white" transform="translate(45.3691) rotate(36.0182)"/>
</clipPath>
<clipPath id="clip1_848_75">
<rect width="32.588" height="17.8259" fill="white" transform="translate(34.9914 28.957) rotate(36.0182)"/>
</clipPath>
</defs>
</svg>
