<svg width="61" height="88" viewBox="0 0 61 88" fill="none" xmlns="http://www.w3.org/2000/svg">
<g clip-path="url(#clip0_848_94)">
<path d="M11.457 0.374884L6.66224 4.9659L0.658527 74.928L5.82391 83.1013L45.1276 86.4741L54.2687 76.801L59.8465 11.8024L55.6135 4.16412L11.457 0.374884Z" fill="#B99ED1"/>
<g clip-path="url(#clip1_848_94)">
<path d="M12.8424 41.4641L16.4941 38.2436L23.5323 34.9269L28.7278 33.6988L33.5629 34.1137L38.4732 36.209L41.761 38.5578L45.0294 41.6961L47.6879 44.971L45.6027 47.6942L42.2003 50.2334L38.5056 51.6317L35.591 52.8016L30.158 53.0469L26.4001 52.7244L21.5299 51.2909L18.2581 48.8225L15.214 45.792L12.8424 41.4641Z" fill="#F9F1C6"/>
<path d="M24.7337 37.4245L28.3166 35.3377L31.0438 35.0905L33.7 35.8026L35.2418 36.7557L37.5242 39.5673L38.19 41.4017L38.4209 43.3907L37.9009 46.3633L36.5905 48.7219L35.109 50.1861L32.5496 51.4987L30.0447 51.8447L27.7911 51.6513L25.4109 50.1451L23.7888 48.4352L22.6304 46.1009L22.2353 43.7347L22.4023 41.7887L23.4664 38.9809L24.7337 37.4245Z" fill="#B99ED1"/>
<path d="M27.4117 40.1398L28.425 39.4178L30.1682 38.9533L31.6796 39.1657L33.0257 39.91L33.7624 40.6848L34.4582 42.0701L34.6694 43.4256L34.5344 44.9994L33.688 46.2317L32.63 47.2096L31.4264 47.7588L29.9447 47.8973L28.2737 47.3878L27.316 46.665L26.5157 45.5689L26.0691 44.2345L26.0703 42.4603L26.6648 41.2094L27.4117 40.1398Z" fill="#3C1981"/>
</g>
</g>
<defs>
<clipPath id="clip0_848_94">
<rect width="53.574" height="82.9051" fill="white" transform="translate(7.08838) rotate(4.90475)"/>
</clipPath>
<clipPath id="clip1_848_94">
<rect width="35.0177" height="19.155" fill="white" transform="translate(13.6201 32.4023) rotate(4.90475)"/>
</clipPath>
</defs>
</svg>
