<svg width="74" height="90" viewBox="0 0 74 90" fill="none" xmlns="http://www.w3.org/2000/svg">
<g clip-path="url(#clip0_848_67)">
<path d="M3.8258 15.9171L1.6128 21.6848L24.3347 82.9545L31.9271 87.7831L66.3475 75.0182L70.2012 63.2475L49.0913 6.32469L42.496 1.57623L3.8258 15.9171Z" fill="#FFE250"/>
<g clip-path="url(#clip1_848_67)">
<path d="M21.3045 49.9515L23.0996 45.7911L27.7068 40.2053L31.5922 37.109L35.8266 35.5387L40.7913 35.3529L44.491 36.0246L48.4879 37.3685L52.0257 39.0695L51.3518 42.1893L49.4961 45.6774L46.9414 48.3211L44.9527 50.4629L40.4772 52.8262L37.1862 54.0467L32.5179 54.7736L28.7841 53.9949L25.0189 52.6527L21.3045 49.9515Z" fill="#F9F1C6"/>
<path d="M29.7094 41.8309L31.8966 38.652L34.0939 37.3612L36.6123 36.9061L38.2884 37.0961L41.3257 38.5565L42.6143 39.8362L43.5983 41.4186L44.3408 44.1271L44.1742 46.6325L43.5086 48.453L41.8754 50.5739L39.9044 51.8596L37.9308 52.5915L35.3295 52.2687L33.2854 51.4735L31.3837 49.9687L30.1117 48.1339L29.4797 46.4297L29.2607 43.6439L29.7094 41.8309Z" fill="#B99ED1"/>
<path d="M33.0416 43.0534L33.6079 42.0435L34.8907 40.9604L36.2471 40.5392L37.6756 40.6313L38.6033 40.9909L39.7389 41.8806L40.4548 42.9377L40.9659 44.3159L40.7428 45.6891L40.2405 46.9323L39.4455 47.8724L38.2534 48.5772L36.6447 48.8118L35.5516 48.5836L34.4428 47.9788L33.5372 47.0329L32.8339 45.5391L32.8376 44.2502L33.0416 43.0534Z" fill="#3C1981"/>
</g>
</g>
<defs>
<clipPath id="clip0_848_67">
<rect width="49.8569" height="77.1528" fill="white" transform="translate(0 17.3359) rotate(-20.3474)"/>
</clipPath>
<clipPath id="clip1_848_67">
<rect width="32.588" height="17.8259" fill="white" transform="translate(18.3615 42.0156) rotate(-20.3474)"/>
</clipPath>
</defs>
</svg>
