<svg width="81" height="133" viewBox="0 0 81 133" fill="none" xmlns="http://www.w3.org/2000/svg">
<path d="M-1.52588e-05 7.96794L6.5876 0H73.2165L80.5367 11.592V115.91L68.0889 132.576H8.78516L-1.52588e-05 120.259V7.96794Z" fill="#3C1981"/>
<g clip-path="url(#clip0_798_282)">
<path d="M12.6696 65.9641L17.7706 60.4068L28.0734 54.1493L35.8777 51.4101L43.3948 51.2609L51.3016 53.6885L56.7499 56.7711L62.2971 61.0733L66.927 65.6854L64.1585 70.221L59.3305 74.6879L53.8661 77.4446L49.5664 79.7223L41.2359 80.9861L35.3936 81.102L27.6564 79.6875L22.2132 76.4179L17.0291 72.2452L12.6696 65.9641Z" fill="#F9F1C6"/>
<path d="M30.3314 57.8008L35.5113 54.0014L39.6727 53.1759L43.8813 53.8399L46.4121 55.0569L50.387 59.0165L51.7118 61.7342L52.3919 64.761L52.0755 69.4256L50.4411 73.2732L48.3974 75.7705L44.6682 78.2101L40.8652 79.1516L37.3617 79.2211L33.449 77.2886L30.671 74.9188L28.5057 71.5113L27.5112 67.9301L27.4512 64.9047L28.6328 60.4052L30.3314 57.8008Z" fill="#3C1981"/>
<path d="M34.9002 61.5489L36.3437 60.2713L38.9537 59.2715L41.3168 59.3522L43.5121 60.2795L44.7735 61.353L46.0713 63.3738L46.6178 65.4278L46.6664 67.8746L45.5634 69.9111L44.0927 71.5903L42.3279 72.6327L40.0677 73.0877L37.4101 72.5752L35.8168 71.6178L34.405 70.0595L33.4993 68.0765L33.212 65.3428L33.9239 63.3185L34.9002 61.5489Z" fill="#101340"/>
</g>
<defs>
<clipPath id="clip0_798_282">
<rect width="54.2523" height="29.6765" fill="white" transform="translate(12.3901 51.876) rotate(-1.13643)"/>
</clipPath>
</defs>
</svg>
