<svg width="154" height="235" viewBox="0 0 154 235" fill="none" xmlns="http://www.w3.org/2000/svg">
<g filter="url(#filter0_d_978_81)">
<path d="M15.9874 0.904297L4.07642 14.4439L4.07642 205.196L19.9553 226.118H127.117L149.612 197.814V20.5946L136.381 0.904297L15.9874 0.904297Z" fill="#B99ED1"/>
<path d="M28.6377 112.692L37.7734 103.128L56.0524 92.516L69.8291 87.9854H83.0122L96.7889 92.516L106.233 98.1095L115.808 105.844L123.764 114.091L118.753 121.946L110.134 129.609L100.459 134.251L92.8417 138.095L78.1938 140.02H67.948L54.4334 137.272L45.0048 131.351L36.0619 123.855L28.6377 112.692Z" fill="#F9F1C6"/>
<path d="M59.884 98.9948L69.0968 92.5144L76.4207 91.2119L83.7755 92.5224L88.1699 94.7438L95.0004 101.823L97.2284 106.634L98.3154 111.964L97.5985 120.13L94.5995 126.818L90.9298 131.125L84.3074 135.272L77.608 136.79H71.4636L64.6716 133.267L59.884 129.016L56.2066 122.967L54.5876 116.654V111.348L56.8157 103.502L59.884 98.9948Z" fill="#B99ED1"/>
<path d="M67.7629 105.725L70.3378 103.535L74.948 101.873L79.088 102.097L82.9042 103.799L85.0782 105.725L87.2831 109.312L88.1697 112.932V117.223L86.1652 120.755L83.5286 123.648L80.3986 125.413L76.4205 126.133L71.7795 125.142L69.0195 123.408L66.5987 120.627L65.08 117.119L64.6714 112.317L65.9897 108.793L67.7629 105.725Z" fill="#3C1981"/>
</g>
<defs>
<filter id="filter0_d_978_81" x="0.076416" y="0.904297" width="153.535" height="233.214" filterUnits="userSpaceOnUse" color-interpolation-filters="sRGB">
<feFlood flood-opacity="0" result="BackgroundImageFix"/>
<feColorMatrix in="SourceAlpha" type="matrix" values="0 0 0 0 0 0 0 0 0 0 0 0 0 0 0 0 0 0 127 0" result="hardAlpha"/>
<feOffset dy="4"/>
<feGaussianBlur stdDeviation="2"/>
<feComposite in2="hardAlpha" operator="out"/>
<feColorMatrix type="matrix" values="0 0 0 0 0 0 0 0 0 0 0 0 0 0 0 0 0 0 0.25 0"/>
<feBlend mode="normal" in2="BackgroundImageFix" result="effect1_dropShadow_978_81"/>
<feBlend mode="normal" in="SourceGraphic" in2="effect1_dropShadow_978_81" result="shape"/>
</filter>
</defs>
</svg>
