<svg width="154" height="235" viewBox="0 0 154 235" fill="none" xmlns="http://www.w3.org/2000/svg">
<g filter="url(#filter0_d_983_661)">
<path d="M16.1693 0.927734L4.2583 14.4673L4.2583 205.22L20.1372 226.142H127.299L149.794 197.838V20.6181L136.563 0.927734L16.1693 0.927734Z" fill="#B99ED1"/>
<path d="M28.8196 112.716L37.9552 103.151L56.2343 92.5395L70.011 88.0088H83.1941L96.9708 92.5395L106.415 98.1329L115.99 105.868L123.946 114.114L118.935 121.969L110.316 129.632L100.64 134.275L93.0236 138.118L78.3757 140.044H68.1299L54.6153 137.295L45.1867 131.374L36.2437 123.879L28.8196 112.716Z" fill="#F9F1C6"/>
<path d="M60.0659 99.0182L69.2786 92.5378L76.6026 91.2354L83.9574 92.5458L88.3517 94.7672L95.1823 101.847L97.4103 106.657L98.4973 111.987L97.7804 120.153L94.7814 126.842L91.1117 131.149L84.4893 135.296L77.7898 136.814H71.6454L64.8534 133.29L60.0659 129.039L56.3885 122.99L54.7695 116.678V111.372L56.9976 103.525L60.0659 99.0182Z" fill="#B99ED1"/>
<path d="M67.9447 105.748L70.5197 103.559L75.1299 101.896L79.2699 102.12L83.086 103.822L85.2601 105.748L87.465 109.336L88.3516 112.956V117.246L86.3471 120.778L83.7105 123.671L80.5805 125.437L76.6024 126.156L71.9613 125.165L69.2014 123.431L66.7806 120.65L65.2619 117.143L64.8533 112.34L66.1716 108.816L67.9447 105.748Z" fill="#3C1981"/>
</g>
<defs>
<filter id="filter0_d_983_661" x="0.258301" y="0.927734" width="153.535" height="233.214" filterUnits="userSpaceOnUse" color-interpolation-filters="sRGB">
<feFlood flood-opacity="0" result="BackgroundImageFix"/>
<feColorMatrix in="SourceAlpha" type="matrix" values="0 0 0 0 0 0 0 0 0 0 0 0 0 0 0 0 0 0 127 0" result="hardAlpha"/>
<feOffset dy="4"/>
<feGaussianBlur stdDeviation="2"/>
<feComposite in2="hardAlpha" operator="out"/>
<feColorMatrix type="matrix" values="0 0 0 0 0 0 0 0 0 0 0 0 0 0 0 0 0 0 0.25 0"/>
<feBlend mode="normal" in2="BackgroundImageFix" result="effect1_dropShadow_983_661"/>
<feBlend mode="normal" in="SourceGraphic" in2="effect1_dropShadow_983_661" result="shape"/>
</filter>
</defs>
</svg>
