<svg width="103" height="170" viewBox="0 0 103 170" fill="none" xmlns="http://www.w3.org/2000/svg">
<g filter="url(#filter0_d_1020_629)">
<path d="M4.01733 10.1727L11.7143 0.480469H89.513L98.063 14.5757V141.438L83.527 161.699H14.2783L4.01733 146.722V10.1727Z" fill="#FAF2C7"/>
<path d="M21.1222 151.376V147.423H19.7856V146.499H23.6578V147.423H22.3165V151.376H21.1222Z" fill="#290066"/>
<path d="M24.3734 151.376V146.499H25.5678V148.414H27.1271V146.499H28.3119V151.376H27.1318V149.357H25.5725V151.376H24.3734Z" fill="#290066"/>
<path d="M29.3831 151.376V146.499H32.8666L32.7481 147.409H30.5584V148.447H32.6059V149.328H30.5584V150.466H32.7623L32.8903 151.376H29.3878H29.3831Z" fill="#290066"/>
<path d="M35.1796 151.376V146.499H36.3739V148.414H37.9332V146.499H39.1181V151.376H37.9379V149.357H36.3787V151.376H35.1796Z" fill="#290066"/>
<path d="M39.6772 151.376L41.4214 146.499H42.8574L44.5921 151.376H43.3551L43.0091 150.409H41.1749L40.8337 151.376H39.682H39.6772ZM41.4546 149.57H42.72L42.1086 147.727H42.0754L41.4546 149.57Z" fill="#290066"/>
<path d="M45.1515 151.376V146.499H46.1468L47.725 148.831L47.9715 149.267L47.9999 149.253V146.504H49.0853V151.381H48.0615L46.4359 148.973L46.2653 148.655H46.2368V151.385H45.1515V151.376Z" fill="#290066"/>
<path d="M51.9479 151.447C51.6635 151.447 51.4029 151.395 51.1564 151.295C50.9147 151.196 50.7062 151.053 50.5261 150.859C50.346 150.669 50.2085 150.437 50.1137 150.162C50.0189 149.887 49.9668 149.575 49.9668 149.233V148.636C49.9668 148.285 50.0189 147.973 50.1232 147.703C50.2275 147.432 50.3744 147.2 50.5687 147.011C50.763 146.821 50.9858 146.674 51.2512 146.575C51.5119 146.475 51.801 146.423 52.109 146.423H52.2655C52.5309 146.423 52.7773 146.466 53.0143 146.546C53.2513 146.627 53.4503 146.745 53.6257 146.897C53.801 147.048 53.9385 147.238 54.038 147.461C54.1375 147.684 54.1897 147.939 54.1897 148.229H53.0854C53.0854 148.011 53.0475 147.835 52.9669 147.703C52.8863 147.57 52.7821 147.475 52.6399 147.409C52.5024 147.347 52.3365 147.319 52.1517 147.319C52.0143 147.319 51.891 147.338 51.7773 147.38C51.6683 147.418 51.5687 147.484 51.4882 147.575C51.4029 147.665 51.3413 147.774 51.2939 147.911C51.2465 148.049 51.2275 148.205 51.2275 148.39V149.485C51.2275 149.669 51.2512 149.831 51.2939 149.959C51.3365 150.091 51.4029 150.2 51.4882 150.29C51.5687 150.376 51.6683 150.442 51.7773 150.485C51.891 150.527 52.0143 150.546 52.1517 150.546C52.2891 150.546 52.4171 150.532 52.5309 150.499C52.6493 150.47 52.7489 150.418 52.8294 150.352C52.91 150.286 52.9764 150.195 53.019 150.082C53.0664 149.973 53.0854 149.831 53.0854 149.665V149.494H52.0332V148.703H54.1802V150.395C54.1802 150.622 54.1802 150.807 54.1944 150.954C54.2039 151.101 54.2134 151.238 54.2323 151.371H53.583L53.4029 150.812C53.256 151.006 53.0522 151.158 52.7963 151.271C52.5403 151.385 52.2702 151.442 51.9953 151.442H51.9384L51.9479 151.447Z" fill="#290066"/>
<path d="M55.1565 151.376V146.499H58.64L58.5215 147.409H56.3319V148.447H58.3793V149.328H56.3319V150.466H58.5357L58.6637 151.376H55.1612H55.1565Z" fill="#290066"/>
<path d="M59.4789 151.376V146.499H61.4979C61.787 146.499 62.0572 146.546 62.3036 146.636C62.5548 146.727 62.7728 146.864 62.9671 147.039C63.1567 147.219 63.3084 147.437 63.4127 147.703C63.5217 147.964 63.5738 148.267 63.5738 148.608V149.139C63.5738 149.48 63.5217 149.788 63.4127 150.058C63.3084 150.333 63.1567 150.566 62.9671 150.765C62.7728 150.964 62.5548 151.111 62.3036 151.215C62.0572 151.319 61.787 151.371 61.4979 151.371H59.4789V151.376ZM60.6732 150.466H61.3984C61.569 150.466 61.7254 150.428 61.8628 150.347C62.0003 150.267 62.114 150.148 62.1946 149.987C62.2752 149.826 62.3131 149.632 62.3131 149.395V148.409C62.3131 148.172 62.2752 147.978 62.1946 147.831C62.114 147.684 62.005 147.575 61.8628 147.504C61.7254 147.433 61.569 147.395 61.3984 147.395H60.6732V150.466Z" fill="#290066"/>
<path d="M65.9246 151.376V146.499H67.8583L68.8962 149.594H68.9247L69.9579 146.499H71.8963V151.376H70.7162V147.878H70.6783L69.5218 151.376H68.1853L67.0336 147.878H66.9957V151.376H65.9246Z" fill="#290066"/>
<path d="M72.4651 151.376L74.2092 146.499H75.6453L77.3799 151.376H76.1429L75.7969 150.409H73.9628L73.6215 151.376H72.4698H72.4651ZM74.2424 149.57H75.5078L74.8964 147.727H74.8633L74.2424 149.57Z" fill="#290066"/>
<path d="M77.9392 151.376V146.499H78.9345L80.5127 148.831L80.7592 149.267L80.7876 149.253V146.504H81.873V151.381H80.8493L79.2236 148.973L79.053 148.655H79.0245V151.385H77.9392V151.376Z" fill="#290066"/>
<path d="M95.9255 144.415H4.01733V144.652H95.7549L95.9255 144.415Z" fill="#290066"/>
<path d="M88.6125 154.604H9.42041L9.58155 154.841H88.4419L88.6125 154.604Z" fill="#290066"/>
<path d="M41.6631 33.4104L59.2372 31.5146L58.9765 92.6493L69.8015 105.645V108.991L67.8346 109.778L58.3841 101.313L55.4314 122.38H52.872L51.4928 105.645L49.7203 122.38H45.5827L46.5685 108.005L44.2083 119.622L41.8432 119.034L42.8291 107.219L39.8764 115.489L37.5114 114.309L39.8764 102.1L42.8291 94.0238L41.6631 33.4104Z" fill="#BA9ED1"/>
<path d="M40.9285 85.6306L41.4877 87.1946L60.2182 86.4126V85.1377L40.9285 85.6306Z" fill="#290066"/>
<path d="M41.6822 83.1274L59.6212 79.3026V78.2979L41.3694 81.9994L41.6822 83.1274Z" fill="#290066"/>
<path d="M41.6822 73.6811L59.6212 69.8563V68.8516L41.3694 72.5531L41.6822 73.6811Z" fill="#290066"/>
<path d="M41.6488 77.5544L59.6209 75.8529L59.493 75.3174L41.6488 76.9572V77.5544Z" fill="#290066"/>
<path d="M41.6489 73.1645L39.355 26.5469H40.5019L42.1892 73.1645H41.6489Z" fill="#290066"/>
</g>
<defs>
<filter id="filter0_d_1020_629" x="0.017334" y="0.480469" width="102.046" height="169.219" filterUnits="userSpaceOnUse" color-interpolation-filters="sRGB">
<feFlood flood-opacity="0" result="BackgroundImageFix"/>
<feColorMatrix in="SourceAlpha" type="matrix" values="0 0 0 0 0 0 0 0 0 0 0 0 0 0 0 0 0 0 127 0" result="hardAlpha"/>
<feOffset dy="4"/>
<feGaussianBlur stdDeviation="2"/>
<feComposite in2="hardAlpha" operator="out"/>
<feColorMatrix type="matrix" values="0 0 0 0 0 0 0 0 0 0 0 0 0 0 0 0 0 0 0.25 0"/>
<feBlend mode="normal" in2="BackgroundImageFix" result="effect1_dropShadow_1020_629"/>
<feBlend mode="normal" in="SourceGraphic" in2="effect1_dropShadow_1020_629" result="shape"/>
</filter>
</defs>
</svg>
