<svg width="103" height="170" viewBox="0 0 103 170" fill="none" xmlns="http://www.w3.org/2000/svg">
<g filter="url(#filter0_d_1020_684)">
<path d="M11.8395 0.645508L4.14258 10.3378V146.887L14.4036 161.864H83.6522L98.1883 141.598V14.7407L89.6382 0.645508H11.8395Z" fill="#FAF2C7"/>
<path d="M42.7219 29.2926L51.4663 13.0029L49.4757 24.9227L59.6087 24.1265L45.504 41.3309L47.4898 30.4822L42.7219 29.2926Z" fill="#FFE34F"/>
<path d="M67.3436 112.712L69.3389 126.67L33.7643 125.286V63.862H29.7737L28.0864 53.0464L38.0583 51.9943L38.9778 57.0655H46.3382V50.6104L56.457 51.9943L57.2201 57.0655H64.1255L63.5141 51.9943H73.1732L74.2443 63.862H67.6943L68.4147 96.6166L67.3436 112.712Z" fill="#BA9ED1"/>
<path d="M46.2481 85.0898H33.7595V86.9288H46.2481V85.0898Z" fill="#290066"/>
<path d="M67.9551 75.6622L55.4381 75.7238V73.8896H67.9267L67.9551 75.6622Z" fill="#290066"/>
<path d="M68.0261 78.9156H59.4144V77.9961H68.0071L68.0261 78.9156Z" fill="#290066"/>
<path d="M41.6699 90.8482H33.7644V89.9287H41.6509L41.6699 90.8482Z" fill="#290066"/>
<path d="M46.2481 100.098H33.7595V101.937H46.2481V100.098Z" fill="#290066"/>
<path d="M41.6699 105.854H33.7644V104.939H41.6509L41.6699 105.854Z" fill="#290066"/>
<path d="M32.3282 151.538V147.585H30.9917V146.661H34.8686V147.585H33.5273V151.538H32.333H32.3282Z" fill="#290066"/>
<path d="M35.5795 151.538V146.661H36.7738V148.576H38.3331V146.661H39.518V151.538H38.3379V149.519H36.7833V151.538H35.5795Z" fill="#290066"/>
<path d="M40.5891 151.538V146.661H44.0726L43.9541 147.571H41.7645V148.609H43.812V149.491H41.7645V150.628H43.9684L44.0963 151.538H40.5891Z" fill="#290066"/>
<path d="M47.3572 151.538V147.585H46.0206V146.661H49.8975V147.585H48.5563V151.538H47.3619H47.3572Z" fill="#290066"/>
<path d="M52.4569 151.609C52.1726 151.609 51.9071 151.557 51.6559 151.457C51.4048 151.358 51.1867 151.216 50.9972 151.021C50.8076 150.832 50.6607 150.6 50.5516 150.325C50.4426 150.05 50.3905 149.737 50.3905 149.396V148.803C50.3905 148.457 50.4426 148.149 50.5516 147.874C50.6559 147.6 50.8076 147.367 50.9972 147.178C51.1867 146.988 51.4048 146.841 51.6559 146.742C51.9071 146.642 52.1726 146.595 52.4569 146.595H52.7508C53.0351 146.595 53.3005 146.642 53.5517 146.742C53.8029 146.841 54.021 146.988 54.2105 147.178C54.4001 147.367 54.547 147.6 54.656 147.874C54.7651 148.149 54.8172 148.457 54.8172 148.803V149.396C54.8172 149.742 54.7651 150.05 54.656 150.325C54.5518 150.6 54.4001 150.832 54.2105 151.021C54.021 151.211 53.8029 151.358 53.5517 151.457C53.3005 151.557 53.0351 151.609 52.7508 151.609H52.4569ZM52.5991 150.713C52.7365 150.713 52.8598 150.694 52.9735 150.652C53.0873 150.609 53.1868 150.543 53.2768 150.457C53.3669 150.367 53.4333 150.258 53.4806 150.126C53.528 149.993 53.5517 149.837 53.5517 149.652V148.566C53.5517 148.382 53.528 148.225 53.4806 148.092C53.4333 147.96 53.3669 147.851 53.2768 147.761C53.1868 147.671 53.0873 147.609 52.9735 147.566C52.8598 147.524 52.7365 147.505 52.6038 147.505C52.4711 147.505 52.3479 147.524 52.2294 147.566C52.1109 147.609 52.0114 147.675 51.9214 147.761C51.8313 147.846 51.765 147.96 51.7176 148.092C51.6702 148.225 51.6465 148.386 51.6465 148.566V149.652C51.6465 149.837 51.6702 149.998 51.7176 150.126C51.765 150.258 51.8313 150.367 51.9214 150.457C52.0114 150.547 52.1109 150.609 52.2247 150.652C52.3384 150.694 52.4617 150.713 52.5944 150.713H52.5991Z" fill="#290066"/>
<path d="M56.6228 151.538L55.2626 146.661H56.4948L57.3195 149.761H57.3479L58.1868 146.661H59.3907L60.2153 149.761H60.2438L61.0684 146.661H62.1775L60.8267 151.538H59.5186L58.7603 148.699H58.7177L57.9593 151.538H56.6323H56.6228Z" fill="#290066"/>
<path d="M62.822 151.538V146.661H66.3055L66.1871 147.571H63.9974V148.609H66.0449V149.491H63.9974V150.628H66.2013L66.3292 151.538H62.822Z" fill="#290066"/>
<path d="M70.6282 151.595C70.4528 151.595 70.3012 151.567 70.1684 151.514C70.0405 151.462 69.9362 151.367 69.8651 151.235C69.7893 151.102 69.7561 150.917 69.7561 150.68C69.7561 150.538 69.7419 150.405 69.7135 150.287C69.685 150.168 69.6424 150.059 69.5855 149.969C69.5286 149.879 69.4575 149.808 69.3675 149.756C69.2774 149.704 69.1684 149.675 69.0404 149.675H68.3201V151.538H67.1447V146.661H69.6898C69.922 146.661 70.14 146.709 70.3391 146.808C70.5381 146.908 70.704 147.045 70.832 147.225C70.9599 147.405 71.0216 147.623 71.0216 147.879C71.0216 148.088 70.9836 148.277 70.9031 148.448C70.8225 148.619 70.7182 148.765 70.5855 148.889C70.4528 149.012 70.3106 149.107 70.1542 149.164V149.202C70.2538 149.23 70.3486 149.277 70.4433 149.339C70.5334 149.401 70.6187 149.486 70.6898 149.581C70.7609 149.68 70.8178 149.789 70.8652 149.917C70.9078 150.045 70.9315 150.187 70.9315 150.344C70.9315 150.457 70.9315 150.562 70.9457 150.661C70.9599 150.761 70.9742 150.851 70.9931 150.927C71.0168 151.007 71.0547 151.069 71.1021 151.121C71.1495 151.173 71.2159 151.211 71.2917 151.235V151.481C71.1969 151.519 71.0879 151.548 70.9694 151.562C70.8509 151.576 70.7325 151.585 70.6234 151.585L70.6282 151.595ZM68.3153 148.789H69.2916C69.3912 148.789 69.4812 148.756 69.5618 148.694C69.6424 148.633 69.704 148.547 69.7514 148.443C69.7988 148.339 69.8225 148.225 69.8225 148.102C69.8225 147.927 69.7751 147.794 69.6708 147.699C69.5713 147.604 69.448 147.562 69.3011 147.562H68.3153V148.794V148.789Z" fill="#290066"/>
<path d="M96.0508 144.58H4.14258V144.817H95.8801L96.0508 144.58Z" fill="#290066"/>
<path d="M88.7377 154.771H9.54553L9.70667 155.007H88.567L88.7377 154.771Z" fill="#290066"/>
</g>
<defs>
<filter id="filter0_d_1020_684" x="0.142578" y="0.645508" width="102.046" height="169.219" filterUnits="userSpaceOnUse" color-interpolation-filters="sRGB">
<feFlood flood-opacity="0" result="BackgroundImageFix"/>
<feColorMatrix in="SourceAlpha" type="matrix" values="0 0 0 0 0 0 0 0 0 0 0 0 0 0 0 0 0 0 127 0" result="hardAlpha"/>
<feOffset dy="4"/>
<feGaussianBlur stdDeviation="2"/>
<feComposite in2="hardAlpha" operator="out"/>
<feColorMatrix type="matrix" values="0 0 0 0 0 0 0 0 0 0 0 0 0 0 0 0 0 0 0.25 0"/>
<feBlend mode="normal" in2="BackgroundImageFix" result="effect1_dropShadow_1020_684"/>
<feBlend mode="normal" in="SourceGraphic" in2="effect1_dropShadow_1020_684" result="shape"/>
</filter>
</defs>
</svg>
