<svg width="103" height="170" viewBox="0 0 103 170" fill="none" xmlns="http://www.w3.org/2000/svg">
<g filter="url(#filter0_d_1020_508)">
<path d="M12.492 0.0322266L4.7843 9.73803V146.478L15.0596 161.476H84.4051L98.9614 141.182V14.1472L90.3994 0.0322266H12.492Z" fill="#FAF2C7"/>
<path d="M28.1873 32.7087L28.1968 27.7348L30.0905 30.4923L37.6842 26.5957L33.6833 33.5772L38.8091 37.5213L31.2105 35.3001L29.3073 44.3035L28.2632 37.2507L21.3766 35.6893L28.1873 32.7087Z" fill="#290066"/>
<path d="M76.4032 32.1724L79.1369 23.4443L80.6842 29.6285L86.5409 25.5896L80.8455 33.5583L89.4787 33.7719L81.5669 36.1924L78.3918 42.7895L77.8033 35.9456L69.3837 36.8094L76.4032 32.1724Z" fill="#BA9ED1"/>
<path d="M68.4392 123.688L71.0923 115.212L72.5968 121.22L78.2826 117.295L72.7534 125.036L81.135 125.245L73.4511 127.595L70.3709 133.997L69.8013 127.352L61.6238 128.188L68.4392 123.688Z" fill="#FFE34F"/>
<path d="M50.1523 110.699L19.6823 77.0253L20.9684 62.5971L33.3131 53.9354L43.6596 60.6702L50.1523 68.8477L62.9004 50.8125H69.151L77.5801 58.748L84.0633 68.3684L80.6129 82.004L66.5074 94.1018L56.1656 104.928L50.1523 110.699Z" fill="#BA9ED1"/>
<path d="M50.831 98.8982L32.3639 78.4946L33.1423 69.7475L40.6269 64.5031L46.8917 68.5847L50.831 73.5397L58.5529 62.6094H62.3451L67.4519 67.4172L71.3769 73.2454L69.2887 81.5084L60.7409 88.8411L54.4713 95.4003L50.831 98.8982Z" fill="#290066"/>
<path d="M51.3721 89.4964L42.4779 79.6672L42.8528 75.4527L46.4552 72.923L49.4737 74.8926L51.3721 77.2799L55.0931 72.0117H56.9156L59.3788 74.3278L61.2678 77.1375L60.2616 81.1195L56.142 84.6506L53.1234 87.8115L51.3721 89.4964Z" fill="#FFE34F"/>
<path d="M32.9999 151.134V147.175H31.6615V146.25H35.5391V147.175H34.1959V151.134H32.9999Z" fill="#290066"/>
<path d="M36.2461 151.134V146.25H37.4421V148.167H39.0036V146.25H40.1901V151.134H39.0083V149.112H37.4469V151.134H36.2461Z" fill="#290066"/>
<path d="M41.2723 151.134V146.25H44.7607L44.6421 147.161H42.4494V148.201H44.4997V149.083H42.4494V150.223H44.6563L44.7845 151.134H41.2771H41.2723Z" fill="#290066"/>
<path d="M48.0498 151.134V147.175H46.7114V146.25H50.589V147.175H49.2459V151.134H48.0498Z" fill="#290066"/>
<path d="M53.1518 151.206C52.8671 151.206 52.6013 151.154 52.3497 151.054C52.0982 150.954 51.8799 150.812 51.69 150.617C51.5002 150.428 51.353 150.195 51.2439 149.92C51.1347 149.644 51.0825 149.331 51.0825 148.99V148.396C51.0825 148.05 51.1347 147.741 51.2439 147.466C51.3483 147.191 51.5002 146.958 51.69 146.768C51.8799 146.579 52.0982 146.431 52.3497 146.332C52.5965 146.232 52.8671 146.185 53.1518 146.185H53.4413C53.7261 146.185 53.9919 146.232 54.2434 146.332C54.495 146.431 54.7133 146.579 54.9031 146.768C55.093 146.958 55.2401 147.191 55.3493 147.466C55.4584 147.741 55.5106 148.05 55.5106 148.396V148.99C55.5106 149.336 55.4584 149.644 55.3493 149.92C55.2449 150.195 55.093 150.428 54.9031 150.617C54.7133 150.807 54.495 150.954 54.2434 151.054C53.9966 151.154 53.7261 151.206 53.4413 151.206H53.1518ZM53.2942 150.309C53.4318 150.309 53.5552 150.29 53.6692 150.247C53.7831 150.205 53.8827 150.138 53.9729 150.053C54.0583 149.962 54.1295 149.853 54.177 149.72C54.2244 149.588 54.2482 149.431 54.2482 149.246V148.159C54.2482 147.974 54.2244 147.817 54.177 147.684C54.1295 147.551 54.0631 147.442 53.9729 147.352C53.8827 147.262 53.7831 147.2 53.6692 147.158C53.5552 147.115 53.4318 147.096 53.299 147.096C53.1661 147.096 53.0427 147.115 52.924 147.158C52.8054 147.2 52.7057 147.267 52.6155 147.352C52.5253 147.438 52.4589 147.551 52.4114 147.684C52.364 147.817 52.3402 147.979 52.3402 148.159V149.246C52.3402 149.431 52.364 149.592 52.4114 149.72C52.4589 149.853 52.5253 149.962 52.6155 150.053C52.7057 150.138 52.8054 150.205 52.9193 150.247C53.0332 150.29 53.1566 150.309 53.2895 150.309H53.2942Z" fill="#290066"/>
<path d="M57.3236 151.134L55.9662 146.25H57.1954L58.0213 149.354H58.0497L58.8898 146.25H60.0906L60.9164 149.354H60.9449L61.7707 146.25H62.8813L61.5286 151.134H60.2187L59.4546 148.291H59.4119L58.6525 151.134H57.3188H57.3236Z" fill="#290066"/>
<path d="M63.5315 151.134V146.25H67.0199L66.9012 147.161H64.7085V148.201H66.7589V149.083H64.7085V150.223H66.9155L67.0436 151.134H63.5362H63.5315Z" fill="#290066"/>
<path d="M71.3484 151.191C71.1728 151.191 71.0209 151.162 70.888 151.11C70.7551 151.058 70.6555 150.963 70.5843 150.83C70.5083 150.697 70.4751 150.512 70.4751 150.275C70.4751 150.132 70.4609 149.999 70.4324 149.881C70.4039 149.762 70.3612 149.653 70.3043 149.563C70.2473 149.473 70.1714 149.401 70.0859 149.349C69.9958 149.297 69.8866 149.269 69.7585 149.269H69.0418V151.134H67.8695V146.25H70.4182C70.6507 146.25 70.8691 146.297 71.0684 146.397C71.2677 146.497 71.4338 146.634 71.562 146.815C71.6901 146.995 71.7566 147.213 71.7566 147.47C71.7566 147.679 71.7186 147.868 71.6379 148.039C71.5572 148.21 71.4528 148.357 71.3199 148.481C71.1918 148.604 71.0447 148.699 70.888 148.756V148.794C70.9877 148.822 71.0826 148.87 71.1775 148.932C71.2725 148.993 71.3532 149.079 71.4243 149.174C71.4955 149.273 71.5525 149.382 71.6 149.511C71.6427 149.639 71.6664 149.781 71.6664 149.938C71.6664 150.052 71.6711 150.156 71.6806 150.256C71.6901 150.355 71.7044 150.446 71.7328 150.522C71.7566 150.602 71.7945 150.664 71.842 150.716C71.8895 150.768 71.9559 150.806 72.0319 150.83V151.077C71.9369 151.115 71.8278 151.143 71.7139 151.157C71.5952 151.176 71.4766 151.181 71.3626 151.181L71.3484 151.191ZM69.0371 148.381H70.01C70.1097 148.381 70.1998 148.348 70.2805 148.286C70.3612 148.224 70.4229 148.139 70.4751 148.035C70.5226 147.93 70.5463 147.816 70.5463 147.693C70.5463 147.517 70.4989 147.384 70.3992 147.289C70.2995 147.194 70.1761 147.152 70.029 147.152H69.0418V148.386L69.0371 148.381Z" fill="#290066"/>
<path d="M96.8209 144.166H4.7843V144.403H96.6501L96.8209 144.166Z" fill="#290066"/>
<path d="M89.4975 154.372H10.1947L10.3561 154.609H89.3267L89.4975 154.372Z" fill="#290066"/>
</g>
<defs>
<filter id="filter0_d_1020_508" x="0.784302" y="0.0322266" width="102.177" height="169.443" filterUnits="userSpaceOnUse" color-interpolation-filters="sRGB">
<feFlood flood-opacity="0" result="BackgroundImageFix"/>
<feColorMatrix in="SourceAlpha" type="matrix" values="0 0 0 0 0 0 0 0 0 0 0 0 0 0 0 0 0 0 127 0" result="hardAlpha"/>
<feOffset dy="4"/>
<feGaussianBlur stdDeviation="2"/>
<feComposite in2="hardAlpha" operator="out"/>
<feColorMatrix type="matrix" values="0 0 0 0 0 0 0 0 0 0 0 0 0 0 0 0 0 0 0.25 0"/>
<feBlend mode="normal" in2="BackgroundImageFix" result="effect1_dropShadow_1020_508"/>
<feBlend mode="normal" in="SourceGraphic" in2="effect1_dropShadow_1020_508" result="shape"/>
</filter>
</defs>
</svg>
