<svg width="103" height="171" viewBox="0 0 103 171" fill="none" xmlns="http://www.w3.org/2000/svg">
<g filter="url(#filter0_d_1020_594)">
<path d="M4.22058 10.5383L11.9239 0.832031H89.84L98.3977 14.9477V141.993L83.8454 162.284H14.4964L4.22058 147.285V10.5383Z" fill="#FAF2C7"/>
<path d="M47.9583 108.058L28.7973 118.144L32.8317 100.995H15.18L28.2942 88.892L12.6597 75.7826L35.8551 73.2575L27.7863 54.5996L45.438 63.6794L53.5068 48.0449L58.5521 66.7028L73.6788 55.6106L68.6381 74.7716L88.8101 74.2685L69.1413 87.8858L88.8101 97.4639L71.1585 99.4811L73.6788 118.144L60.5693 105.03L50.7349 124.195L47.9583 108.058Z" fill="#FFE34F"/>
<path d="M48.8982 100.651L36.197 107.334L38.8739 95.9709H27.1789L35.8647 87.9543L25.5082 79.2685L40.8769 77.5978L35.5325 65.2335L47.2275 71.2472L52.5719 60.8906L55.9133 73.2501L65.9376 65.9028L62.5962 78.5993L75.9619 78.2623L62.9284 87.2851L75.9619 93.6357L64.2669 94.9694L65.9376 107.334L57.247 98.6479L50.735 111.344L48.8982 100.651Z" fill="#BA9ED1"/>
<path d="M49.6765 94.4918L42.3577 98.3411L43.9002 91.7959H37.1604L42.1678 87.1777L36.1969 82.1703L45.0536 81.2115L41.9732 74.0873L48.713 77.5521L51.7934 71.5859L53.7157 78.7055L59.492 74.4717L57.5697 81.7858L65.2683 81.596L57.7596 86.7932L65.2683 90.4479L58.5285 91.2216L59.492 98.3411L54.4893 93.3385L50.735 100.653L49.6765 94.4918Z" fill="#290066"/>
<path d="M63.7114 40.3263H39.9938L37.7583 19.7414L46.259 30.0362L50.7348 17.5059L56.1029 28.9161L63.7114 17.5059V40.3263Z" fill="#FFE34F"/>
<path d="M37.9814 151.605V147.646H36.6429V146.721H40.5255V147.646H39.1822V151.605H37.9862H37.9814Z" fill="#290066"/>
<path d="M41.2373 151.605V146.721H42.4334V148.638H43.9949V146.721H45.1815V151.605H43.9997V149.583H42.4429V151.605H41.2373Z" fill="#290066"/>
<path d="M46.2637 151.605V146.721H49.7522L49.6336 147.632H47.4408V148.671H49.4912V149.554H47.4408V150.693H49.6478L49.776 151.605H46.2637Z" fill="#290066"/>
<path d="M53.7678 151.675C53.4166 151.675 53.0938 151.623 52.7995 151.519C52.5053 151.414 52.2679 151.248 52.0923 151.025C51.9167 150.802 51.8265 150.513 51.8265 150.152V150.076C51.8265 150.052 51.8265 150.024 51.8313 149.995H52.9277C52.9277 149.995 52.9229 150.033 52.9229 150.047V150.109C52.9229 150.237 52.9562 150.351 53.0179 150.446C53.0843 150.546 53.1745 150.622 53.3027 150.674C53.4261 150.726 53.5874 150.755 53.782 150.755C53.9909 150.755 54.157 150.736 54.2851 150.698C54.4133 150.66 54.5035 150.603 54.5604 150.522C54.6174 150.441 54.6459 150.346 54.6459 150.232C54.6459 150.104 54.5984 150 54.4987 149.924C54.3991 149.848 54.2709 149.786 54.1095 149.739C53.9482 149.691 53.7725 149.644 53.5779 149.601C53.3833 149.559 53.1887 149.506 52.9989 149.44C52.8043 149.373 52.6287 149.293 52.4673 149.188C52.3059 149.084 52.1778 148.946 52.0781 148.771C51.9784 148.595 51.9262 148.377 51.9262 148.111C51.9262 147.783 52.0164 147.513 52.1968 147.295C52.3771 147.076 52.6144 146.91 52.9087 146.801C53.203 146.692 53.5257 146.635 53.8817 146.635C54.2377 146.635 54.5415 146.687 54.8262 146.787C55.1063 146.886 55.3341 147.043 55.5002 147.252C55.6663 147.465 55.7518 147.736 55.7518 148.068V148.158H54.6696V148.097C54.6696 147.978 54.6411 147.878 54.5794 147.793C54.5225 147.707 54.4323 147.641 54.3184 147.594C54.1997 147.546 54.0621 147.522 53.8959 147.522C53.7298 147.522 53.5969 147.541 53.4783 147.575C53.3596 147.608 53.2742 147.655 53.2125 147.722C53.1508 147.788 53.1175 147.869 53.1175 147.973C53.1175 148.106 53.165 148.211 53.2694 148.287C53.3691 148.362 53.4973 148.424 53.6586 148.467C53.82 148.514 54.0004 148.557 54.195 148.6C54.3943 148.642 54.5889 148.695 54.7835 148.752C54.9781 148.809 55.1585 148.894 55.3199 148.998C55.486 149.103 55.6141 149.241 55.7138 149.407C55.8087 149.573 55.8609 149.786 55.8609 150.043C55.8609 150.432 55.7708 150.745 55.5856 150.982C55.4005 151.22 55.1537 151.395 54.8357 151.5C54.5177 151.609 54.1617 151.666 53.7583 151.666L53.7678 151.675Z" fill="#290066"/>
<path d="M58.4951 151.676C58.1249 151.676 57.8022 151.605 57.5316 151.467C57.2611 151.329 57.0523 151.14 56.9099 150.893C56.7675 150.646 56.6915 150.361 56.6915 150.029V146.721H57.8781V150.024C57.8781 150.247 57.9493 150.428 58.0964 150.57C58.2388 150.708 58.4287 150.779 58.6613 150.779C58.8938 150.779 59.0789 150.708 59.2261 150.57C59.3685 150.432 59.4397 150.247 59.4397 150.024V146.721H60.631V150.029C60.631 150.356 60.5503 150.646 60.3889 150.893C60.2276 151.14 60.0045 151.329 59.715 151.467C59.4254 151.605 59.0979 151.676 58.7277 151.676H58.4951Z" fill="#290066"/>
<path d="M61.6752 151.605V146.721H62.6719L64.2524 149.056L64.4992 149.493L64.5277 149.478V146.725H65.6146V151.609H64.5894L62.9567 149.198L62.7858 148.88H62.7573V151.614H61.6704L61.6752 151.605Z" fill="#290066"/>
<path d="M96.4992 144.637H4.22058V144.874H96.3283L96.4992 144.637Z" fill="#290066"/>
<path d="M89.1756 154.846H9.40369L9.56506 155.083H89.0048L89.1756 154.846Z" fill="#290066"/>
</g>
<defs>
<filter id="filter0_d_1020_594" x="0.220581" y="0.832031" width="102.177" height="169.452" filterUnits="userSpaceOnUse" color-interpolation-filters="sRGB">
<feFlood flood-opacity="0" result="BackgroundImageFix"/>
<feColorMatrix in="SourceAlpha" type="matrix" values="0 0 0 0 0 0 0 0 0 0 0 0 0 0 0 0 0 0 127 0" result="hardAlpha"/>
<feOffset dy="4"/>
<feGaussianBlur stdDeviation="2"/>
<feComposite in2="hardAlpha" operator="out"/>
<feColorMatrix type="matrix" values="0 0 0 0 0 0 0 0 0 0 0 0 0 0 0 0 0 0 0.25 0"/>
<feBlend mode="normal" in2="BackgroundImageFix" result="effect1_dropShadow_1020_594"/>
<feBlend mode="normal" in="SourceGraphic" in2="effect1_dropShadow_1020_594" result="shape"/>
</filter>
</defs>
</svg>
