<svg width="103" height="170" viewBox="0 0 103 170" fill="none" xmlns="http://www.w3.org/2000/svg">
<g filter="url(#filter0_d_1020_574)">
<path d="M4.7843 10.0046L12.492 0.298828H90.3994L98.9614 14.4138V141.453L84.4051 161.743H15.0596L4.7843 146.745V10.0046Z" fill="#FAF2C7"/>
<path d="M28.9562 36.3215L28.9657 30.4506L31.1963 33.7017L40.1617 29.1074L35.4393 37.3419L41.4954 41.9979L32.5252 39.378L30.2756 50.0046L29.0416 41.6846L20.9115 39.8384L28.9562 36.3215Z" fill="#FFE34F"/>
<path d="M72.6869 28.874L75.34 20.3975L76.8445 26.406L82.5303 22.481L77.0011 30.2219L85.3827 30.426L77.6988 32.7801L74.6185 39.1826L74.049 32.5333L65.8715 33.3733L72.6869 28.874Z" fill="#BA9ED1"/>
<path d="M23.071 119.331L15.05 116.493L23.2846 115.316L19.4497 111.144L25.7288 113.066L29.1602 107.969L27.1479 115.586L33.707 119.122L26.3838 118.681L24.2575 126.507L23.071 119.331Z" fill="#290066"/>
<path d="M32.8339 151.063V147.105H31.4955V146.18H35.3778V147.105H34.0347V151.063H32.8386H32.8339Z" fill="#290066"/>
<path d="M36.0803 151.063V146.18H37.2763V148.097H38.8378V146.18H40.0243V151.063H38.8426V149.042H37.2858V151.063H36.0803Z" fill="#290066"/>
<path d="M41.1063 151.063V146.18H44.5947L44.4761 147.091H42.2834V148.13H44.3337V149.013H42.2834V150.152H44.4903L44.6184 151.063H41.1063Z" fill="#290066"/>
<path d="M47.8364 151.063L46.4742 146.18H47.7082L48.5341 149.284H48.5625L49.4026 146.18H50.6081L51.4339 149.284H51.4624L52.2882 146.18H53.3988L52.0462 151.063H50.7363L49.9769 148.221H49.9342L49.1748 151.063H47.8459H47.8364Z" fill="#290066"/>
<path d="M55.9238 151.135C55.639 151.135 55.3732 151.082 55.1217 150.983C54.8702 150.883 54.6518 150.741 54.462 150.546C54.2721 150.356 54.125 150.124 54.0159 149.848C53.9067 149.573 53.8545 149.26 53.8545 148.918V148.325C53.8545 147.979 53.9067 147.67 54.0159 147.395C54.1203 147.119 54.2721 146.887 54.462 146.697C54.6518 146.507 54.8702 146.36 55.1217 146.26C55.3732 146.161 55.639 146.113 55.9238 146.113H56.2181C56.5028 146.113 56.7686 146.161 57.0201 146.26C57.2717 146.36 57.49 146.507 57.6799 146.697C57.8697 146.887 58.0168 147.119 58.126 147.395C58.2352 147.67 58.2874 147.979 58.2874 148.325V148.918C58.2874 149.265 58.2352 149.573 58.126 149.848C58.0216 150.124 57.8697 150.356 57.6799 150.546C57.49 150.736 57.2717 150.883 57.0201 150.983C56.7686 151.082 56.5028 151.135 56.2181 151.135H55.9238ZM56.0662 150.238C56.2038 150.238 56.3272 150.219 56.4411 150.176C56.555 150.133 56.6547 150.067 56.7449 149.981C56.8351 149.891 56.9015 149.782 56.949 149.649C56.9964 149.516 57.0201 149.36 57.0201 149.175V148.088C57.0201 147.903 56.9964 147.746 56.949 147.613C56.9015 147.48 56.8351 147.371 56.7449 147.281C56.6547 147.191 56.555 147.129 56.4411 147.086C56.3272 147.044 56.2038 147.025 56.0709 147.025C55.938 147.025 55.8146 147.044 55.696 147.086C55.5773 147.129 55.4777 147.195 55.3875 147.281C55.2973 147.366 55.2309 147.48 55.1834 147.613C55.1359 147.746 55.1122 147.907 55.1122 148.088V149.175C55.1122 149.36 55.1359 149.521 55.1834 149.649C55.2309 149.782 55.2973 149.891 55.3875 149.981C55.4777 150.072 55.5773 150.133 55.6912 150.176C55.8051 150.219 55.9285 150.238 56.0614 150.238H56.0662Z" fill="#290066"/>
<path d="M62.649 151.12C62.4734 151.12 62.3216 151.092 62.1887 151.04C62.0605 150.987 61.9561 150.893 61.8849 150.76C61.809 150.627 61.7758 150.442 61.7758 150.204C61.7758 150.062 61.7615 149.929 61.733 149.81C61.7046 149.692 61.6618 149.583 61.6049 149.492C61.5479 149.402 61.4767 149.331 61.3866 149.279C61.2964 149.227 61.1872 149.198 61.0591 149.198H60.3377V151.063H59.1606V146.18H61.7093C61.9419 146.18 62.1602 146.227 62.3595 146.327C62.5589 146.426 62.725 146.564 62.8531 146.744C62.9813 146.925 63.043 147.143 63.043 147.399C63.043 147.608 63.005 147.798 62.9243 147.969C62.8436 148.14 62.7392 148.287 62.6063 148.41C62.4734 148.534 62.331 148.629 62.1744 148.686V148.724C62.2741 148.752 62.369 148.8 62.4639 148.861C62.5541 148.923 62.6395 149.008 62.7107 149.103C62.7819 149.203 62.8389 149.312 62.8863 149.44C62.9291 149.568 62.9528 149.711 62.9528 149.867C62.9528 149.981 62.9528 150.086 62.967 150.185C62.9813 150.285 62.9955 150.375 63.0145 150.451C63.0382 150.532 63.0762 150.594 63.1236 150.646C63.1711 150.698 63.2376 150.736 63.3135 150.76V151.006C63.2186 151.044 63.1094 151.073 62.9908 151.087C62.8721 151.101 62.7535 151.111 62.6443 151.111L62.649 151.12ZM60.3377 148.306H61.3154C61.415 148.306 61.5052 148.273 61.5859 148.211C61.6666 148.149 61.7283 148.064 61.7758 147.959C61.8232 147.855 61.8469 147.741 61.8469 147.618C61.8469 147.442 61.7995 147.309 61.6951 147.214C61.5954 147.119 61.472 147.077 61.3249 147.077H60.3377V148.311V148.306Z" fill="#290066"/>
<path d="M64.068 151.063V146.18H65.264V150.124H67.2194L67.3381 151.063H64.0632H64.068Z" fill="#290066"/>
<path d="M67.9692 151.063V146.18H69.9911C70.2806 146.18 70.5511 146.227 70.7979 146.317C71.0495 146.408 71.2678 146.545 71.4624 146.721C71.657 146.901 71.8041 147.119 71.9133 147.385C72.0177 147.646 72.0746 147.95 72.0746 148.292V148.823C72.0746 149.165 72.0224 149.473 71.9133 149.744C71.8041 150.019 71.657 150.252 71.4624 150.451C71.2725 150.651 71.0495 150.798 70.7979 150.902C70.5511 151.006 70.2806 151.059 69.9911 151.059H67.9692V151.063ZM69.1653 150.152H69.8914C70.0623 150.152 70.2189 150.114 70.3565 150.034C70.4942 149.953 70.6081 149.834 70.6888 149.673C70.7694 149.511 70.8074 149.317 70.8074 149.08V148.092C70.8074 147.855 70.7694 147.66 70.6888 147.513C70.6081 147.366 70.4989 147.257 70.3565 147.186C70.2141 147.115 70.0623 147.077 69.8914 147.077H69.1653V150.152Z" fill="#290066"/>
<path d="M97.063 144.098H4.7843V144.335H96.8921L97.063 144.098Z" fill="#290066"/>
<path d="M89.7348 154.306H9.96692L10.1283 154.543H89.5687L89.7348 154.306Z" fill="#290066"/>
<path d="M82.3548 81.7618L81.7046 84.4861H72.0985L71.1208 87.4144H67.7036V90.5089H71.1208L67.5375 94.0875L64.9319 91.1591H62.331L61.8421 93.9261L57.9313 94.7424L55.1644 93.9261V97.9983L60.8644 99.9489L61.5146 103.694H57.9313V105.972L64.4477 105.16L68.6433 108.639L59.7396 111.454H51.358L43.6028 107.657L38.9421 104.932L39.5354 101.088L43.1187 102.716H46.6973L45.7243 98.321L41.3247 96.2042L40.6745 90.5089V88.226L43.4415 88.3921L43.2801 92.3029L47.1861 93.1098L47.8411 89.2037L45.3969 83.3423H41.9797V79.7637L44.5805 78.6199L47.0248 80.9028L50.0385 75.3641L46.3745 72.5971H43.1187V67.7133L46.8634 69.5074L50.9308 72.5971H53.8639L56.9584 70.6417L56.0424 68.0456L55.3257 69.6687H51.9085L53.6978 64.9463L56.0424 62.8296L55.1644 59.0849L53.8639 61.5244L52.0699 59.251L56.18 55.9952L54.5141 54.2011L52.5587 54.8514L49.9531 57.1295L46.8017 53.4702L51.358 52.1318H63.5365L73.9779 56.8779L75.5821 58.4774L74.3766 59.251L76.332 62.5021L74.3766 64.13L77.9599 65.924L77.1436 68.8524L78.7715 71.458H81.0544L79.5878 78.4585L80.7269 81.7618H82.3548Z" fill="#290066"/>
<path d="M56.9583 70.6413L53.8638 72.6014H50.9307L46.8633 69.507L43.1186 67.7129V72.6014H46.3745L50.0385 75.3684L47.0247 80.9071L44.5804 78.6243L41.9796 79.7633V83.3466H45.3968L47.841 89.2034L47.186 93.1141L43.28 92.3026L43.4414 88.3965L40.6744 88.2257V90.5085L41.3246 96.2039L45.7242 98.3254L46.6972 102.716H43.1186L39.5353 101.092L38.942 104.932L36.009 103.219L28.4152 91.9988L26.0421 81.7947L27.4659 70.9545L31.2628 64.4714L41.7043 54.9791L46.8016 53.4746L49.953 57.1339L52.5586 54.8557L54.514 54.2008L56.1799 55.9948L52.0698 59.2506L53.8638 61.5288L55.1643 59.0893L56.0423 62.8339L53.6977 64.946L51.9084 69.6731H55.3256L56.0423 68.0452L56.9583 70.6413Z" fill="#BA9ED1"/>
<path d="M86.3177 77.3186V85.8284L83.47 95.3159L77.3001 103.218L68.757 108.605L68.6431 108.638L64.4476 105.159L57.9312 105.971V103.693H61.5145L60.8643 99.9481L55.1642 97.9975V93.9253L57.9312 94.7416L61.842 93.9253L62.3308 91.1583H64.9317L67.5373 94.0867L71.1206 90.5081H67.7034V87.4136H71.1206L72.0983 84.4853H81.7045L82.3547 81.761H80.7267L79.5877 78.4577L81.0542 71.4572H78.7714L77.1434 68.8516L77.9598 65.9232L74.3765 64.1292L76.3318 62.506L74.3765 59.2454L75.582 58.4766L80.1477 63.0471L84.4192 70.9493L86.3177 77.3186Z" fill="#BA9ED1"/>
</g>
<defs>
<filter id="filter0_d_1020_574" x="0.784302" y="0.298828" width="102.177" height="169.443" filterUnits="userSpaceOnUse" color-interpolation-filters="sRGB">
<feFlood flood-opacity="0" result="BackgroundImageFix"/>
<feColorMatrix in="SourceAlpha" type="matrix" values="0 0 0 0 0 0 0 0 0 0 0 0 0 0 0 0 0 0 127 0" result="hardAlpha"/>
<feOffset dy="4"/>
<feGaussianBlur stdDeviation="2"/>
<feComposite in2="hardAlpha" operator="out"/>
<feColorMatrix type="matrix" values="0 0 0 0 0 0 0 0 0 0 0 0 0 0 0 0 0 0 0.25 0"/>
<feBlend mode="normal" in2="BackgroundImageFix" result="effect1_dropShadow_1020_574"/>
<feBlend mode="normal" in="SourceGraphic" in2="effect1_dropShadow_1020_574" result="shape"/>
</filter>
</defs>
</svg>
