<svg width="104" height="174" viewBox="0 0 104 174" fill="none" xmlns="http://www.w3.org/2000/svg">
<g filter="url(#filter0_d_1020_705)">
<path d="M11.8696 0.744141L4.01733 10.632V149.938L14.4855 165.217H85.132L99.9614 144.542V15.1239L91.2388 0.744141H11.8696Z" fill="#FAF2C7"/>
<path d="M28.638 37.7802L28.6477 31.8039L30.9251 35.116L40.0587 30.4355L35.2477 38.8246L41.4125 43.5678L32.2741 40.8988L29.987 51.7248L28.7299 43.2439L20.4473 41.3678L28.638 37.7802Z" fill="#FFE34F"/>
<path d="M73.1939 30.1961L75.8968 21.5605L77.4295 27.6819L83.222 23.688L77.5891 31.5693L86.128 31.7821L78.2998 34.1755L75.1618 40.7029L74.5816 33.9289L66.2506 34.7847L73.1939 30.1961Z" fill="#BA9ED1"/>
<path d="M22.6473 122.354L14.4711 119.462L22.8649 118.263L18.9533 114.008L25.355 115.971L28.8508 110.778L26.7959 118.539L33.4829 122.136L26.0223 121.691L23.8561 129.664L22.6473 122.354Z" fill="#290066"/>
<path d="M34.4983 154.68V150.648H33.1348V149.705H37.0851V150.648H35.7167V154.68H34.4983Z" fill="#290066"/>
<path d="M37.8103 154.68V149.705H39.0288V151.658H40.6195V149.705H41.8283V154.68H40.6244V152.621H39.0336V154.68H37.8103Z" fill="#290066"/>
<path d="M42.9259 154.68V149.705H46.4797L46.3589 150.633H44.125V151.692H46.2138V152.592H44.125V153.752H46.3734L46.5039 154.68H42.9307H42.9259Z" fill="#290066"/>
<path d="M48.8345 154.68V149.705H50.8072L51.8661 152.862H51.8951L52.9492 149.705H54.9268V154.68H53.7228V151.112H53.6841L52.5044 154.68H51.1408L49.9659 151.112H49.9272V154.68H48.8345Z" fill="#290066"/>
<path d="M57.9293 154.754C57.6392 154.754 57.3684 154.701 57.1122 154.6C56.8559 154.498 56.6335 154.353 56.4401 154.155C56.2467 153.961 56.0968 153.724 55.9856 153.444C55.8744 153.164 55.8212 152.844 55.8212 152.496V151.892C55.8212 151.539 55.8744 151.225 55.9856 150.944C56.0919 150.664 56.2467 150.427 56.4401 150.233C56.6335 150.04 56.8559 149.89 57.1122 149.789C57.3636 149.687 57.6392 149.639 57.9293 149.639H58.2242C58.5144 149.639 58.7851 149.687 59.0414 149.789C59.2976 149.89 59.5201 150.04 59.7135 150.233C59.9069 150.427 60.0568 150.664 60.168 150.944C60.2792 151.225 60.3324 151.539 60.3324 151.892V152.496C60.3324 152.849 60.2792 153.164 60.168 153.444C60.0616 153.724 59.9069 153.961 59.7135 154.155C59.5201 154.348 59.2976 154.498 59.0414 154.6C58.79 154.701 58.5144 154.754 58.2242 154.754H57.9293ZM58.0744 153.84C58.2146 153.84 58.3403 153.821 58.4563 153.778C58.5724 153.734 58.6739 153.666 58.7658 153.579C58.8528 153.487 58.9253 153.376 58.9737 153.241C59.022 153.105 59.0462 152.946 59.0462 152.757V151.65C59.0462 151.462 59.022 151.302 58.9737 151.167C58.9253 151.031 58.8576 150.92 58.7658 150.828C58.6739 150.736 58.5724 150.673 58.4563 150.63C58.3403 150.586 58.2146 150.567 58.0792 150.567C57.9438 150.567 57.8181 150.586 57.6972 150.63C57.5763 150.673 57.4748 150.741 57.3829 150.828C57.2911 150.915 57.2234 151.031 57.175 151.167C57.1267 151.302 57.1025 151.466 57.1025 151.65V152.757C57.1025 152.946 57.1267 153.11 57.175 153.241C57.2234 153.376 57.2911 153.487 57.3829 153.579C57.4748 153.666 57.5763 153.734 57.6924 153.778C57.8084 153.821 57.9341 153.84 58.0695 153.84H58.0744Z" fill="#290066"/>
<path d="M63.1513 154.754C62.8612 154.754 62.5905 154.701 62.3342 154.6C62.0779 154.498 61.8555 154.353 61.6621 154.155C61.4687 153.961 61.3188 153.724 61.2076 153.444C61.0964 153.164 61.0432 152.844 61.0432 152.496V151.892C61.0432 151.539 61.0964 151.225 61.2076 150.944C61.314 150.664 61.4687 150.427 61.6621 150.233C61.8555 150.04 62.0779 149.89 62.3342 149.789C62.5856 149.687 62.8612 149.639 63.1513 149.639H63.4463C63.7364 149.639 64.0072 149.687 64.2634 149.789C64.5197 149.89 64.7421 150.04 64.9355 150.233C65.1289 150.427 65.2788 150.664 65.39 150.944C65.5012 151.225 65.5544 151.539 65.5544 151.892V152.496C65.5544 152.849 65.5012 153.164 65.39 153.444C65.2836 153.724 65.1289 153.961 64.9355 154.155C64.7421 154.348 64.5197 154.498 64.2634 154.6C64.012 154.701 63.7364 154.754 63.4463 154.754H63.1513ZM63.2964 153.84C63.4366 153.84 63.5623 153.821 63.6784 153.778C63.7944 153.734 63.896 153.666 63.9878 153.579C64.0749 153.487 64.1474 153.376 64.1957 153.241C64.2441 153.105 64.2683 152.946 64.2683 152.757V151.65C64.2683 151.462 64.2441 151.302 64.1957 151.167C64.1474 151.031 64.0797 150.92 63.9878 150.828C63.896 150.736 63.7944 150.673 63.6784 150.63C63.5623 150.586 63.4366 150.567 63.3012 150.567C63.1658 150.567 63.0401 150.586 62.9193 150.63C62.7984 150.673 62.6968 150.741 62.605 150.828C62.5131 150.915 62.4454 151.031 62.3971 151.167C62.3487 151.302 62.3245 151.466 62.3245 151.65V152.757C62.3245 152.946 62.3487 153.11 62.3971 153.241C62.4454 153.376 62.5131 153.487 62.605 153.579C62.6968 153.666 62.7984 153.734 62.9144 153.778C63.0305 153.821 63.1562 153.84 63.2916 153.84H63.2964Z" fill="#290066"/>
<path d="M66.4539 154.68V149.705H67.4692L69.0793 152.084L69.3308 152.529L69.3598 152.514V149.71H70.467V154.685H69.4226L67.7642 152.229L67.5901 151.905H67.5611V154.69H66.4539V154.68Z" fill="#290066"/>
<path d="M97.7759 147.584H4.01733V147.826H97.6019L97.7759 147.584Z" fill="#290066"/>
<path d="M90.3203 157.978H9.52954L9.69394 158.219H90.1462L90.3203 157.978Z" fill="#290066"/>
<path d="M88.9564 81.0473V89.7119L86.0553 99.3822L83.7151 102.375L76.3415 104.116H67.1402L59.5635 102.22L52.7991 100.059L47.3885 90.5871V74.6213L51.9868 64.8785L60.6466 58.3849L69.9833 57.3066L76.385 60.2174L82.6707 66.5031L87.0224 74.5585L88.9564 81.0473Z" fill="#290066"/>
<path d="M83.7153 102.374L79.7698 107.431L71.0665 112.919L61.8797 115.82H53.3408L45.4401 111.952L37.7039 107.431L29.9676 95.9962L27.55 85.6006L29.0006 74.5571L32.8687 67.9523L43.5061 58.282L53.3408 55.3809H65.7478L69.9834 57.3053L60.6467 58.3835L51.987 64.8771L47.3887 74.62V90.5857L52.7993 100.058L59.5636 102.219L67.1403 104.114H76.3417L83.7153 102.374Z" fill="#BA9ED1"/>
</g>
<defs>
<filter id="filter0_d_1020_705" x="0.017334" y="0.744141" width="103.944" height="172.473" filterUnits="userSpaceOnUse" color-interpolation-filters="sRGB">
<feFlood flood-opacity="0" result="BackgroundImageFix"/>
<feColorMatrix in="SourceAlpha" type="matrix" values="0 0 0 0 0 0 0 0 0 0 0 0 0 0 0 0 0 0 127 0" result="hardAlpha"/>
<feOffset dy="4"/>
<feGaussianBlur stdDeviation="2"/>
<feComposite in2="hardAlpha" operator="out"/>
<feColorMatrix type="matrix" values="0 0 0 0 0 0 0 0 0 0 0 0 0 0 0 0 0 0 0.25 0"/>
<feBlend mode="normal" in2="BackgroundImageFix" result="effect1_dropShadow_1020_705"/>
<feBlend mode="normal" in="SourceGraphic" in2="effect1_dropShadow_1020_705" result="shape"/>
</filter>
</defs>
</svg>
