<svg width="104" height="171" viewBox="0 0 104 171" fill="none" xmlns="http://www.w3.org/2000/svg">
<g filter="url(#filter0_d_1020_553)">
<path d="M12.5446 0.581055L4.83691 10.2869V147.027L15.1122 162.025H84.4577L99.014 141.73V14.696L90.4521 0.581055H12.5446Z" fill="#FAF2C7"/>
<path d="M50.3853 133.98L23.1426 103.866L24.2911 90.9612L35.3306 83.2203L44.5808 89.2431L50.3853 96.5568L61.7854 80.4248H67.3764L74.9179 87.5202L80.7082 96.1249L77.628 108.318L65.0128 119.139L55.7626 128.816L50.3853 133.98Z" fill="#BA9ED1"/>
<path d="M64.9039 38.3328H41.1876L38.9474 17.749L47.4524 28.0385L51.9233 15.5088L57.2959 26.9184L64.9039 15.5088V38.3328Z" fill="#FFE34F"/>
<path d="M81.0689 54.164C81.4296 54.5769 81.4296 55.1891 81.0689 55.602C78.2782 58.7867 66.2895 71.4398 51.923 71.4398C37.5565 71.4398 25.5678 58.7867 22.7771 55.602C22.4164 55.1891 22.4164 54.5769 22.7771 54.164C25.5678 50.9793 37.5565 38.3262 51.923 38.3262C66.2895 38.3262 78.2782 50.9793 81.0689 54.164Z" fill="#290066"/>
<path d="M65.459 54.8865C65.459 62.3616 59.3982 68.4224 51.9231 68.4224C44.448 68.4224 38.3872 62.3616 38.3872 54.8865C38.3872 47.4114 44.448 41.3506 51.9231 41.3506C59.3982 41.3506 65.459 47.4114 65.459 54.8865Z" fill="#BA9ED1"/>
<path d="M59.1562 54.8854C59.1562 58.8816 55.9194 62.1185 51.9231 62.1185C47.9269 62.1185 44.6901 58.8816 44.6901 54.8854C44.6901 50.8892 47.9269 47.6523 51.9231 47.6523C55.9194 47.6523 59.1562 50.8892 59.1562 54.8854Z" fill="#FAF2C7"/>
<path d="M28.6292 151.685V147.726H27.2908V146.801H31.1683V147.726H29.8252V151.685H28.6292Z" fill="#290066"/>
<path d="M31.885 151.685V146.801H33.081V148.718H34.6425V146.801H35.829V151.685H34.6472V149.663H33.0858V151.685H31.885Z" fill="#290066"/>
<path d="M36.9016 151.685V146.801H40.39L40.2714 147.712H38.0786V148.751H40.129V149.634H38.0786V150.773H40.2856L40.4137 151.685H36.9064H36.9016Z" fill="#290066"/>
<path d="M42.7061 151.685V146.801H46.1944L46.0758 147.712H43.8831V148.751H45.9334V149.634H43.8831V150.773H46.09L46.2182 151.685H42.7108H42.7061Z" fill="#290066"/>
<path d="M47.0347 151.685V146.801H48.9711L50.0105 149.9H50.039L51.0736 146.801H53.0148V151.685H51.833V148.182H51.795L50.637 151.685H49.2986L48.1453 148.182H48.1073V151.685H47.0347Z" fill="#290066"/>
<path d="M54.0874 151.685V146.801H56.5222C56.7879 146.801 57.03 146.862 57.2531 146.986C57.4714 147.109 57.647 147.28 57.7751 147.494C57.9033 147.707 57.9697 147.949 57.9697 148.21V148.329C57.9697 148.595 57.9033 148.842 57.7704 149.065C57.6375 149.293 57.4619 149.473 57.2388 149.61C57.0205 149.748 56.7737 149.819 56.5032 149.819H55.2787V151.685H54.0921H54.0874ZM55.2787 148.932H56.1899C56.3086 148.932 56.4083 148.908 56.4937 148.851C56.5791 148.799 56.6456 148.728 56.6978 148.633C56.75 148.543 56.7737 148.433 56.7737 148.31C56.7737 148.149 56.7215 148.006 56.6171 147.883C56.5127 147.759 56.3703 147.698 56.1804 147.698H55.2787V148.932Z" fill="#290066"/>
<path d="M62.1747 151.741C61.9991 151.741 61.8472 151.713 61.7143 151.661C61.5814 151.609 61.4818 151.514 61.4106 151.381C61.3346 151.248 61.3014 151.063 61.3014 150.825C61.3014 150.683 61.2872 150.55 61.2587 150.432C61.2302 150.313 61.1875 150.204 61.1306 150.114C61.0736 150.023 60.9977 149.952 60.9122 149.9C60.8221 149.848 60.7129 149.819 60.5848 149.819H59.8681V151.685H58.6958V146.801H61.2445C61.477 146.801 61.6953 146.848 61.8947 146.948C62.094 147.048 62.2601 147.185 62.3883 147.366C62.5164 147.546 62.5829 147.764 62.5829 148.021C62.5829 148.229 62.5449 148.419 62.4642 148.59C62.3835 148.761 62.2791 148.908 62.1462 149.031C62.0181 149.155 61.8709 149.25 61.7143 149.307V149.345C61.814 149.373 61.9089 149.421 62.0038 149.482C62.0988 149.544 62.1794 149.629 62.2506 149.724C62.3218 149.824 62.3788 149.933 62.4262 150.061C62.469 150.19 62.4927 150.332 62.4927 150.489C62.4927 150.602 62.4974 150.707 62.5069 150.807C62.5164 150.906 62.5307 150.996 62.5591 151.072C62.5829 151.153 62.6208 151.215 62.6683 151.267C62.7158 151.319 62.7822 151.357 62.8581 151.381V151.628C62.7632 151.666 62.6541 151.694 62.5402 151.708C62.4215 151.727 62.3028 151.732 62.1889 151.732L62.1747 151.741ZM59.8633 148.932H60.8363C60.936 148.932 61.0261 148.899 61.1068 148.837C61.1875 148.775 61.2492 148.69 61.3014 148.585C61.3489 148.481 61.3726 148.367 61.3726 148.244C61.3726 148.068 61.3251 147.935 61.2255 147.84C61.1258 147.745 61.0024 147.703 60.8553 147.703H59.8681V148.937L59.8633 148.932Z" fill="#290066"/>
<path d="M63.5938 151.685V146.801H67.0821L66.9635 147.712H64.7708V148.751H66.8211V149.634H64.7708V150.773H66.9777L67.1059 151.685H63.5985H63.5938Z" fill="#290066"/>
<path d="M69.6071 151.755C69.2558 151.755 68.9331 151.703 68.6388 151.599C68.3446 151.494 68.1073 151.328 67.9317 151.105C67.7561 150.882 67.6659 150.592 67.6659 150.232V150.156C67.6659 150.132 67.6659 150.104 67.6754 150.075H68.7717C68.7717 150.075 68.767 150.113 68.767 150.127V150.189C68.767 150.317 68.8002 150.431 68.8619 150.526C68.9236 150.621 69.0185 150.702 69.1467 150.754C69.2701 150.806 69.4314 150.834 69.626 150.834C69.8349 150.834 70.001 150.815 70.1339 150.778C70.262 150.74 70.3522 150.683 70.4091 150.602C70.4661 150.521 70.4946 150.426 70.4946 150.312C70.4946 150.184 70.4471 150.08 70.3474 150.004C70.2478 149.928 70.1196 149.866 69.9583 149.819C69.7969 149.771 69.6213 149.724 69.4267 149.681C69.2321 149.638 69.0375 149.586 68.8477 149.52C68.6578 149.453 68.4775 149.373 68.3161 149.268C68.1547 149.164 68.0218 149.026 67.9222 148.851C67.8225 148.675 67.7751 148.457 67.7751 148.191C67.7751 147.863 67.8652 147.593 68.0456 147.375C68.2259 147.156 68.4632 146.99 68.7575 146.881C69.0518 146.772 69.3792 146.715 69.7352 146.715C70.0912 146.715 70.3949 146.767 70.6797 146.867C70.9644 146.966 71.1875 147.123 71.3536 147.332C71.5197 147.545 71.6052 147.816 71.6052 148.148V148.238H70.523V148.177C70.523 148.058 70.4946 147.958 70.4329 147.873C70.3759 147.787 70.2857 147.721 70.1671 147.674C70.0484 147.626 69.9108 147.602 69.7447 147.602C69.5786 147.602 69.4457 147.621 69.327 147.655C69.2084 147.688 69.123 147.735 69.0613 147.802C68.9996 147.868 68.9663 147.949 68.9663 148.053C68.9663 148.186 69.0185 148.291 69.1182 148.366C69.2179 148.442 69.346 148.504 69.5121 148.547C69.6735 148.594 69.8538 148.637 70.0484 148.68C70.2478 148.722 70.4424 148.775 70.637 148.832C70.8315 148.889 71.0119 148.974 71.1733 149.078C71.3346 149.183 71.4675 149.32 71.5672 149.487C71.6669 149.653 71.7143 149.866 71.7143 150.123C71.7143 150.512 71.6242 150.825 71.4391 151.062C71.2587 151.3 71.0072 151.475 70.6892 151.58C70.3712 151.689 70.0152 151.746 69.6165 151.746L69.6071 151.755Z" fill="#290066"/>
<path d="M74.2726 151.755C73.9214 151.755 73.5986 151.703 73.3044 151.599C73.0101 151.494 72.7728 151.328 72.5972 151.105C72.4216 150.882 72.3314 150.592 72.3314 150.232V150.156C72.3314 150.132 72.3314 150.104 72.3409 150.075H73.4373C73.4373 150.075 73.4325 150.113 73.4325 150.127V150.189C73.4325 150.317 73.4657 150.431 73.5274 150.526C73.5891 150.621 73.6841 150.702 73.8122 150.754C73.9356 150.806 74.097 150.834 74.2916 150.834C74.5004 150.834 74.6665 150.815 74.7994 150.778C74.9275 150.74 75.0177 150.683 75.0747 150.602C75.1316 150.521 75.1601 150.426 75.1601 150.312C75.1601 150.184 75.1126 150.08 75.013 150.004C74.9133 149.928 74.7852 149.866 74.6238 149.819C74.4624 149.771 74.2868 149.724 74.0922 149.681C73.8976 149.638 73.703 149.586 73.5132 149.52C73.3234 149.453 73.143 149.373 72.9816 149.268C72.8203 149.164 72.6874 149.026 72.5877 148.851C72.488 148.675 72.4406 148.457 72.4406 148.191C72.4406 147.863 72.5308 147.593 72.7111 147.375C72.8915 147.156 73.1288 146.99 73.423 146.881C73.7173 146.772 74.0448 146.715 74.4007 146.715C74.7567 146.715 75.0604 146.767 75.3452 146.867C75.63 146.966 75.853 147.123 76.0191 147.332C76.1853 147.545 76.2707 147.816 76.2707 148.148V148.238H75.1886V148.177C75.1886 148.058 75.1601 147.958 75.0984 147.873C75.0414 147.787 74.9513 147.721 74.8326 147.674C74.714 147.626 74.5763 147.602 74.4102 147.602C74.2441 147.602 74.1112 147.621 73.9926 147.655C73.8739 147.688 73.7885 147.735 73.7268 147.802C73.6651 147.868 73.6319 147.949 73.6319 148.053C73.6319 148.186 73.6841 148.291 73.7837 148.366C73.8834 148.442 74.0115 148.504 74.1777 148.547C74.339 148.594 74.5194 148.637 74.714 148.68C74.9133 148.722 75.1079 148.775 75.3025 148.832C75.4971 148.889 75.6774 148.974 75.8388 149.078C76.0002 149.183 76.1331 149.32 76.2327 149.487C76.3324 149.653 76.3799 149.866 76.3799 150.123C76.3799 150.512 76.2897 150.825 76.1046 151.062C75.9242 151.3 75.6727 151.475 75.3547 151.58C75.0367 151.689 74.6807 151.746 74.2821 151.746L74.2726 151.755Z" fill="#290066"/>
<path d="M96.8735 144.717H4.83691V144.954H96.7027L96.8735 144.717Z" fill="#290066"/>
<path d="M89.5501 154.919H10.2473L10.4087 155.156H89.3793L89.5501 154.919Z" fill="#290066"/>
</g>
<defs>
<filter id="filter0_d_1020_553" x="0.836914" y="0.581055" width="102.177" height="169.443" filterUnits="userSpaceOnUse" color-interpolation-filters="sRGB">
<feFlood flood-opacity="0" result="BackgroundImageFix"/>
<feColorMatrix in="SourceAlpha" type="matrix" values="0 0 0 0 0 0 0 0 0 0 0 0 0 0 0 0 0 0 127 0" result="hardAlpha"/>
<feOffset dy="4"/>
<feGaussianBlur stdDeviation="2"/>
<feComposite in2="hardAlpha" operator="out"/>
<feColorMatrix type="matrix" values="0 0 0 0 0 0 0 0 0 0 0 0 0 0 0 0 0 0 0.25 0"/>
<feBlend mode="normal" in2="BackgroundImageFix" result="effect1_dropShadow_1020_553"/>
<feBlend mode="normal" in="SourceGraphic" in2="effect1_dropShadow_1020_553" result="shape"/>
</filter>
</defs>
</svg>
