<svg width="154" height="235" viewBox="0 0 154 235" fill="none" xmlns="http://www.w3.org/2000/svg">
<g filter="url(#filter0_d_983_633)">
<path d="M15.9874 0.916016L4.07642 14.4556L4.07642 205.208L19.9553 226.13H127.117L149.612 197.826V20.6063L136.381 0.916016L15.9874 0.916016Z" fill="#B99ED1"/>
<path d="M28.6377 112.704L37.7734 103.139L56.0524 92.5278L69.8291 87.9971H83.0122L96.7889 92.5278L106.233 98.1212L115.808 105.856L123.764 114.102L118.753 121.957L110.134 129.62L100.459 134.263L92.8417 138.106L78.1938 140.032H67.948L54.4334 137.283L45.0048 131.362L36.0619 123.867L28.6377 112.704Z" fill="#F9F1C6"/>
<path d="M59.884 99.0065L69.0968 92.5261L76.4207 91.2236L83.7755 92.5341L88.1699 94.7555L95.0004 101.835L97.2284 106.646L98.3154 111.975L97.5985 120.142L94.5995 126.83L90.9298 131.137L84.3074 135.284L77.608 136.802H71.4636L64.6716 133.278L59.884 129.027L56.2066 122.978L54.5876 116.666V111.36L56.8157 103.513L59.884 99.0065Z" fill="#B99ED1"/>
<path d="M67.7629 105.736L70.3378 103.547L74.948 101.885L79.088 102.109L82.9042 103.811L85.0782 105.736L87.2831 109.324L88.1697 112.944V117.235L86.1652 120.767L83.5286 123.659L80.3986 125.425L76.4205 126.144L71.7795 125.153L69.0195 123.42L66.5987 120.639L65.08 117.131L64.6714 112.329L65.9897 108.805L67.7629 105.736Z" fill="#3C1981"/>
</g>
<defs>
<filter id="filter0_d_983_633" x="0.076416" y="0.916016" width="153.535" height="233.214" filterUnits="userSpaceOnUse" color-interpolation-filters="sRGB">
<feFlood flood-opacity="0" result="BackgroundImageFix"/>
<feColorMatrix in="SourceAlpha" type="matrix" values="0 0 0 0 0 0 0 0 0 0 0 0 0 0 0 0 0 0 127 0" result="hardAlpha"/>
<feOffset dy="4"/>
<feGaussianBlur stdDeviation="2"/>
<feComposite in2="hardAlpha" operator="out"/>
<feColorMatrix type="matrix" values="0 0 0 0 0 0 0 0 0 0 0 0 0 0 0 0 0 0 0.25 0"/>
<feBlend mode="normal" in2="BackgroundImageFix" result="effect1_dropShadow_983_633"/>
<feBlend mode="normal" in="SourceGraphic" in2="effect1_dropShadow_983_633" result="shape"/>
</filter>
</defs>
</svg>
