<svg width="154" height="235" viewBox="0 0 154 235" fill="none" xmlns="http://www.w3.org/2000/svg">
<g filter="url(#filter0_d_983_640)">
<path d="M16.2869 0.916016L4.37598 14.4556L4.37598 205.208L20.2548 226.13H127.417L149.911 197.826V20.6063L136.68 0.916016L16.2869 0.916016Z" fill="#B99ED1"/>
<path d="M28.9373 112.704L38.0729 103.139L56.3519 92.5278L70.1287 87.9971H83.3118L97.0885 92.5278L106.533 98.1212L116.108 105.856L124.064 114.102L119.053 121.957L110.433 129.62L100.758 134.263L93.1413 138.106L78.4934 140.032H68.2476L54.733 137.283L45.3043 131.362L36.3614 123.867L28.9373 112.704Z" fill="#F9F1C6"/>
<path d="M60.1836 99.0065L69.3963 92.5261L76.7203 91.2236L84.075 92.5341L88.4694 94.7555L95.3 101.835L97.528 106.646L98.615 111.975L97.898 120.142L94.8991 126.83L91.2294 131.137L84.607 135.284L77.9075 136.802H71.7631L64.9711 133.278L60.1836 129.027L56.5062 122.978L54.8872 116.666V111.36L57.1152 103.513L60.1836 99.0065Z" fill="#B99ED1"/>
<path d="M68.0624 105.736L70.6374 103.547L75.2476 101.885L79.3876 102.109L83.2037 103.811L85.3778 105.736L87.5827 109.324L88.4692 112.944V117.235L86.4648 120.767L83.8282 123.659L80.6982 125.425L76.7201 126.144L72.079 125.153L69.3191 123.42L66.8983 120.639L65.3795 117.131L64.9709 112.329L66.2893 108.805L68.0624 105.736Z" fill="#3C1981"/>
</g>
<defs>
<filter id="filter0_d_983_640" x="0.375977" y="0.916016" width="153.535" height="233.214" filterUnits="userSpaceOnUse" color-interpolation-filters="sRGB">
<feFlood flood-opacity="0" result="BackgroundImageFix"/>
<feColorMatrix in="SourceAlpha" type="matrix" values="0 0 0 0 0 0 0 0 0 0 0 0 0 0 0 0 0 0 127 0" result="hardAlpha"/>
<feOffset dy="4"/>
<feGaussianBlur stdDeviation="2"/>
<feComposite in2="hardAlpha" operator="out"/>
<feColorMatrix type="matrix" values="0 0 0 0 0 0 0 0 0 0 0 0 0 0 0 0 0 0 0.25 0"/>
<feBlend mode="normal" in2="BackgroundImageFix" result="effect1_dropShadow_983_640"/>
<feBlend mode="normal" in="SourceGraphic" in2="effect1_dropShadow_983_640" result="shape"/>
</filter>
</defs>
</svg>
