<svg width="155" height="235" viewBox="0 0 155 235" fill="none" xmlns="http://www.w3.org/2000/svg">
<g filter="url(#filter0_d_983_647)">
<path d="M16.5863 0.916016L4.67529 14.4556L4.67529 205.208L20.5541 226.13H127.716L150.211 197.826V20.6063L136.98 0.916016L16.5863 0.916016Z" fill="#B99ED1"/>
<path d="M29.2366 112.704L38.3722 103.139L56.6513 92.5278L70.428 87.9971H83.6111L97.3878 92.5278L106.832 98.1212L116.407 105.856L124.363 114.102L119.352 121.957L110.733 129.62L101.057 134.263L93.4406 138.106L78.7927 140.032H68.5469L55.0323 137.283L45.6037 131.362L36.6607 123.867L29.2366 112.704Z" fill="#F9F1C6"/>
<path d="M60.4829 99.0065L69.6956 92.5261L77.0196 91.2236L84.3744 92.5341L88.7687 94.7555L95.5993 101.835L97.8273 106.646L98.9143 111.975L98.1973 120.142L95.1984 126.83L91.5287 131.137L84.9063 135.284L78.2068 136.802H72.0624L65.2704 133.278L60.4829 129.027L56.8055 122.978L55.1865 116.666V111.36L57.4145 103.513L60.4829 99.0065Z" fill="#B99ED1"/>
<path d="M68.3617 105.736L70.9367 103.547L75.5469 101.885L79.6869 102.109L83.503 103.811L85.6771 105.736L87.882 109.324L88.7686 112.944V117.235L86.7641 120.767L84.1275 123.659L80.9975 125.425L77.0194 126.144L72.3783 125.153L69.6184 123.42L67.1976 120.639L65.6789 117.131L65.2703 112.329L66.5886 108.805L68.3617 105.736Z" fill="#3C1981"/>
</g>
<defs>
<filter id="filter0_d_983_647" x="0.675293" y="0.916016" width="153.535" height="233.214" filterUnits="userSpaceOnUse" color-interpolation-filters="sRGB">
<feFlood flood-opacity="0" result="BackgroundImageFix"/>
<feColorMatrix in="SourceAlpha" type="matrix" values="0 0 0 0 0 0 0 0 0 0 0 0 0 0 0 0 0 0 127 0" result="hardAlpha"/>
<feOffset dy="4"/>
<feGaussianBlur stdDeviation="2"/>
<feComposite in2="hardAlpha" operator="out"/>
<feColorMatrix type="matrix" values="0 0 0 0 0 0 0 0 0 0 0 0 0 0 0 0 0 0 0.25 0"/>
<feBlend mode="normal" in2="BackgroundImageFix" result="effect1_dropShadow_983_647"/>
<feBlend mode="normal" in="SourceGraphic" in2="effect1_dropShadow_983_647" result="shape"/>
</filter>
</defs>
</svg>
