<svg width="94" height="171" viewBox="0 0 94 171" fill="none" xmlns="http://www.w3.org/2000/svg">
<g filter="url(#filter0_d_1020_609)">
<path d="M4.47668 10.5243L11.4005 0.832031H81.3852L89.0765 14.9273V141.789L76.0004 162.05H13.7071L4.47668 147.074V10.5243Z" fill="#FAF2C7"/>
<path d="M31.9845 151.798C31.669 151.798 31.3791 151.746 31.1147 151.642C30.8504 151.537 30.6372 151.371 30.4795 151.149C30.3217 150.926 30.2407 150.637 30.2407 150.277V150.201C30.2407 150.177 30.2407 150.149 30.2492 150.12H31.2341C31.2341 150.12 31.2298 150.158 31.2298 150.172V150.234C31.2298 150.362 31.2597 150.476 31.3151 150.57C31.3705 150.665 31.4558 150.746 31.5709 150.798C31.6818 150.85 31.8267 150.879 32.0015 150.879C32.1891 150.879 32.3383 150.86 32.4577 150.822C32.5728 150.784 32.6538 150.727 32.705 150.646C32.7562 150.566 32.7817 150.471 32.7817 150.357C32.7817 150.229 32.7391 150.125 32.6496 150.049C32.56 149.973 32.4449 149.912 32.3 149.864C32.155 149.817 31.9973 149.769 31.8225 149.727C31.6477 149.684 31.4729 149.632 31.3023 149.566C31.1318 149.499 30.9698 149.419 30.8248 149.314C30.6799 149.21 30.5605 149.073 30.4709 148.897C30.3814 148.722 30.3388 148.504 30.3388 148.239C30.3388 147.912 30.4198 147.641 30.5818 147.423C30.7438 147.205 30.957 147.04 31.2213 146.931C31.4857 146.822 31.7798 146.765 32.0996 146.765C32.4193 146.765 32.6922 146.817 32.948 146.916C33.2038 147.016 33.4042 147.172 33.5534 147.381C33.7026 147.594 33.7794 147.864 33.7794 148.196V148.286H32.8073V148.224C32.8073 148.106 32.7817 148.006 32.7263 147.921C32.6752 147.836 32.5942 147.769 32.4876 147.722C32.381 147.675 32.2573 147.651 32.1081 147.651C31.9589 147.651 31.8395 147.67 31.7329 147.703C31.6263 147.736 31.5496 147.784 31.4942 147.85C31.4388 147.916 31.4089 147.997 31.4089 148.101C31.4089 148.234 31.4558 148.338 31.5453 148.414C31.6349 148.49 31.75 148.551 31.8992 148.594C32.0442 148.641 32.2062 148.684 32.381 148.727C32.56 148.769 32.7348 148.822 32.9096 148.878C33.0845 148.935 33.2465 149.021 33.3914 149.125C33.5364 149.229 33.6558 149.367 33.7453 149.533C33.8348 149.698 33.8775 149.912 33.8775 150.168C33.8775 150.556 33.7964 150.869 33.6302 151.106C33.4682 151.343 33.2422 151.518 32.9565 151.623C32.6709 151.732 32.3511 151.789 31.993 151.789L31.9845 151.798Z" fill="#290066"/>
<path d="M35.5188 151.728V147.775H34.3165V146.851H37.7998V147.775H36.5932V151.728H35.5188Z" fill="#290066"/>
<path d="M41.5773 151.784C41.4195 151.784 41.2831 151.756 41.1637 151.704C41.0443 151.652 40.9548 151.557 40.8908 151.424C40.8226 151.291 40.7928 151.107 40.7928 150.87C40.7928 150.727 40.78 150.595 40.7544 150.476C40.7288 150.358 40.6905 150.249 40.6393 150.159C40.5881 150.069 40.5199 149.998 40.4432 149.945C40.3622 149.893 40.2641 149.865 40.149 149.865H39.5052V151.728H38.4521V146.851H40.7416C40.9505 146.851 41.1467 146.898 41.3257 146.998C41.5048 147.097 41.654 147.234 41.7691 147.415C41.8842 147.595 41.9439 147.813 41.9439 148.069C41.9439 148.277 41.9098 148.467 41.8373 148.637C41.7649 148.808 41.6711 148.955 41.5517 149.078C41.4366 149.201 41.3044 149.296 41.1637 149.353V149.391C41.2532 149.419 41.3385 149.467 41.4238 149.528C41.509 149.59 41.5815 149.675 41.6455 149.77C41.7094 149.87 41.7606 149.979 41.8032 150.107C41.8416 150.235 41.8629 150.377 41.8629 150.533C41.8629 150.647 41.8672 150.751 41.8757 150.851C41.8842 150.95 41.897 151.04 41.9226 151.116C41.9439 151.197 41.978 151.258 42.0207 151.31C42.0633 151.363 42.123 151.4 42.1912 151.424V151.671C42.1059 151.709 42.0079 151.737 41.9055 151.751C41.799 151.77 41.6924 151.775 41.5901 151.775L41.5773 151.784ZM39.4967 148.974H40.3707C40.4602 148.974 40.5412 148.941 40.6137 148.879C40.6862 148.817 40.7416 148.732 40.7885 148.628C40.8312 148.524 40.8525 148.41 40.8525 148.287C40.8525 148.111 40.8098 147.979 40.7203 147.884C40.6308 147.789 40.5199 147.746 40.3878 147.746H39.501V148.979L39.4967 148.974Z" fill="#290066"/>
<path d="M42.8478 151.728V146.851H45.9814L45.8748 147.761H43.9051V148.799H45.7469V149.68H43.9051V150.818H45.8876L46.0027 151.728H42.852H42.8478Z" fill="#290066"/>
<path d="M46.736 151.728V146.851H47.6313L49.051 149.182L49.2727 149.618L49.2983 149.604V146.855H50.2746V151.732H49.3537L47.8914 149.325L47.7379 149.007H47.7123V151.737H46.736V151.728Z" fill="#290066"/>
<path d="M52.8499 151.797C52.5941 151.797 52.3596 151.745 52.1379 151.646C51.9204 151.546 51.7328 151.404 51.5708 151.21C51.4088 151.02 51.2852 150.788 51.1999 150.513C51.1146 150.238 51.0677 149.925 51.0677 149.584V148.987C51.0677 148.636 51.1146 148.323 51.2084 148.053C51.3022 147.783 51.4344 147.551 51.6092 147.361C51.784 147.172 51.9844 147.025 52.2231 146.925C52.4576 146.826 52.7177 146.773 52.9948 146.773H53.1355C53.3743 146.773 53.596 146.816 53.8092 146.897C54.0223 146.977 54.2014 147.096 54.3591 147.247C54.5169 147.399 54.6405 147.589 54.7301 147.811C54.8196 148.034 54.8665 148.29 54.8665 148.579H53.8731C53.8731 148.361 53.839 148.186 53.7665 148.053C53.694 147.92 53.6002 147.826 53.4723 147.759C53.3487 147.698 53.1995 147.669 53.0332 147.669C52.9096 147.669 52.7987 147.688 52.6964 147.731C52.5983 147.769 52.5088 147.835 52.4363 147.925C52.3596 148.015 52.3042 148.124 52.2615 148.262C52.2189 148.399 52.2018 148.555 52.2018 148.74V149.835C52.2018 150.02 52.2231 150.181 52.2615 150.309C52.2999 150.442 52.3596 150.551 52.4363 150.641C52.5088 150.726 52.5983 150.793 52.6964 150.835C52.7987 150.878 52.9096 150.897 53.0332 150.897C53.1568 150.897 53.272 150.883 53.3743 150.849C53.4809 150.821 53.5704 150.769 53.6429 150.702C53.7154 150.636 53.775 150.546 53.8134 150.432C53.8561 150.323 53.8731 150.181 53.8731 150.015V149.845H52.9266V149.053H54.858V150.745C54.858 150.973 54.858 151.157 54.8708 151.304C54.8793 151.451 54.8878 151.589 54.9049 151.721H54.3208L54.1588 151.162C54.0266 151.357 53.8433 151.508 53.613 151.622C53.3828 151.736 53.1398 151.793 52.8925 151.793H52.8413L52.8499 151.797Z" fill="#290066"/>
<path d="M55.7362 151.728V146.851H56.8106V148.765H58.2133V146.851H59.2791V151.728H58.2175V149.708H56.8149V151.728H55.7362Z" fill="#290066"/>
<path d="M61.125 151.728V147.775H59.9227V146.851H63.406V147.775H62.1994V151.728H61.125Z" fill="#290066"/>
<path d="M87.1537 144.766H4.47668V145.003H87.0002L87.1537 144.766Z" fill="#290066"/>
<path d="M80.5752 154.956H9.33704L9.48199 155.193H80.4217L80.5752 154.956Z" fill="#290066"/>
<path d="M26.3993 38.2499L26.3908 32.3919L24.3827 35.6385L16.329 31.0459L20.5712 39.2737L15.1353 43.9231L23.1932 41.3069L25.2098 51.9139L26.3183 43.6055L33.6216 41.7619L26.3993 38.2499Z" fill="#FFE34F"/>
<path d="M70.6668 115.647L66.3692 114.462L68.3432 116.941L63.3379 123.306L70.2319 121.135L72.5384 127.007L72.257 119.173L80.4514 119.5L74.5806 116.808L74.7128 109.812L70.6668 115.647Z" fill="#BA9ED1"/>
<path d="M77.0621 31.1501L79.245 20.9033L72.6323 28.5055L64.5829 23.9129L68.8208 32.1406L63.3849 36.7901L70.6072 36.9275L73.4637 44.7809L74.5679 36.4725L81.8712 34.6289L77.0621 31.1501Z" fill="#290066"/>
<path d="M26.962 112.66L23.5513 109.551L25.0648 114.181L21.6924 116.992L25.6531 116.698L26.2927 120.177L27.8232 116.84L31.3619 117.12L28.4585 114.906L29.2558 111.134L26.962 112.66Z" fill="#FFE34F"/>
<path d="M61.833 75.2324L50.3216 81.5786L39.2366 85.3702L35.3995 89.1997L39.663 96.271L51.6007 91.0576L65.6701 83.4744L61.833 75.2324Z" fill="#290066"/>
<path d="M55.9024 75.458L52.5897 69.1071V63.9505L58.4008 60.377L63.3976 61.4813L78.746 87.3589V90.9324L74.1074 94.5013L68.0405 92.5202L55.9024 75.458Z" fill="#BA9ED1"/>
<path d="M27.6911 90.7685L24.3784 84.4176V79.2611L30.1895 75.6875L35.1863 76.7918L50.5347 102.669V106.243L45.8961 109.812L39.8249 107.831L27.6911 90.7685Z" fill="#BA9ED1"/>
</g>
<defs>
<filter id="filter0_d_1020_609" x="0.476685" y="0.832031" width="92.5997" height="169.219" filterUnits="userSpaceOnUse" color-interpolation-filters="sRGB">
<feFlood flood-opacity="0" result="BackgroundImageFix"/>
<feColorMatrix in="SourceAlpha" type="matrix" values="0 0 0 0 0 0 0 0 0 0 0 0 0 0 0 0 0 0 127 0" result="hardAlpha"/>
<feOffset dy="4"/>
<feGaussianBlur stdDeviation="2"/>
<feComposite in2="hardAlpha" operator="out"/>
<feColorMatrix type="matrix" values="0 0 0 0 0 0 0 0 0 0 0 0 0 0 0 0 0 0 0.25 0"/>
<feBlend mode="normal" in2="BackgroundImageFix" result="effect1_dropShadow_1020_609"/>
<feBlend mode="normal" in="SourceGraphic" in2="effect1_dropShadow_1020_609" result="shape"/>
</filter>
</defs>
</svg>
