<svg width="103" height="170" viewBox="0 0 103 170" fill="none" xmlns="http://www.w3.org/2000/svg">
<g filter="url(#filter0_d_1020_652)">
<path d="M12.4612 0.390625L4.75208 10.0983V146.865L15.0294 161.865H84.3881L98.9472 141.567V14.5083L90.3836 0.390625H12.4612Z" fill="#FAF2C7"/>
<path d="M61.1657 56.04C61.1657 62.2871 53.8078 67.281 46.5591 67.281C46.2363 67.281 45.9135 67.2715 45.6002 67.2477C45.3344 67.2335 45.0733 67.2098 44.817 67.1813C42.9229 66.5214 40.9339 62.4438 40.1222 57.2932C39.263 51.8294 40.0462 47.1014 41.8643 46.2612C42.021 46.2137 42.1824 46.171 42.3485 46.133C43.4498 45.8672 44.6746 45.7295 46.0132 45.7295C53.2572 45.7295 61.1562 49.7977 61.1562 56.0448L61.1657 56.04Z" fill="#BA9ED1"/>
<path d="M47.9119 62.6576C47.6176 65.2447 46.8011 67.0248 45.6049 67.2479C45.5907 67.2479 45.5812 67.2527 45.5669 67.2574C45.3248 67.2954 45.0732 67.2669 44.8264 67.1815C44.703 67.1388 44.5748 67.0771 44.4514 67.0058C43.032 66.1846 41.6032 63.5358 40.7012 60.0467C40.4781 59.178 40.2835 58.2571 40.1363 57.2934C39.2771 51.8296 40.0604 47.1016 41.8785 46.2614C41.9972 46.2044 42.1253 46.1664 42.2582 46.1474C42.2915 46.1427 42.3295 46.1379 42.3627 46.1332C44.4229 45.9718 46.7916 50.3818 47.6888 56.1067C47.779 56.6858 47.8502 57.2602 47.9072 57.8156C48.0828 59.591 48.0781 61.2477 47.9167 62.6576H47.9119Z" fill="#290066"/>
<path d="M65.4238 55.0574C65.4238 57.1936 64.0614 58.9215 62.381 58.9215C60.7005 58.9215 59.3381 57.1936 59.3381 55.0574C59.3381 52.9213 60.7005 51.1934 62.381 51.1934C63.3541 51.1934 64.0804 51.8485 64.2608 52.0193C65.4618 53.1586 65.4238 54.8723 65.4238 55.0574Z" fill="#BA9ED1"/>
<path d="M80.5904 52.6844C80.5904 58.3808 79.2042 62.9997 77.4906 62.9997C75.7769 62.9997 74.3907 58.3808 74.3907 52.6844C74.3907 46.988 75.7769 42.3691 77.4906 42.3691C79.2042 42.3691 80.5904 46.988 80.5904 52.6844Z" fill="#BA9ED1"/>
<path d="M75.4541 49.46L61.4836 53.7845V55.9824H75.4541V49.46Z" fill="#BA9ED1"/>
<path d="M40.7914 111.14C47.0005 110.47 51.1778 102.614 50.3993 95.4129C50.3661 95.0901 50.3186 94.7721 50.2664 94.4635C50.2237 94.2024 50.1715 93.9461 50.1145 93.6945C49.2553 91.8811 44.9877 90.3431 39.7802 90.0915C34.2547 89.8257 29.6406 91.1074 28.995 93.0062C28.9665 93.1676 28.9428 93.3337 28.9191 93.4999C28.7719 94.6249 28.7672 95.8544 28.9096 97.1883C29.6881 104.39 34.5775 111.809 40.7914 111.135V111.14Z" fill="#BA9ED1"/>
<path d="M50.2664 94.4201C50.2664 94.4201 50.2664 94.4486 50.2664 94.4581C50.1573 95.849 47.9784 96.9598 44.8074 97.463C43.2171 97.7193 41.3705 97.819 39.4148 97.724C38.3419 97.6718 37.3118 97.5674 36.3434 97.4155C32.0664 96.7461 28.9761 95.1844 28.9286 93.4992V93.39C28.9381 93.2571 28.9618 93.1242 29.0045 93.0007C29.541 91.4152 32.8449 90.2617 37.1314 90.0766C37.9812 90.0434 38.8736 90.0434 39.785 90.0861C40.6632 90.1288 41.5177 90.2095 42.3342 90.3187C46.3359 90.8646 49.4072 92.1843 50.1193 93.6891C50.2332 93.9264 50.2854 94.1733 50.2759 94.4201H50.2664Z" fill="#290066"/>
<path d="M40.2693 115.477C42.3912 115.249 43.9624 113.707 43.7821 112.036C43.6017 110.365 41.7361 109.197 39.6142 109.425C37.4923 109.653 35.921 111.196 36.1014 112.866C36.2058 113.835 36.9369 114.485 37.122 114.647C38.38 115.719 40.0841 115.496 40.2693 115.477Z" fill="#BA9ED1"/>
<path d="M39.5429 130.812C45.206 130.2 49.6493 128.325 49.4641 126.625C49.279 124.926 44.5415 124.043 38.8783 124.655C33.2151 125.268 28.7719 127.143 28.957 128.842C29.1421 130.542 33.8797 131.425 39.5429 130.812Z" fill="#BA9ED1"/>
<path d="M35.788 126.049L38.584 111.694L40.7723 111.457L42.2724 125.347L35.788 126.049Z" fill="#BA9ED1"/>
<path d="M47.9119 62.6574C47.4325 62.6764 46.9672 62.7713 46.521 62.9992C45.3105 63.6163 44.7741 64.9455 44.4418 67.0009C44.214 68.4298 44.0858 70.2052 43.9007 72.3413C42.6332 87.19 41.5841 86.2358 42.2677 90.0524C42.2867 90.1426 42.3009 90.2328 42.3199 90.3183C42.9085 93.4038 43.9244 95.6824 44.7979 97.4625C43.2076 97.7141 41.361 97.8186 39.4052 97.7236C38.3324 97.6714 37.3023 97.567 36.3339 97.4151C36.6567 96.1239 36.9795 94.5716 37.1077 92.6253C37.1694 91.6617 37.1694 90.8262 37.1219 90.0762C36.8656 86.0317 35.2326 84.3845 34.6915 77.4111C34.2215 71.3017 33.9462 67.7367 36.0918 64.3758C37.2264 62.5957 38.8736 61.1336 40.6964 60.0418C43.0367 58.6462 45.6713 57.8582 47.9024 57.8154C48.0781 59.5908 48.0733 61.2475 47.9119 62.6574Z" fill="#FFE34F"/>
<path d="M59.0771 39.4263L43.6397 39.9532L41.8976 33.3596L47.3329 36.6541L50.4897 32.1159L54.7288 34.6793L59.0771 31.252V39.4263Z" fill="#290066"/>
<path d="M21.4947 151.522V147.563H20.156V146.638H24.0391V147.563H22.6957V151.522H21.4994H21.4947Z" fill="#290066"/>
<path d="M24.7463 151.522V146.638H25.9426V148.555H27.5044V146.638H28.6911V151.522H27.5091V149.5H25.9521V151.522H24.7463Z" fill="#290066"/>
<path d="M29.7686 151.522V146.638H33.2576L33.1389 147.549H30.9458V148.589H32.9965V149.472H30.9458V150.611H33.1532L33.2813 151.522H29.7686Z" fill="#290066"/>
<path d="M36.5475 151.522V147.563H35.2089V146.638H39.0919V147.563H37.7485V151.522H36.5523H36.5475Z" fill="#290066"/>
<path d="M39.7992 151.522V146.638H43.2883L43.1696 147.549H40.9765V148.589H43.0272V149.472H40.9765V150.611H43.1838L43.312 151.522H39.7992Z" fill="#290066"/>
<path d="M44.1284 151.522V146.638H46.0652L47.1048 149.737H47.1333L48.1634 146.638H50.1097V151.522H48.9277V148.019H48.8944L47.7314 151.522H46.3927L45.2392 148.019H45.206V151.522H44.1284Z" fill="#290066"/>
<path d="M51.1919 151.522V146.638H53.6271C53.8929 146.638 54.135 146.699 54.3582 146.823C54.5765 146.946 54.7522 147.117 54.8803 147.331C55.0085 147.544 55.075 147.786 55.075 148.048V148.166C55.075 148.432 55.0085 148.679 54.8756 148.902C54.7427 149.13 54.567 149.31 54.3439 149.448C54.1208 149.586 53.8787 149.657 53.6081 149.657H52.3834V151.522H51.1966H51.1919ZM52.3834 148.769H53.2948C53.4135 148.769 53.5132 148.745 53.5986 148.688C53.6841 148.636 53.7505 148.565 53.8028 148.47C53.8502 148.38 53.8787 148.271 53.8787 148.147C53.8787 147.986 53.8265 147.843 53.7221 147.72C53.6176 147.597 53.4752 147.535 53.2853 147.535H52.3786V148.769H52.3834Z" fill="#290066"/>
<path d="M55.7917 151.522V146.638H59.2808L59.1621 147.549H56.969V148.589H59.0197V149.472H56.969V150.611H59.1764L59.3045 151.522H55.7917Z" fill="#290066"/>
<path d="M63.6103 151.579C63.4346 151.579 63.2827 151.551 63.1498 151.499C63.0216 151.446 62.9172 151.351 62.846 151.219C62.7701 151.086 62.7368 150.901 62.7368 150.663C62.7368 150.521 62.7226 150.388 62.6941 150.269C62.6656 150.151 62.6229 150.041 62.5659 149.951C62.509 149.861 62.4378 149.79 62.3476 149.737C62.2574 149.685 62.1482 149.657 62.02 149.657H61.2985V151.522H60.1212V146.638H62.6704C62.903 146.638 63.1213 146.685 63.3207 146.785C63.5201 146.885 63.6862 147.022 63.8144 147.203C63.9426 147.383 64.0043 147.601 64.0043 147.858C64.0043 148.067 63.9663 148.256 63.8856 148.427C63.8049 148.598 63.7005 148.745 63.5676 148.869C63.4346 148.992 63.2922 149.087 63.1356 149.144V149.182C63.2353 149.211 63.3302 149.258 63.4251 149.32C63.5153 149.381 63.6008 149.467 63.672 149.562C63.7432 149.662 63.8002 149.771 63.8476 149.899C63.8903 150.027 63.9141 150.169 63.9141 150.326C63.9141 150.44 63.9141 150.544 63.9283 150.644C63.9426 150.744 63.9568 150.834 63.9758 150.91C63.9995 150.991 64.0375 151.052 64.085 151.105C64.1324 151.157 64.1989 151.195 64.2749 151.219V151.465C64.1799 151.503 64.0707 151.532 63.9521 151.546C63.8334 151.56 63.7147 151.57 63.6055 151.57L63.6103 151.579ZM61.2985 148.769H62.2764C62.3761 148.769 62.4662 148.736 62.5469 148.674C62.6276 148.612 62.6894 148.527 62.7368 148.423C62.7843 148.318 62.808 148.204 62.808 148.081C62.808 147.905 62.7606 147.772 62.6561 147.677C62.5564 147.582 62.433 147.54 62.2859 147.54H61.2985V148.774V148.769Z" fill="#290066"/>
<path d="M64.5311 151.522L66.2733 146.638H67.7116L69.449 151.522H68.2101L67.8635 150.554H66.0264L65.6847 151.522H64.5311ZM66.3113 149.714H67.5787L66.9663 147.867H66.9284L66.3113 149.714Z" fill="#290066"/>
<path d="M70.0139 151.522V146.638H71.0108L72.5915 148.973L72.8384 149.41L72.8669 149.396V146.642H73.9539V151.527H72.9286L71.2956 149.116L71.1247 148.798H71.0962V151.532H70.0092L70.0139 151.522Z" fill="#290066"/>
<path d="M76.954 151.593C76.6596 151.593 76.3843 151.551 76.1232 151.461C75.8669 151.375 75.639 151.237 75.4491 151.057C75.2545 150.877 75.1074 150.644 74.9982 150.364C74.889 150.084 74.832 149.756 74.832 149.377V148.779C74.832 148.408 74.889 148.085 74.9982 147.81C75.1074 147.535 75.264 147.307 75.4586 147.122C75.6533 146.937 75.8764 146.799 76.1327 146.704C76.3843 146.609 76.6549 146.566 76.9397 146.566H77.0964C77.3669 146.566 77.6233 146.604 77.8606 146.685C78.098 146.766 78.3116 146.884 78.492 147.046C78.6724 147.212 78.8148 147.421 78.9145 147.672C79.0142 147.924 79.0664 148.228 79.0664 148.579H77.9508C77.9508 148.29 77.9128 148.066 77.8416 147.905C77.7657 147.744 77.6613 147.63 77.5188 147.563C77.3764 147.497 77.2055 147.464 77.0157 147.464C76.878 147.464 76.7546 147.483 76.6406 147.525C76.5267 147.563 76.4318 147.63 76.3511 147.715C76.2704 147.801 76.2087 147.91 76.1612 148.047C76.1137 148.18 76.0947 148.347 76.0947 148.536V149.633C76.0947 149.88 76.1327 150.084 76.2087 150.241C76.2846 150.397 76.3938 150.516 76.5315 150.587C76.6691 150.663 76.8305 150.696 77.0157 150.696C77.234 150.696 77.4144 150.663 77.5616 150.597C77.704 150.53 77.8179 150.416 77.8939 150.26C77.9698 150.103 78.0078 149.875 78.0078 149.586H79.0759C79.0759 149.913 79.0284 150.203 78.9287 150.454C78.829 150.706 78.6866 150.915 78.5062 151.086C78.3258 151.256 78.117 151.38 77.8796 151.465C77.6423 151.551 77.3859 151.593 77.1201 151.593H76.9634H76.954Z" fill="#290066"/>
<path d="M79.9115 151.522V146.638H83.4006L83.2819 147.549H81.0888V148.589H83.1395V149.472H81.0888V150.611H83.2961L83.4243 151.522H79.9115Z" fill="#290066"/>
<path d="M96.8016 144.554H4.75208V144.791H96.6307L96.8016 144.554Z" fill="#290066"/>
<path d="M10.1637 154.76H89.4817L89.3108 154.997H10.3251L10.1637 154.76Z" fill="#290066"/>
</g>
<defs>
<filter id="filter0_d_1020_652" x="0.752075" y="0.390625" width="102.195" height="169.475" filterUnits="userSpaceOnUse" color-interpolation-filters="sRGB">
<feFlood flood-opacity="0" result="BackgroundImageFix"/>
<feColorMatrix in="SourceAlpha" type="matrix" values="0 0 0 0 0 0 0 0 0 0 0 0 0 0 0 0 0 0 127 0" result="hardAlpha"/>
<feOffset dy="4"/>
<feGaussianBlur stdDeviation="2"/>
<feComposite in2="hardAlpha" operator="out"/>
<feColorMatrix type="matrix" values="0 0 0 0 0 0 0 0 0 0 0 0 0 0 0 0 0 0 0.25 0"/>
<feBlend mode="normal" in2="BackgroundImageFix" result="effect1_dropShadow_1020_652"/>
<feBlend mode="normal" in="SourceGraphic" in2="effect1_dropShadow_1020_652" result="shape"/>
</filter>
</defs>
</svg>
