<svg width="155" height="235" viewBox="0 0 155 235" fill="none" xmlns="http://www.w3.org/2000/svg">
<g filter="url(#filter0_d_983_668)">
<path d="M16.4686 0.927734L4.55762 14.4673L4.55762 205.22L20.4365 226.142H127.599L150.093 197.838V20.6181L136.862 0.927734L16.4686 0.927734Z" fill="#B99ED1"/>
<path d="M29.1189 112.716L38.2546 103.151L56.5336 92.5395L70.3103 88.0088H83.4934L97.2701 92.5395L106.714 98.1329L116.289 105.868L124.245 114.114L119.234 121.969L110.615 129.632L100.94 134.275L93.3229 138.118L78.675 140.044H68.4292L54.9146 137.295L45.486 131.374L36.5431 123.879L29.1189 112.716Z" fill="#F9F1C6"/>
<path d="M60.3652 99.0182L69.578 92.5378L76.9019 91.2354L84.2567 92.5458L88.6511 94.7672L95.4816 101.847L97.7096 106.657L98.7966 111.987L98.0797 120.153L95.0807 126.842L91.411 131.149L84.7886 135.296L78.0892 136.814H71.9448L65.1528 133.29L60.3652 129.039L56.6878 122.99L55.0688 116.678V111.372L57.2969 103.525L60.3652 99.0182Z" fill="#B99ED1"/>
<path d="M68.2441 105.748L70.819 103.559L75.4292 101.896L79.5692 102.12L83.3854 103.822L85.5594 105.748L87.7643 109.336L88.6509 112.956V117.246L86.6464 120.778L84.0098 123.671L80.8798 125.437L76.9017 126.156L72.2607 125.165L69.5007 123.431L67.0799 120.65L65.5612 117.143L65.1526 112.34L66.4709 108.816L68.2441 105.748Z" fill="#3C1981"/>
</g>
<defs>
<filter id="filter0_d_983_668" x="0.557617" y="0.927734" width="153.535" height="233.214" filterUnits="userSpaceOnUse" color-interpolation-filters="sRGB">
<feFlood flood-opacity="0" result="BackgroundImageFix"/>
<feColorMatrix in="SourceAlpha" type="matrix" values="0 0 0 0 0 0 0 0 0 0 0 0 0 0 0 0 0 0 127 0" result="hardAlpha"/>
<feOffset dy="4"/>
<feGaussianBlur stdDeviation="2"/>
<feComposite in2="hardAlpha" operator="out"/>
<feColorMatrix type="matrix" values="0 0 0 0 0 0 0 0 0 0 0 0 0 0 0 0 0 0 0.25 0"/>
<feBlend mode="normal" in2="BackgroundImageFix" result="effect1_dropShadow_983_668"/>
<feBlend mode="normal" in="SourceGraphic" in2="effect1_dropShadow_983_668" result="shape"/>
</filter>
</defs>
</svg>
