<svg width="103" height="170" viewBox="0 0 103 170" fill="none" xmlns="http://www.w3.org/2000/svg">
<g filter="url(#filter0_d_1020_527)">
<path d="M12.0729 0.0322266L4.37598 9.72448V146.274L14.637 161.251H83.8856L98.4217 140.985V14.1275L89.8716 0.0322266H12.0729Z" fill="#FAF2C7"/>
<path d="M19.547 72.8785C19.547 54.7689 34.2299 40.0859 52.3395 40.0859C70.4491 40.0859 85.132 54.7689 85.132 72.8785C85.132 90.988 70.4491 105.671 52.3395 105.671C34.2299 105.671 19.547 90.988 19.547 72.8785Z" fill="#BA9ED1"/>
<path d="M25.8174 72.8796C25.8174 58.2298 37.6898 46.3574 52.3396 46.3574C66.9893 46.3574 78.8617 58.2298 78.8617 72.8796C78.8617 87.5294 66.9893 99.4018 52.3396 99.4018C37.6898 99.4018 25.8174 87.5294 25.8174 72.8796Z" fill="#FFE34F"/>
<path d="M43.7659 73.6234C43.7659 69.5807 47.0409 66.3057 51.0836 66.3057C55.1264 66.3057 58.4014 69.5807 58.4014 73.6234C58.4014 77.6662 55.1264 80.9412 51.0836 80.9412C47.0409 80.9412 43.7659 77.6662 43.7659 73.6234Z" fill="#BA9ED1"/>
<path d="M49.8702 69.1719L46.4293 58.0199V49.1618V44.2422H49.8702L51.0835 50.8016V56.707L52.3395 64.0864V69.8259L49.8702 69.1719Z" fill="#BA9ED1"/>
<path d="M48.0693 69.8265L37.2443 59.6603L32.4859 53.7549L29.5332 55.0677L28.5521 58.3474L33.9646 62.4471L38.3107 66.3051L43.7659 70.3194L47.0835 72.8787L48.0693 69.8265Z" fill="#BA9ED1"/>
<path d="M46.4295 74.9122L36.5856 72.8789H27.2393L23.7937 73.8979V77.3719L30.3532 75.8932L39.8653 77.3719H47.4106L46.4295 74.9122Z" fill="#BA9ED1"/>
<path d="M49.382 76.0586L42.1638 84.9167L35.6043 89.8363L33.3057 94.1018L35.6043 96.8886L42.6567 91.3103L49.382 84.2579L52.3395 78.0255L49.382 76.0586Z" fill="#BA9ED1"/>
<path d="M51.0835 73.6221L52.3395 88.0301L51.7138 96.8882L53.1499 101.974L58.4013 100.168L56.7614 94.9213L54.7424 84.2575V74.4183L51.0835 73.6221Z" fill="#BA9ED1"/>
<path d="M49.3821 72.8789L57.0885 78.8459L66.1077 83.7655L72.8236 89.7278L76.4398 86.4718L68.0746 78.5189L56.5956 73.623L54.7424 74.4192L49.3821 72.8789Z" fill="#BA9ED1"/>
<path d="M53.4818 72.8787L65.6149 69.8265L76.4399 68.5136L81.3595 65.2339L79.5585 59.9873L72.5061 63.3192L64.795 65.3998L52.3396 69.8265L53.4818 72.8787Z" fill="#BA9ED1"/>
<path d="M51.0835 70.8132L54.7424 62.6139L59.5482 52.277L65.6148 46.3574L70.0462 49.4902L64.7948 54.7416L59.5482 62.2821L54.7424 69.8274L51.0835 70.8132Z" fill="#BA9ED1"/>
<path d="M29.301 150.925V146.972H27.9645V146.048H31.8366V146.972H30.4954V150.925H29.301Z" fill="#290066"/>
<path d="M32.5428 150.925V146.048H33.7372V147.963H35.2965V146.048H36.4814V150.925H35.3012V148.906H33.7419V150.925H32.5428Z" fill="#290066"/>
<path d="M37.5619 150.925V146.048H41.0454L40.9269 146.958H38.7373V147.996H40.7847V148.877H38.7373V150.015H40.9411L41.0691 150.925H37.5666H37.5619Z" fill="#290066"/>
<path d="M45.292 150.994C44.9982 150.994 44.7233 150.951 44.4626 150.861C44.2067 150.776 43.9792 150.638 43.7896 150.458C43.6 150.278 43.4484 150.046 43.3394 149.766C43.2304 149.491 43.1782 149.16 43.1782 148.78V148.183C43.1782 147.814 43.2351 147.491 43.3441 147.216C43.4579 146.941 43.6095 146.714 43.8038 146.529C43.9982 146.344 44.2209 146.207 44.4768 146.112C44.7328 146.017 44.9982 145.975 45.2826 145.975H45.439C45.7091 145.975 45.965 146.013 46.202 146.093C46.439 146.174 46.6523 146.292 46.8324 146.453C47.0125 146.619 47.1547 146.828 47.2542 147.079C47.3537 147.33 47.4058 147.633 47.4058 147.984H46.2921C46.2921 147.695 46.2541 147.472 46.1831 147.311C46.1072 147.15 46.003 147.036 45.8608 146.97C45.7186 146.904 45.548 146.87 45.3536 146.87C45.2162 146.87 45.093 146.889 44.9792 146.932C44.8655 146.97 44.7707 147.036 44.6901 147.122C44.6095 147.207 44.5479 147.316 44.5005 147.453C44.4531 147.586 44.4342 147.752 44.4342 147.941V149.036C44.4342 149.283 44.4721 149.487 44.5479 149.643C44.6238 149.799 44.728 149.918 44.8655 149.989C45.0029 150.065 45.1641 150.098 45.3489 150.098C45.5669 150.098 45.747 150.065 45.8939 149.998C46.0409 149.932 46.1499 149.818 46.2257 149.662C46.3015 149.506 46.3395 149.278 46.3395 148.989H47.4058C47.4058 149.316 47.3585 149.605 47.2589 149.856C47.1594 150.107 47.0219 150.316 46.8418 150.487C46.6617 150.657 46.4532 150.78 46.2162 150.866C45.9793 150.951 45.7233 150.994 45.4532 150.994H45.2968H45.292Z" fill="#290066"/>
<path d="M48.2401 150.925V146.048H49.4345V147.963H50.9938V146.048H52.1786V150.925H50.9985V148.906H49.4392V150.925H48.2401Z" fill="#290066"/>
<path d="M52.7472 150.925L54.4913 146.048H55.9274L57.662 150.925H56.425L56.0791 149.958H54.2449L53.9036 150.925H52.7519H52.7472ZM54.5245 149.119H55.7899L55.1786 147.275H55.1454L54.5245 149.119Z" fill="#290066"/>
<path d="M61.7049 150.982C61.5295 150.982 61.3779 150.953 61.2452 150.901C61.1124 150.849 61.0129 150.754 60.9418 150.621C60.866 150.489 60.8328 150.304 60.8328 150.067C60.8328 149.925 60.8186 149.792 60.7902 149.674C60.7617 149.555 60.7191 149.446 60.6622 149.356C60.6053 149.266 60.5295 149.195 60.4442 149.143C60.3541 149.091 60.2451 149.062 60.1172 149.062H59.4015V150.925H58.2308V146.048H60.7759C61.0082 146.048 61.2262 146.095 61.4253 146.195C61.6243 146.294 61.7902 146.432 61.9182 146.612C62.0461 146.792 62.1125 147.01 62.1125 147.266C62.1125 147.474 62.0746 147.664 61.994 147.835C61.9134 148.005 61.8092 148.152 61.6764 148.275C61.5485 148.399 61.4016 148.493 61.2452 148.55V148.588C61.3447 148.617 61.4395 148.664 61.5343 148.726C61.629 148.787 61.7096 148.873 61.7807 148.967C61.8518 149.067 61.9087 149.176 61.9561 149.304C61.9987 149.432 62.0224 149.574 62.0224 149.73C62.0224 149.844 62.0272 149.948 62.0366 150.048C62.0461 150.148 62.0603 150.238 62.0888 150.313C62.1125 150.394 62.1504 150.456 62.1978 150.508C62.2452 150.56 62.3115 150.598 62.3874 150.621V150.868C62.2926 150.906 62.1836 150.934 62.0698 150.948C61.9513 150.967 61.8328 150.972 61.7191 150.972L61.7049 150.982ZM59.3967 148.176H60.3683C60.4679 148.176 60.5579 148.143 60.6385 148.081C60.7191 148.019 60.7807 147.934 60.8328 147.83C60.8802 147.726 60.9039 147.612 60.9039 147.489C60.9039 147.313 60.8565 147.181 60.757 147.086C60.6575 146.991 60.5342 146.948 60.3873 146.948H59.4015V148.181L59.3967 148.176Z" fill="#290066"/>
<path d="M62.9514 150.925V150.057H63.5249V146.915H62.9514V146.048H65.288V146.915H64.7192V150.057H65.288V150.925H62.9514Z" fill="#290066"/>
<path d="M68.07 150.995C67.7856 150.995 67.5202 150.943 67.269 150.843C67.0178 150.744 66.7998 150.601 66.6102 150.407C66.4206 150.218 66.2737 149.985 66.1647 149.71C66.0557 149.436 66.0035 149.123 66.0035 148.782V148.189C66.0035 147.843 66.0557 147.535 66.1647 147.26C66.2689 146.985 66.4206 146.753 66.6102 146.563C66.7998 146.374 67.0178 146.227 67.269 146.127C67.5154 146.028 67.7856 145.98 68.07 145.98H68.3591C68.6434 145.98 68.9088 146.028 69.16 146.127C69.4112 146.227 69.6293 146.374 69.8188 146.563C70.0084 146.753 70.1553 146.985 70.2643 147.26C70.3734 147.535 70.4255 147.843 70.4255 148.189V148.782C70.4255 149.127 70.3734 149.436 70.2643 149.71C70.1601 149.985 70.0084 150.218 69.8188 150.407C69.6293 150.597 69.4112 150.744 69.16 150.843C68.9136 150.943 68.6434 150.995 68.3591 150.995H68.07ZM68.2121 150.099C68.3496 150.099 68.4728 150.08 68.5866 150.037C68.7003 149.995 68.7998 149.928 68.8899 149.843C68.9752 149.753 69.0463 149.644 69.0937 149.511C69.1411 149.379 69.1648 149.222 69.1648 149.037V147.952C69.1648 147.767 69.1411 147.611 69.0937 147.478C69.0463 147.345 68.9799 147.236 68.8899 147.146C68.7998 147.056 68.7003 146.995 68.5866 146.952C68.4728 146.909 68.3496 146.89 68.2169 146.89C68.0842 146.89 67.961 146.909 67.8425 146.952C67.724 146.995 67.6244 147.061 67.5344 147.146C67.4443 147.232 67.378 147.345 67.3306 147.478C67.2832 147.611 67.2595 147.772 67.2595 147.952V149.037C67.2595 149.222 67.2832 149.383 67.3306 149.511C67.378 149.644 67.4443 149.753 67.5344 149.843C67.6244 149.928 67.724 149.995 67.8377 150.037C67.9515 150.08 68.0747 150.099 68.2074 150.099H68.2121Z" fill="#290066"/>
<path d="M72.2504 150.925V146.972H70.9138V146.048H74.786V146.972H73.4447V150.925H72.2504Z" fill="#290066"/>
<path d="M96.2842 143.967H4.37598V144.204H96.1135L96.2842 143.967Z" fill="#290066"/>
<path d="M88.9711 154.157H9.77893L9.94007 154.394H88.8004L88.9711 154.157Z" fill="#290066"/>
</g>
<defs>
<filter id="filter0_d_1020_527" x="0.375977" y="0.0322266" width="102.046" height="169.219" filterUnits="userSpaceOnUse" color-interpolation-filters="sRGB">
<feFlood flood-opacity="0" result="BackgroundImageFix"/>
<feColorMatrix in="SourceAlpha" type="matrix" values="0 0 0 0 0 0 0 0 0 0 0 0 0 0 0 0 0 0 127 0" result="hardAlpha"/>
<feOffset dy="4"/>
<feGaussianBlur stdDeviation="2"/>
<feComposite in2="hardAlpha" operator="out"/>
<feColorMatrix type="matrix" values="0 0 0 0 0 0 0 0 0 0 0 0 0 0 0 0 0 0 0.25 0"/>
<feBlend mode="normal" in2="BackgroundImageFix" result="effect1_dropShadow_1020_527"/>
<feBlend mode="normal" in="SourceGraphic" in2="effect1_dropShadow_1020_527" result="shape"/>
</filter>
</defs>
</svg>
