<svg width="133" height="226" viewBox="0 0 133 226" fill="none" xmlns="http://www.w3.org/2000/svg">
<path d="M11.457 0.253906L0.704834 13.7935V204.546L15.0389 225.468H111.776L132.082 197.157V19.9442L120.138 0.253906H11.457Z" fill="#FAF2C7"/>
<path d="M52.3804 78.1004V65.4679L43.6806 47.5056L32.1736 44.9764L24.3081 46.9428L20.3819 58.4564L17.0119 61.5417L14.4828 56.7681L16.1711 44.9764L23.4672 38.2431L36.9406 35.4358L52.3804 37.6803L61.9276 50.5909L66.1384 63.7862V74.1743L69.9255 62.3826V50.8756L79.6118 42.1692L91.1188 35.4358L102.626 34.0322L111.047 36.8395L118.628 42.732L120.31 52.5573L116.947 59.8601H114.417L113.855 52.842L109.644 44.6984L94.7669 47.2275L86.6299 57.609L85.2263 63.7862L88.0335 71.6451L87.4707 82.874L52.3804 78.1004Z" fill="#FFE34F"/>
<path d="M53.923 73.9898L40.5357 66.3428L30.3396 67.998L23.6526 76.5388L18.2301 79.4057L28.4262 82.875L39.9001 81.3191L49.7783 82.875L53.923 73.9898Z" fill="#BA9ED1"/>
<path d="M80.6843 77.4933L92.476 67.999L106.181 72.7462L110.955 77.4933L115.417 79.4067L108.406 82.876H96.6206H87.4707L80.6843 89.9206V77.4933Z" fill="#BA9ED1"/>
<path d="M43.9587 73.8916L57.9949 67.999L70.3493 69.4026L82.9752 73.8916L90.8408 90.4569L82.4191 112.352L74.8383 120.489L75.1163 133.962L69.2238 137.054L54.0687 133.684L50.6987 124.422L54.3468 110.657L43.9587 96.9122V73.8916Z" fill="#290066"/>
<path d="M84.9481 165.33L72.5076 172.851L76.8839 183.822L65.8934 177.738L54.7638 183.895L58.2993 170.938L47.8384 164.787L58.392 163.41L66.1781 148.983L72.1103 161.642L84.9481 165.33Z" fill="#290066"/>
<path d="M43.3628 211.04V205.519H41.4957V204.228H46.9049V205.519H45.0312V211.04H43.3628Z" fill="#290066"/>
<path d="M47.8915 211.04V204.228H49.5599V206.902H51.7382V204.228H53.3934V211.04H51.7448V208.22H49.5666V211.04H47.8915Z" fill="#290066"/>
<path d="M54.903 211.04V204.228H59.7693L59.6037 205.499H56.5449V206.949H59.4051V208.18H56.5449V209.769H59.6236L59.8024 211.04H54.9096H54.903Z" fill="#290066"/>
<path d="M63.0002 211.04V204.228H65.8207C66.2246 204.228 66.602 204.294 66.9463 204.42C67.2972 204.545 67.6017 204.737 67.8732 204.982C68.138 205.234 68.3499 205.538 68.4955 205.909C68.6478 206.273 68.7206 206.697 68.7206 207.174V207.915C68.7206 208.392 68.6478 208.822 68.4955 209.2C68.3499 209.584 68.138 209.908 67.8732 210.186C67.6017 210.464 67.2972 210.67 66.9463 210.815C66.602 210.961 66.2246 211.034 65.8207 211.034H63.0002V211.04ZM64.6687 209.769H65.6817C65.92 209.769 66.1385 209.716 66.3305 209.604C66.5225 209.491 66.6814 209.326 66.794 209.1C66.9065 208.875 66.9595 208.604 66.9595 208.273V206.896C66.9595 206.565 66.9065 206.293 66.794 206.088C66.6814 205.883 66.5291 205.73 66.3305 205.631C66.1385 205.532 65.92 205.479 65.6817 205.479H64.6687V209.769Z" fill="#290066"/>
<path d="M69.952 211.04V204.228H74.8183L74.6528 205.499H71.594V206.949H74.4542V208.18H71.594V209.769H74.6727L74.8514 211.04H69.9586H69.952Z" fill="#290066"/>
<path d="M77.4932 211.04L75.3083 204.228H77.0364L78.5128 208.935H78.5526L80.029 204.228H81.618L79.4133 211.04H77.4866H77.4932Z" fill="#290066"/>
<path d="M82.2139 211.04V209.829H83.015V205.439H82.2139V204.228H85.4779V205.439H84.6834V209.829H85.4779V211.04H82.2139Z" fill="#290066"/>
<path d="M86.7556 211.04V204.228H88.4241V209.729H91.1519L91.3174 211.04H86.749H86.7556Z" fill="#290066"/>
<path d="M129.089 201.322H0.704834V201.653H128.851L129.089 201.322Z" fill="#290066"/>
<path d="M118.88 215.557H8.25256L8.47767 215.888H118.642L118.88 215.557Z" fill="#290066"/>
</svg>
