<svg width="154" height="235" viewBox="0 0 154 235" fill="none" xmlns="http://www.w3.org/2000/svg">
<g filter="url(#filter0_d_983_619)">
<path d="M16.2869 0.904297L4.37598 14.4439L4.37598 205.196L20.2548 226.118H127.417L149.911 197.814V20.5946L136.68 0.904297L16.2869 0.904297Z" fill="#B99ED1"/>
<path d="M28.9373 112.692L38.0729 103.128L56.3519 92.516L70.1287 87.9854H83.3118L97.0885 92.516L106.533 98.1095L116.108 105.844L124.064 114.091L119.053 121.946L110.433 129.609L100.758 134.251L93.1413 138.095L78.4934 140.02H68.2476L54.733 137.272L45.3043 131.351L36.3614 123.855L28.9373 112.692Z" fill="#F9F1C6"/>
<path d="M60.1836 98.9948L69.3963 92.5144L76.7203 91.2119L84.075 92.5224L88.4694 94.7438L95.3 101.823L97.528 106.634L98.615 111.964L97.898 120.13L94.8991 126.818L91.2294 131.125L84.607 135.272L77.9075 136.79H71.7631L64.9711 133.267L60.1836 129.016L56.5062 122.967L54.8872 116.654V111.348L57.1152 103.502L60.1836 98.9948Z" fill="#B99ED1"/>
<path d="M68.0624 105.725L70.6374 103.535L75.2476 101.873L79.3876 102.097L83.2037 103.799L85.3778 105.725L87.5827 109.312L88.4692 112.932V117.223L86.4648 120.755L83.8282 123.648L80.6982 125.413L76.7201 126.133L72.079 125.142L69.3191 123.408L66.8983 120.627L65.3795 117.119L64.9709 112.317L66.2893 108.793L68.0624 105.725Z" fill="#3C1981"/>
</g>
<defs>
<filter id="filter0_d_983_619" x="0.375977" y="0.904297" width="153.535" height="233.214" filterUnits="userSpaceOnUse" color-interpolation-filters="sRGB">
<feFlood flood-opacity="0" result="BackgroundImageFix"/>
<feColorMatrix in="SourceAlpha" type="matrix" values="0 0 0 0 0 0 0 0 0 0 0 0 0 0 0 0 0 0 127 0" result="hardAlpha"/>
<feOffset dy="4"/>
<feGaussianBlur stdDeviation="2"/>
<feComposite in2="hardAlpha" operator="out"/>
<feColorMatrix type="matrix" values="0 0 0 0 0 0 0 0 0 0 0 0 0 0 0 0 0 0 0.25 0"/>
<feBlend mode="normal" in2="BackgroundImageFix" result="effect1_dropShadow_983_619"/>
<feBlend mode="normal" in="SourceGraphic" in2="effect1_dropShadow_983_619" result="shape"/>
</filter>
</defs>
</svg>
