<svg width="155" height="235" viewBox="0 0 155 235" fill="none" xmlns="http://www.w3.org/2000/svg">
<g filter="url(#filter0_d_983_626)">
<path d="M16.5863 0.904297L4.67529 14.4439L4.67529 205.196L20.5541 226.118H127.716L150.211 197.814V20.5946L136.98 0.904297L16.5863 0.904297Z" fill="#B99ED1"/>
<path d="M29.2366 112.692L38.3722 103.128L56.6513 92.516L70.428 87.9854H83.6111L97.3878 92.516L106.832 98.1095L116.407 105.844L124.363 114.091L119.352 121.946L110.733 129.609L101.057 134.251L93.4406 138.095L78.7927 140.02H68.5469L55.0323 137.272L45.6037 131.351L36.6607 123.855L29.2366 112.692Z" fill="#F9F1C6"/>
<path d="M60.4829 98.9948L69.6956 92.5144L77.0196 91.2119L84.3744 92.5224L88.7687 94.7438L95.5993 101.823L97.8273 106.634L98.9143 111.964L98.1973 120.13L95.1984 126.818L91.5287 131.125L84.9063 135.272L78.2068 136.79H72.0624L65.2704 133.267L60.4829 129.016L56.8055 122.967L55.1865 116.654V111.348L57.4145 103.502L60.4829 98.9948Z" fill="#B99ED1"/>
<path d="M68.3617 105.725L70.9367 103.535L75.5469 101.873L79.6869 102.097L83.503 103.799L85.6771 105.725L87.882 109.312L88.7686 112.932V117.223L86.7641 120.755L84.1275 123.648L80.9975 125.413L77.0194 126.133L72.3783 125.142L69.6184 123.408L67.1976 120.627L65.6789 117.119L65.2703 112.317L66.5886 108.793L68.3617 105.725Z" fill="#3C1981"/>
</g>
<defs>
<filter id="filter0_d_983_626" x="0.675293" y="0.904297" width="153.535" height="233.214" filterUnits="userSpaceOnUse" color-interpolation-filters="sRGB">
<feFlood flood-opacity="0" result="BackgroundImageFix"/>
<feColorMatrix in="SourceAlpha" type="matrix" values="0 0 0 0 0 0 0 0 0 0 0 0 0 0 0 0 0 0 127 0" result="hardAlpha"/>
<feOffset dy="4"/>
<feGaussianBlur stdDeviation="2"/>
<feComposite in2="hardAlpha" operator="out"/>
<feColorMatrix type="matrix" values="0 0 0 0 0 0 0 0 0 0 0 0 0 0 0 0 0 0 0.25 0"/>
<feBlend mode="normal" in2="BackgroundImageFix" result="effect1_dropShadow_983_626"/>
<feBlend mode="normal" in="SourceGraphic" in2="effect1_dropShadow_983_626" result="shape"/>
</filter>
</defs>
</svg>
