<svg width="155" height="235" viewBox="0 0 155 235" fill="none" xmlns="http://www.w3.org/2000/svg">
<g filter="url(#filter0_d_983_654)">
<path d="M16.8697 0.927734L4.95874 14.4673L4.95874 205.22L20.8376 226.142H128L150.494 197.838V20.6181L137.263 0.927734L16.8697 0.927734Z" fill="#B99ED1"/>
<path d="M29.52 112.716L38.6557 103.151L56.9347 92.5395L70.7114 88.0088H83.8945L97.6712 92.5395L107.115 98.1329L116.69 105.868L124.646 114.114L119.635 121.969L111.016 129.632L101.341 134.275L93.724 138.118L79.0761 140.044H68.8303L55.3157 137.295L45.8871 131.374L36.9442 123.879L29.52 112.716Z" fill="#F9F1C6"/>
<path d="M60.7663 99.0182L69.9791 92.5378L77.303 91.2354L84.6578 92.5458L89.0522 94.7672L95.8827 101.847L98.1107 106.657L99.1978 111.987L98.4808 120.153L95.4818 126.842L91.8122 131.149L85.1898 135.296L78.4903 136.814H72.3459L65.5539 133.29L60.7663 129.039L57.0889 122.99L55.47 116.678V111.372L57.698 103.525L60.7663 99.0182Z" fill="#B99ED1"/>
<path d="M68.6452 105.748L71.2201 103.559L75.8304 101.896L79.9703 102.12L83.7865 103.822L85.9605 105.748L88.1654 109.336L89.052 112.956V117.246L87.0476 120.778L84.4109 123.671L81.2809 125.437L77.3029 126.156L72.6618 125.165L69.9018 123.431L67.4811 120.65L65.9623 117.143L65.5537 112.34L66.872 108.816L68.6452 105.748Z" fill="#3C1981"/>
</g>
<defs>
<filter id="filter0_d_983_654" x="0.95874" y="0.927734" width="153.535" height="233.214" filterUnits="userSpaceOnUse" color-interpolation-filters="sRGB">
<feFlood flood-opacity="0" result="BackgroundImageFix"/>
<feColorMatrix in="SourceAlpha" type="matrix" values="0 0 0 0 0 0 0 0 0 0 0 0 0 0 0 0 0 0 127 0" result="hardAlpha"/>
<feOffset dy="4"/>
<feGaussianBlur stdDeviation="2"/>
<feComposite in2="hardAlpha" operator="out"/>
<feColorMatrix type="matrix" values="0 0 0 0 0 0 0 0 0 0 0 0 0 0 0 0 0 0 0.25 0"/>
<feBlend mode="normal" in2="BackgroundImageFix" result="effect1_dropShadow_983_654"/>
<feBlend mode="normal" in="SourceGraphic" in2="effect1_dropShadow_983_654" result="shape"/>
</filter>
</defs>
</svg>
