<svg width="154" height="208" viewBox="0 0 154 208" fill="none" xmlns="http://www.w3.org/2000/svg">
<path d="M32 165.818L68.1325 18.9723L93.9957 0L105.026 7.96838L116.436 40.2213L121 58.0553L89.0513 177.581L70.7949 188.964L50.6368 192L35.4231 184.791L32 165.818Z" fill="#101340"/>
<path d="M39.8883 30L14.0559 59.9465L0 169.877L4.55866 172.53V179.733L20.1341 193H43.6871L58.1229 179.733L65.7207 160.4L68 66.7698L60.4022 50.0907L58.1229 40.993L47.486 36.8233H43.6871V33.7907L39.8883 30Z" fill="#B99ED1"/>
<path d="M94.9045 106.293L87 138.431L92.2697 173.216L87 175.106L92.2697 192.876L99.4213 200.438L129.91 208L151.365 196.279L154 186.449L135.556 125.576L99.4213 101L94.9045 106.293Z" fill="#FFE250"/>
</svg>
