<svg width="127" height="77" viewBox="0 0 127 77" fill="none" xmlns="http://www.w3.org/2000/svg">
<path d="M32.6607 22.7663L7.51973 55.2807L37.6658 40.5764L73.7673 30.4309L99.4583 29.4435L76.4639 10.4565L63.4673 14.1089L56.4702 28.0207L41.8064 20.1961L32.6607 22.7663Z" fill="#101340"/>
<path d="M49.1551 51.8899L34.9569 47.57L15.2214 53.1162L46.2038 67.2616L63.0512 62.527L87.8426 47.2501L93.2007 31.202L67.689 38.3715L59.2636 49.0491L49.1551 51.8899Z" fill="#101340"/>
<path d="M86.0875 24.3714L63.2373 35.4672L78.7443 38.8999L97.4257 38.8436L113.31 34.3796L119.074 19.7756L110.083 2.56631L94.6798 6.89504L86.0875 24.3714Z" fill="#B99ED1"/>
</svg>
