<svg width="173" height="174" viewBox="0 0 173 174" fill="none" xmlns="http://www.w3.org/2000/svg">
<path d="M28.479 155.228L53.2065 128.306L121.139 131.344L136.452 147.044L145.862 160.478L145.281 173.465L27.8982 168.215L28.479 155.228Z" fill="#2A1467"/>
<path d="M145.95 109.278L137.128 124.875L122.059 139.33L114.799 142.335L102.547 147.422L81.2915 148.44L61.7997 144.308L46.4281 135.614L36.144 120.606L26.8205 104.591L24.5371 76.1283L30.7698 54.9528L44.6256 36.5494L58.3139 28.5981L87.3094 22.0207L107.968 26.8119L130.302 39.4447L135.968 47.2216L144.528 58.9798L149.444 76.6953L149.076 95.6273L145.95 109.278Z" fill="#FFE250"/>
</svg>
