<svg width="673" height="289" viewBox="0 0 673 289" fill="none" xmlns="http://www.w3.org/2000/svg">
<path d="M647.257 238.791L601.4 274.882L464.643 129.453L439.096 117.261L405.414 93.9701L408.281 85.7336L434.287 98.3942L404.766 72.8468L408.987 65.9942L441.295 87.901L405.895 56.3383L415.664 46.7902L458.364 82.1062L423.094 39.5279L429.148 33.6109L484.605 76.4039L487.437 34.6632L493.891 31.9768L501.592 39.8559L505.931 95.4484L647.257 238.791Z" fill="#101340"/>
<path d="M25.7808 238.791L71.6375 274.882L208.394 129.453L233.942 117.261L267.624 93.9701L264.756 85.7336L238.751 98.3942L268.271 72.8468L264.051 65.9942L231.743 87.901L267.143 56.3383L257.374 46.7902L214.673 82.1062L249.943 39.5279L243.889 33.6109L188.433 76.4039L185.601 34.6632L179.146 31.9768L171.445 39.8559L167.106 95.4484L25.7808 238.791Z" fill="#101340"/>
</svg>
