<svg width="173" height="173" viewBox="0 0 173 173" fill="none" xmlns="http://www.w3.org/2000/svg">
<path d="M28.4789 154.676L53.2064 127.754L121.138 130.792L136.452 146.492L145.862 159.926L145.281 172.913L27.8981 167.663L28.4789 154.676Z" fill="#2A1467"/>
<path d="M145.95 108.726L137.128 124.324L122.059 138.778L114.799 141.783L102.547 146.87L81.2914 147.888L61.7995 143.757L46.428 135.062L36.1439 120.054L26.8204 104.039L24.537 75.5766L30.7697 54.401L44.6254 35.9977L58.3138 28.0463L87.3093 21.4689L107.967 26.2601L130.302 38.8929L135.968 46.6699L144.528 58.4281L149.444 76.1436L149.075 95.0756L145.95 108.726Z" fill="#FFE250"/>
</svg>
