<svg width="89" height="137" viewBox="0 0 89 137" fill="none" xmlns="http://www.w3.org/2000/svg">
<path d="M31.5 10.5L37.5 27.5L20 31.5L13.5 43.5L5 54.5L0 74L5 92.5H13.5V81.5V68.5L24.5 60.5V76.5L27 92.5V104.5V128C27 131.6 30 135.5 31.5 137H42.5V123.5L37.5 104.5L42.5 92.5L49.5 112L53.5 137H69V123.5L65 104.5L62 92.5C61.3333 87.5 60 76.8 60 74C60 71.2 55.6667 63.8333 53.5 60.5H65L69 68.5L76 85L83.5 92.5L88.5 81.5L83.5 60.5L80 43.5L76 31.5H53.5L62 24.5L65 10.5L60 0H42.5L31.5 10.5Z" fill="#B99ED1"/>
</svg>
