<svg width="199" height="341" viewBox="0 0 199 341" fill="none" xmlns="http://www.w3.org/2000/svg">
<path d="M16.24 0L0 20.45V308.56L21.65 340.16H167.76L198.43 297.4V29.74L180.39 0H16.24Z" fill="#FAF2C7"/>
<path d="M78.0501 117.58V98.4995L64.9101 71.3695L47.5301 67.5495L35.6501 70.5195L29.7201 87.9095L24.6301 92.5695L20.8101 85.3595L23.3601 67.5495L34.3801 57.3795L54.7301 53.1395L78.0501 56.5295L92.4701 76.0295L98.8301 95.9595V111.65L104.55 93.8395V76.4595L119.18 63.3095L136.56 53.1395L153.94 51.0195L166.66 55.2595L178.11 64.1595L180.65 78.9995L175.57 90.0295H171.75L170.9 79.4295L164.54 67.1295L142.07 70.9495L129.78 86.6295L127.66 95.9595L131.9 107.83L131.05 124.79L78.0501 117.58Z" fill="#FFE34F"/>
<path d="M80.38 111.37L60.16 99.8203L44.76 102.32L34.66 115.22L26.47 119.55L41.87 124.79L59.2 122.44L74.12 124.79L80.38 111.37Z" fill="#BA9ED1"/>
<path d="M120.8 116.66L138.61 102.32L159.31 109.49L166.52 116.66L173.26 119.55L162.67 124.79H144.87H131.05L120.8 135.43V116.66Z" fill="#BA9ED1"/>
<path d="M65.3301 111.22L86.5301 102.32L105.19 104.44L124.26 111.22L136.14 136.24L123.42 169.31L111.97 181.6L112.39 201.95L103.49 206.62L80.6001 201.53L75.5101 187.54L81.0201 166.75L65.3301 145.99V111.22Z" fill="#290066"/>
<path d="M127.24 249.33L108.45 260.69L115.06 277.26L98.4599 268.07L81.6499 277.37L86.9899 257.8L71.1899 248.51L87.1299 246.43L98.8899 224.64L107.85 243.76L127.24 249.33Z" fill="#290066"/>
<path d="M64.4301 318.37V310.03H61.6101V308.08H69.7801V310.03H66.9501V318.37H64.4301Z" fill="#290066"/>
<path d="M71.2701 318.37V308.08H73.7901V312.12H77.0801V308.08H79.5801V318.37H77.0901V314.11H73.8001V318.37H71.2701Z" fill="#290066"/>
<path d="M81.8601 318.37V308.08H89.2101L88.9601 310H84.3401V312.19H88.6601V314.05H84.3401V316.45H88.9901L89.2601 318.37H81.8701H81.8601Z" fill="#290066"/>
<path d="M94.0901 318.37V308.08H98.3501C98.9601 308.08 99.5301 308.18 100.05 308.37C100.58 308.56 101.04 308.85 101.45 309.22C101.85 309.6 102.17 310.06 102.39 310.62C102.62 311.17 102.73 311.81 102.73 312.53V313.65C102.73 314.37 102.62 315.02 102.39 315.59C102.17 316.17 101.85 316.66 101.45 317.08C101.04 317.5 100.58 317.81 100.05 318.03C99.5301 318.25 98.9601 318.36 98.3501 318.36H94.0901V318.37ZM96.6101 316.45H98.1401C98.5001 316.45 98.8301 316.37 99.1201 316.2C99.4101 316.03 99.6501 315.78 99.8201 315.44C99.9901 315.1 100.07 314.69 100.07 314.19V312.11C100.07 311.61 99.9901 311.2 99.8201 310.89C99.6501 310.58 99.4201 310.35 99.1201 310.2C98.8301 310.05 98.5001 309.97 98.1401 309.97H96.6101V316.45Z" fill="#290066"/>
<path d="M104.59 318.37V308.08H111.94L111.69 310H107.07V312.19H111.39V314.05H107.07V316.45H111.72L111.99 318.37H104.6H104.59Z" fill="#290066"/>
<path d="M115.98 318.37L112.68 308.08H115.29L117.52 315.19H117.58L119.81 308.08H122.21L118.88 318.37H115.97H115.98Z" fill="#290066"/>
<path d="M123.11 318.37V316.54H124.32V309.91H123.11V308.08H128.04V309.91H126.84V316.54H128.04V318.37H123.11Z" fill="#290066"/>
<path d="M129.97 318.37V308.08H132.49V316.39H136.61L136.86 318.37H129.96H129.97Z" fill="#290066"/>
<path d="M193.91 303.69H0V304.19H193.55L193.91 303.69Z" fill="#290066"/>
<path d="M178.49 325.19H11.3999L11.7399 325.69H178.13L178.49 325.19Z" fill="#290066"/>
</svg>
